<mxfile host="app.diagrams.net" modified="2023-04-18T07:53:02.177Z" agent="Mozilla/5.0 (X11; Linux x86_64) AppleWebKit/537.36 (KHTML, like Gecko) Chrome/111.0.0.0 Safari/537.36" etag="UvvbKnkQU9e7ny7cX7Na" version="21.1.4" type="github">
  <diagram name="Page-1" id="8kjtRQUSUIFoT18kYcmf">
    <mxGraphModel dx="1360" dy="804" grid="1" gridSize="10" guides="1" tooltips="1" connect="1" arrows="1" fold="1" page="1" pageScale="1" pageWidth="850" pageHeight="1100" math="0" shadow="0">
      <root>
        <mxCell id="0" />
        <mxCell id="1" parent="0" />
        <mxCell id="CeNyIN0ISboNSnAgq0YE-4" value="" style="shape=image;imageAspect=0;aspect=fixed;verticalLabelPosition=bottom;verticalAlign=top;image=data:image/png,iVBORw0KGgoAAAANSUhEUgAAB4AAAAQ4CAYAAADo08FDAAAABHNCSVQICAgIfAhkiAAAABl0RVh0U29mdHdhcmUAZ25vbWUtc2NyZWVuc2hvdO8Dvz4AAAAtdEVYdENyZWF0aW9uIFRpbWUAdGkgMTguIGh1aHRpa3V1dGEgMjAyMyAxMC40MC4xNrn4aYIAACAASURBVHic7N13mBXV/cfx98y9WygLuPSmoIgKdgERARHEAvauxB5jiR3Rn0Zji8YoJvYaNWDHCgqCWBC7YKUjVQSpS1+23Dvz+2MFQdoCi8D6fj3PPoE7M+d8Z5zw7NzPnHOC6tWrx0iSJEmSJEmSJEmStnnhli5AkiRJkiRJkiRJklQ2DIAlSZIkSZIkSZIkqZwwAJYkSZIkSZIkSZKkcsIAWJIkSZIkSZIkSZLKCQNgSZIkSZL+oJo3b84TTzzBRRddtOKziy66iMcff5xmzZptwcokSZIkqXyZNGkSkydPXvGzORkA/0EFQUDz5s05/fTTad26NZmZmVu6JEmSJEnbgH26XcdVR9QjsYWOV9np0qULTz31FO+99x69evVa8XmvXr14//33efrppzn88MO3YIWSJEmStHmde+65m7X9XXfdlT59+jBq1CiCIFhl26hRo+jTpw+77bZbmfcbVK9ePS7zVrVVC8OQvffemzp16lCrVi0aNGhAfn4+H3/8MV9++eWWLm+Ddbr2IQ6dfCfX95lGeksVEdal1Zln0mLKEzw8JG9LVVE621KtkiRJ2upc2H88p394NB3vGktqMxxff79O7Lj4Mz4en8+Kh9WMVlzW91GO//g8OtzxzcYXrxVq167NgAED6NatG/PmzePvf/877dq1A2Do0KHcdttt1KhRg2effZYuXbowa9asLVyxJEmSpPKoXr16HHXUUbRu3ZqmTZuSm5sLQF5eHuPHj+ezzz7jrbfeYsaMGWXed6dOnXjsscdo0qTJKp9nZGRQXFxcJn288sorDBw4kNdee40FCxYQRRFQktVVq1aN4447jq5du3L88ceXSX/LbXUjgOvv14l2TSuySgae0YrLBnzNkOv3WX8Da9h3k9ssRxKJBC1atKB27drEcUwURcRxTIUKFTjkkEPKppPf+dru3qkzLRtkr/rft5TWeG9sjMQOHHTOOXTdpWLJ37fm++u3tUqSJElbkXMffJge7aus+jt6tJhZUyYxadaSdR6bvevZPPjJGF46reqqGyrvzgm3vcDgr8YwbvRXDHnhVro1q7BBzwFrbTtRjzZX/Jf+X4xmzMhP6H//eRyQW5r3rJPU6voA740dS78/1/n14Xyj29sw3bp1Y/DgwUycOJHevXszduxY2rZtS9u2bRk/fjy9evViwoQJvPvuu5x22mll3r8kSZKkP7Z69epx//33079/fxo1asSLL77IySefzD777MM+++zDySefzEsvvUTjxo0ZMGAA999/P/Xq1Suz/vfcc08eeOABEolV56cKgoATTzyRRo0alUk/u+++Oy+//DJ5eXkrwl+AKIrIy8vj5Zdfpnnz5mXS18o2SwAc1ziJB76ZyNhnT6LhBvawKQ/7a9t3k9vcBlWuXJm99tqLZDK54rPMzExatWpFbm7uivB3eQC8/GddDnt4FBM/vIYD1jBbdNjiFt4b9wX3d8rciq5tQKU9/sTNvd/hsxHjGD/2e4a9/wqPXX4AtX+5L9d4b5SFsroGFZtyyOX38fzgL/l+7HjGfv8Jg567mysOqlk2dUqSJEnbgvQYXrr4RM598oc1bg6rNuOwKx6n78t/47Dav9kYbMdBN/+PO9rM4IUrT+To0//GiwWHc/N/r+OQyusPVtfZNhk0/vOjPH5+XcY9dCl/ufpZJu55LY//50R2+OWZ49LXP6T/1Xv+tiiqtr+V/920H9mFG9ZeWTnggAPo27cvbdq0YcmSJTz00EMsWbKEJUuW8OCDD7J06VLatGlDv379aNOmTdl2LkmSJOkP7dBDD+XNN9/kxx9/5MADD+S6665j0KBBTJ8+nYKCAgoKCpg+fToDBw7kuuuu48ADD2TatGm8+eabHHbYYZvcf8OGDXnqqaeoUKHCKp8HQUAcx3zwwQcceuihq23fGJmZmSxatGit2xctWrRZlmndDAFwgsYnn8shxXNY2OLPnLN3GazstJ6H/Y3ad0Pa3AZ17NiRZs2aceihh1K1alUqVKhAq1atqFKlyoqwd+rUqUydOnWVIHhdPuz7IXl1j+TofX/73zSLPbscxvbz3ub1Twq3mmsb5x7NbU/fwvFVv+TpG//K+Rf24I7nhjN74RIWRus/fpOUxTWociBXvPA6j567M4vfe5CbLr+YS//2IK+Pr0CVCkVlV6skSZK0QUJqHPMA7wwfzbgx3/LJq3dz/j6VVrxUeeNn41Yd0drwQp4f8wl3tg5KdTxksPv1nzJh0iQmTRrNk0cmINGcC/uPZ+g1u66xoton3cJNHRbwxqU38drC32zM2JOD2lZmzPN38b+hoxj37UAevfs1xufuT6vG638VdF1tx5mt6Xbmrsx/7v+4rvd7fDTwEa6+5S0W7X8+Z+xesk/FqrlUq/CbN8obnUHPO/fm62v+j5dnbVh7ZaVevXpMnTqVTp06MWjQoNW2Dxo0iE6dOjF58mTq169ftp1LkiRJ+kMbOXIk6XSaDz/8kGXLltGuXTt69uzJkCFDGDNmDGPGjGHIkCH07NmTtm3bkp+fz+DBg4miiDFjxmxUn2eddRaTJ09m8uTJDB06lOrVq6+yPTs7m379+tGwYUNmzpzJ+PHj2XvvvcvidLeIMg+A4wrtOPP0enz1779wz7DtOfHsDmz322fqRG1aXHA/Lw/9jjFjR/H1kOe4ar/lD8Trf9g/8F/fMqH/hTRf8QwdsN3pfRjz9V10rdJsDV8MlPILhIyGtLv8EV754GtGjf6Gj166g7P2+GV64KAyO59yFy9++B1jxo9l5Odv89AJq73+vdUYMWIEqVSKnJwcOnfuTJs2bcjOziaOY4qLi/n2228ZO3bsBo0AXvbRGwyaX4/OR7dg5Xce4qxWHHlYdeYNfINPC4LVr+16rt26vyBK0OC0J3jny5GMGT+OUV/056mrDqReKd4rCHdpw/450+j7jxt4/I13+XDIIF5/8k5u/N8IClbstYZ7Y701QZy1E4dd35uBw8YwbvRw3u99Ce1XngluTfdXoi77X/wQr348grFjv+OT1//NJQdUZ82nUoG9LruTv+44goe6HccFd/bm9UHvMvjNF3j0lku4deDCUre53lph3fe+JEmS9BuFE9/i/h7nceZFd9C3uDPXPnQNHSuVfpridR9fzIQnzqDLEUdwxBHHcOOQ9Hrb+/mpU2h77DU88ulcVntVMv0TU6YF7Nj2IBpnAiSoudeeNJg/nK+mrL/mdbUdbL8f+1ZfyFefjmL5QN7CYZ8wPGrEPnuXfJnwr457cOBtK61bnNmcs++6lFrPXMY/PllMvIHtlZXnn3+e2bNns/POO6/xC5SxY8fSpEkTZs+ezfPPP1+mfUuSJEn6Y5sxYwbXXnstjzzyCG+++Sa9e/fmhBNOYIcddiA7O5vs7Gx22GEHTjjhBJ555hn69u3Lo48+yg033MCPP/64UX2edNJJ69xeUFDA4MGDuf766wEYPXr0amsDb0uS699lQwRU6fwnjuV1uvf7ns/mvsOV957JcfXe46npy/epwK6X9qLXeSkG39eDe0csJqPmduT/uPyhvpgJT5zLZa/NJSZi8fTVH/a/GjqMpUcfSOtajzLqZ4AcWhy4O+FXvfk8P6Dhakesv02oyF5X9+bxoybwxG3nc/PM6rS++Db+9lgx0w/9O+82uJB7bmnH/Psu4/QP5xLUbEK1n+eVzWXbDCZPnkxBQQFt2rQhkUiQm5vLsmXLmD17NiNGjGDZsmUAqwS/6wuAg/yhvDpgLqd0OZK2FT5n8LKSeDCj1TEcUX0Cb77+HYVrOnCXTbl2EfO/eY6eVz7Cz4tCara5kL9feS83jm7PRQOXrfvI6ZOZmj6WA4/tQIPvPuCnojXFmaW5N34jqELrG3pz/9Fz6Pvvy7jth4haLU7h4r2C1b9sWqECza7szdNnLWPA3Zdz9/gkOx1/Nf/35JNUPPVE7vo+tcrecXZ7Tj62Dove6sGjI9d4VUvXZqlqXc+9v8QYWJIkSSuLWDxyEG99MJYUn/HFnJ046NUj6Lh7wHtflM3xBXMmMn7cTFZM3LO+F0CjiLVO8pOeyIt/v5P9H7+V1986hLeGZ9GmU4IXLruTQYtL8bvuutquXpMazGX43F/3CApnMWt+yJ61qgO/fe7JYIezb+cSHuaMJydQEO+zie1tvIceegiABg0arPELlKlTp7L99tuTSqVW7CtJkiRJZeWDDz7g7bff5rTTTlvvvs2aNePll19e4+xFpdW4ceP17tOrVy+GDBlCEATMnTuXatWqrZgWelNNnjx5o+vaGGUbAIc7cEy3tizqeywf50PR0Od4dfYznHbijvS+bxIpIK5yGH85qxGTH+zM1f+dRmoNzazvYX/ZZ+/yServHNyuCk/1WURUoQ0d94dv7vmU+XHdNZa23i8QqnXlvNNy+ezvV/Kft5cQAyP/vgMHfXABXVvczLsF1cllPsO//IxvRhcBozbuGv2OiouLycvLIzc3lyAIyM7OpkqVKqstaF36G7eAb17py/jTj+PY9rczeFABUInWR3Wk1riHeGX0WtqptinXLmbp2CG8s/yvo3uyU9d+nL3PjjBw3e0EP/6P625own03PMG7nUYw5I2Xef751/nox4JV3rJf7d5YX0XVjuCs43IZ858T+L9evxw3bClNTmhPh7UdVPVw/vKnhkx6sDPX9p5GGvh8+I9U2OVNrvhze+667P1Va6+zM01yUoz/dvRKo5U3vM1S1bq+e3/Ipv/DJkmSpHJs+lR+iquTWy0ANuJ3x009fr1CKtdrwvaJMQzoM4Sp2x/B/hWb0fn4Nrzw1SCmrumhtNQCgg2puc6JXHt+Fm/85VlGF7GGJ/INbG8ThWFIrVq1mDVr1mrbZs2aRc2aNUkkEqTTpXhRVpIkSZI20E033cS+++7LbrvtRhCs/QXdSZMmccMNN2z2egoLC8nIyCAMQ6KoJDUqqwD491amU0AHTU/ilD1G8uprYykGgqKveOXVyWx/3Im0yCy5OOFOe7JHhZ8Y9uVPawx/S9XP/Pfo/1nIfp3akRtARqvOdMj+lP7vzSt1iLdam42b0axCJdreOYwxY8cyduxYxn7Qg9YZlahduzLx18/w0Kc16Nb7HV6843yObFatrIdPl6m6deuyxx57ADBnzhyWLVtGHMdUrVqVjh070qBBA6Ak/F2+BvDym3mdxvahz4hqHHzswVQPgKqdOf6QLL59pR8/rOU7gU27dlnU63wN97/8Lp989R3ffPwY5zYOyMwqzYLYBUx97WqObdOBU+94n7l7XsLD77zPS5fsTbVNGNQaNt6Npsmf+Pqr0ofGwY570Dy75L5fcZlSE/niyzlkNdtrDQcEv0w9vvZ/VErTZmlqXd+9L0mSJK1LnE6RIiDxy+/Y6QiSyYxSLyfy2+PLPP+s0oX/u/MoFt53Htf/93ke+/sZdDnzJfKP+Qc9Di7Nc8U6zJvNHGpSs8avj9ZxZi1qV4vIm10yWje7cg6Vs0tewq3S4WgOzm3Cn14YUfJ798gX+euOGTTr8QHf33NQqdorS/Xr12fevHkUFa0+l1FRURF5eXnUrbvml6wlSZIkaVNFUUS3bt1YunTpWvdZtmwZf/rTnzb5xdS1jcBd2eGHH75ifeKqVauSn59fuuxsK1SGAXAWe5xwLLtm78uVgycxadIkJk36gfe7NyWjwbGc3OaXB+sgXPcXAaV52I/nMeTNTyg4oCuH5FagxeEdqPp5PwbNWUvLpWkzCCCaydvXHknXrl1/+TmCww/tQvcBSwmKRvPCeQdzyAVP813dP/HPvu/y8kW7rr/dLaRRo0bEcczSpUsZPnw4H3zwAYsWLSKOY5LJJC1btmSvvfZa8eZCadYABiA9ib4vfk5x+5M5qk7IdoedyCHxOzz/1py1B4zruXbr/IJol4t48L5uNBr5INecfRKnnH8nb/20gRejYDrf9nuQG07vzDH3zmTXS2/jL8u7X8spr7OmOAYCgnBDUuRgg9bTjWdOZuqyJDvttjNZm9JmaWpdz70vSZIkbYg5eQnq7bTDOn6PXbdlhQE5VXPK7mG17i7smjOfyZPmr3hmKRj9Bd8tqUL9BtU2qen4x6/4el5V9mu924rzzWrZlhaJKXzzbUlg22PwNwy9YV8AlvTvTtdDD6fL8t+7j+7OCz+lmPjU2Rx715elaq8s7bfffnzzzTdr3f7111+z3377lXm/kiRJkrTcggULOOeccyguLl5tW3FxMeeddx6zZ8/e5H769Omzzu3Z2dn06NGDe+65B4Cdd965VKHx1qrMnqnjCm054chcRj1wCkeuCJG60vXIs7j3+5p0PvEgtgsgmjyascUNaNmqwRpHgZbuYT9myfuv8Pay9hx7/PEc3ylm6KuDmbOWMK80bUaTxzCuuBbNGsVMmziRiSt+JvPz4l++JoiXMu3jXvzznC50e3oJzc88uVTXZkv45ptvmDJlCsOHDyc/P5/8/Hw+/PBD8vLyiKKIOI5p1KgRjRs3XhH+lu4thpj5A5/jrcVtOO3kQzjxtJYUDHiegfPXd9jar926viBKNN2D3cLPePG+N/hkxHjGjx7B5IWr71e6MDafiR8N46egEY23L9l/bffGumqKJ41gVGFD2rRtTGnHC5Qc04CWrer/Ovt4cidataxJ0ZjvVz+fgqH0e2ch2x39V7rtuObx0qVpszS1lurelyRJkkrp/cGTyO56PXeeeyjtWrfmwAN2JncdM9v81sgxKRoefQlnd9qfAw45iWP2zdmkeuKpn/HJz/U46uruHNdqV5o2b8MJf7uCoyqN59MvNu1LhKDoc57rPY7cP/2T205tT+tO5/HPG7pQ5Yv/8uzIkn2mfvMlw6csAiBaPINJK//OPWk6eUUxhfOmMmnWslK1V1bq1KnDJZdcwgsvvLDWfV544QUuu+wy6tSpU7adS5IkSdJKhg8fzgMPPLBKCJxOp3n44Yf57LPPyqSP3r1707hxYxo3bkz79u2ZN2/Vl2wLCgo46qijGDZsGDk5Oeyzzz7rfGG2tNY3hfS6pr7eFGU2i3GF9sfTtepwHuszjNHTV94SkjdgFBdffiJHVB/M83MH8OSLF/HCZY9zb/Agr3wzl6KqDcn5sS+DxhYzckyKC4++hLO/fZ5RwfbUyhtI3+9W7y9YOoQ+by2iz5V/Y++8F7nog3zitYyHLE2bwfwBPPnSRTx/waM8kH6IF4fPpKBiPXatNolXXv+OxQ07c8YBEePH/MzSzAa0blKZYEFeWV2+MldQUMCUKVNW+ayoqIiPP/6Yli1bUqtWLeI4XuXGK+0c5sGS9+n18nROPP8eLk+O5enrhrNsXQdsv+5r9/7gSXS/8HruHHMvL49eRLR9yRdEPwLpieOYwKmc9NejmdZ/InNT9WiQs2qd8xaE1G19JB0aPcq7U/JXfJ7Y52LuOinB15+O4sd5BQTbNaX9WSfRtGAYfUaVtLHGe+PrxeusiYVv81jvC3nlwid4iPt49ouZFFTajyaV1vF/0oVv8/gzF/HyXx/mzvz/8Mr4JE2O78EVTUfT+6ahq+8fL+Kjf9/Ka/v35LqXXmDX/73Ee6NmsjSxHQ2atWTHHx/h9r6laLMUta733t/2praXJEnSFjThsYu5stqtXHXxvTxZNaRo4Wymf/cZI+eV7hfLwXfdyHN3d+fSh44gY8lkPv3PsDU+E5ZWUPAp/zm/B1x3Edc8eT41MgqYN+FTXrz8Nu4bvfHtlihm8n8v4IKKt/G37o9xdMUFTHr/bi64+RWm/PIuZe+LT6d3GbZXVpZ/ifLMM8+Uat/GjRuXbQGSJEmStJIHHniANm3asP/++wMlofC99967WfqaNm0a5557Li+++CIVKlRY8XleXh5BENClSxe++uor5s9f3+jH9SsqKqJKlSoMHz6cFi1arLJt2LBhVKlShYKCgk3u57eC6tWrl0m8c8Qjo7mv2m106vYC037zYBo3vIAXBl9O5u3tOfGZuZBRnzZ/uZ6rTmlLszpZRHkTGXzHmVzZbx6JRifw97u7c+weNX552L+AP79YiQv7vc7pHx5N+7vG/tpw0yt5rd+FVHm0C4ffO7FkTeFE89X2LXWbGfU58ILruPKktuxWtyLB4hlMGHgHF974DrP3uZyn/nUm+21flazUQn4a8Q69br+Np7/PZ1sTBAH77rsvdevWpWrVqtSoUYNly5YxbNiw0r/NUPcsnhz8dw747Eo6/qUfM1e+i37z3yC537qvXZzVhC7X3spVR+/NDsu/IJr4Bc/c0INnf6jEzqfcxK0XHcpe9SuRLM5nwZyfGN3rcs5+agIA1dr/jQduO5GGb59Bhzt/fS0+u9mpdL/sFDru25QGuZnES2cz5fsPePX+e3hyWMn0b2u8N56bsp6agEQt9jv7Wq7qdjB7N8ghWbSAWVNG8+69V3Dru/PXeB+SqEfrC2/gmtPb0ax6TN6Y93jh7n/w8KfzWNvM9UGNVpxy8QWcesi+7Fy7Eonihcye8A1De/2TG16fXLo211crrPPen+EgYEmSJEmSJEmStJlVrFiRjz76iCAIaN++PUuWLNms/XXq1InHHnuMJk2arPJ59erVVxshvLFee+01+vfvzxtvvMGCBQtWrGWcSCSoVq0axx13HIcffjgnnnhimfS3XJkFwNr2NG/enKZNmzJlyhRGjBhBKpXa0iVJkiRJkraATz/9lLp16wIla3Dtu+++pZ4lSpIkSZLKyi677ALAuHHjfpf+zj33XJ566qnN1v5uu+3GLbfcwm677UblypVX2bZ48WLGjh3LjTfeWObnawAsSZIkSdIf3MEHH8y//vUvwjDkxhtv5O23397SJUmSJEmSNpIBsCRJkiRJkiRJkiSVE+GWLkCSJEmSJEmSJEmSVDYMgCVJkiRJkiRJkiSpnDAAliRJkiRJkiRJkqRywgBYkiRJkiRJkiRJksoJA2BJkiRJkiRJkiRJKicCIF7bxuzsbHJzc8nJySEjI4NEIkEYmhlLkiRJkiRJkiRJ0u8hiiLS6TTFxcUsXryYvLw8CgoK1rr/GgPgrKws6tevT05ODqlUiuLiYqIoIo5j4nitebEkSZIkSZIkSZIkqQwFQUAQBIRhSEZGBslkksWLFzN9+nQKCwtX35/fBMDVq1enfv36FBUVUVRU9HvVLUmSJEmSJEmSJEkqhczMTDIzM5k+fTrz5s1bZdsqAXC9evXIzc1l2bJljvSVJEmSJEmSJEmSpK1UEARUqFCBvLw8ZsyYseLzFQv61qhRg2rVqpGfn2/4K0mSJEmSJEmSJElbsTiOyc/Pp1q1alSvXn3F5yGUrPlbu3btdS4WLEmSJEmSJEmSJEnauhQUFFCnTh2ysrKAXwLgevXqGf5KkiRJkiRJkiRJ0jaooKCAevXqAZDMzs4mKyuLoqKiLVyWJEmSJEmSJEmSJG1eyWSSrKwskskkYViyYm4URaRSKQoLC0mlUttcHXEck5WVRVZWFkGdOnXiihUrbq66JUmSJEmSJEmSJGmLy8zMpHLlyiQSiXXul0qlWLp06WYbQLs568jPzydo1KhRvDxRliRJkiRJkiRJkqTyJAgCKleuTHZ29gYdV1BQwJIlS4jjeJupI45jwiAINrZGSZIkSZIkSZIkSdqqVa1adYNDV4Ds7GyqVq26zdVhACxJkiRJkiRJkiSpXMrJySEjI2Ojj8/IyCAnJ2ebqSMMQwNgSZIkSZJWFlbbidadj6Pb8S2p7opJkiRJkrTNyszM3KgRt7+VnZ1NZmbmNlNHWFZzVkuSJEmSVB5kHnApD9/7D67p1oLqG3Jg9o50vfYx+n44jO++/4qP+z/AaTuaIEuSJEnSllK5cuUya6tSpUplXkcYrv2ZcW3b1ldHHMf4JCpJkiRJf0BBzs4cfvEdPPXG+3z+1Xd8/9VnvPvqE9x+YXvqJ7Z0dduibFpc/iB3nNGWnbYLWTJvMUFOEQvmRFu6MEmSJEn6Q0omkyQSZfeAm0wmSSaTZVZHGIbcfffddO3adbVtXbt25e67715jCFyaOja8SkmSJEnSNi2scTA3PNWTk3fK5tdFgapQd9cD6Fr8Of99fOgWrG4blWzOIZ0akIznM6BHV64ZtBDn25IkSZKkLScrK2uztJlKpcqkjiiKeO+997j66qtJJpP07dsXgC5dutC9e3fuu+8+omjNLxWvrw4DYEmSJEn6Iwly6XztLZy0UzbxkjG8cve/eOajH5hTXIm6u+zHbnzB1AgIa9LyzCu45JQO7F4ni/zp3zL4mfu5r8/3LIyBRFNOuq0HJ+3VhAa1t6NyooCfR73P6+/NYdfDj+SAprkwfyKfvXQ3tz7xBXlRyTEn/+MaTtxzRxrUzqVSWMCcicMY9MyDPPLmOJbEABVpfdnDXHfMztSrXplkYR5Tvn2Hp3veS78flkGiKaf841pO2LMRdatXIyc7ZvFP3/Pe/3rS87WZHPLgO/zjoCzmvHQ+h936OUUk2OWvr/DyxTtT/MnNHHbBK8z9TTIb5OzOKT16cPYhe1AnaxFTfw5JwqoBbqIWrc++iktP7sButRIsnvYt7zzVk3v7jmNpDIQ5VK0SQrgdXf79KV2A9M/Pcd7hdzAsXs+x6zqnV0f/cl0S1D3oYq679Dj2b1Kd5LL5zJw0kLsv/RdD8uL11ydJkiRJfzAbM1p3fTZmRPG66hgwYAAAV199NQDFxcVcffXV3HfffSsC4Y2pwwBYkiRJkv5AghqdOLFjLmFcwLAHruDWV36i5H3iBSz6bDrjAILKtOzxJI+fsROZpMhfUkiVRgdwyo17sVu1MznrsTEUJeqxb8cDaF45pnBxHgvT1ai/zzFcug/E6XwWLE5TpdZudL6kJ8WTjuSawQuJE/XY5+DWNK8cU7BoHnlxDrV368jZt7ekebVu/Ln3RFIUkc6pS+3MAvJmLqVijTrs3LYbt9VZysQT7mdUWI+9PAmBwwAAIABJREFUD96/pN8leSxYWpnqjfbnpL/fTzTjWB4b+h1F7VtTvcX+7Jz4nFFxTfZr2YgwLmbk0E/J+20YGtbm6Dse5W8dtyNI5zN/XpIG21cjAfz6LnUlWl71BI+c1YSMovlMn1VAbqMDOP22x8ktOoGrB8z9NSyOi1k48yfyCiCeM49lcSmOTazrnI7m1k/zCWoew413X8BBFVMsmDaBqQWVqVcrk8LF8YbVJ0mSJEl/EOtaX3djbUwAvL46BgwYQBAEdO/eHYB77rmH/v37b1IdrgEsSZIkSX8giR2a0CgjgPQkPvt8BmuaTCqsfRQXnrwjmdFMBlxzOAe0bscxt3/Mwrgiu591LgflrLRzNJ0XL+pE+0O7039eBHEhn9xyGO3aHck/PltGHFZj/7bNV337OJrOSxcfwsFtD+bMJ0dRGOSw35/P5oBsgBRf/fMI2nToyilnnsWpZ/Tk82WQ3KEF+9UOV+33wk50aH80d3yxjDhRmw4dm7Pgow8YURyT2OFADtwhJKjcgtbNMyA1lg8/nrna+Ybbd+XUdtUI01N48cJDaH9wWzrc+CGFq1yPI7ng1J3IKPqWe0/uxGGHd+SoWz9mSVCdjid1ptbKT9bRTN64+liOPPJIjjrnMUbX2JBj13ROe5ABhLW2p2F2QFzwJfefczInH3cY7Y+4gy+KN7A+SZIkSVK552OgJEmSJP2RxPGK0aDBWnZJ7roHzbMCogUf8/rgn0lRyJS3+vN1cUxYuTl7Nl79TeN48Ui+m5SGIKRipQoE0RxGjfqZiJDK1UpG1K5+0CK+e+ENvk9BWLUZzRuGENam3RWPM/CLYXz8wbu888q1HFAhgKAiFSusoY30TL4fMZOIkGo1cwl+fo+B3xYSJ5rS4aCGVNrvQPbNDkiPfZcPflw97k42bsqOyYBo3he8O6xk3d7iouLfXI+9aJ4VEGTtzZV9v2bUqBG8d0s7KgcBiboNqbuOJ+uNOvY355QA0hM/4sOpRVChDTf0H8Sz/7yIzo0rEG9ifZIkSZJUXq1t/dxNkU6ny7yOldf87dmzJ927d+eYY47ZpDqcAlqSJEmS/kCi6T8yI4qpn9yRVi3r8PiENYwC3pj5guNiiotjIFgxvdWKIDUI1vr2cVxcRHEMhCGJMKByx6u4/ZwDqLr4W178z4t8vXRXTr3+LPbLYq2JdXFR0S/9hITRLN7rP5yrWh5Is0OO4MgJ+1M1KGbU4PdL1jZevYKS001mkLG2RDwMCYG4YBwDnx3Cjys9Z8cLvmZmxNpfr97IY1c5J4CCr/j3WWcx8ezzOOO4g9j76EvYu/PBPHzWn/hvafqQJEmSpD+YVCpFZmbmGrcNGTJkncd26NBhjZ9vTAC8rjq6dOmyxjV/l68JvLZ1gA2AJUmSJEkrRLOH8u633WnRMpuWl/+b65fdxTMf/cC8oky22745+9aayaAx3zOq8GhaV2vLcZ3r8uWAeTQ4siv7ZQTES8YwavKGP/CuKkEyIwSS1Du4I82TEC+dzMQZMdUPbEhOCKnR/Xjs+TeZk5zH/ledWRIAl+4MmfPOqwy5og1H7HkOV+xckaDoa/oPmrrG6a5TP4zhh+Kj2LfaQZx0ZEO+eG3a6vtMHMuE1JHsnbEdWT8P5Kk+41kSQWZufbYrnMGsdQSsm3LsKpJVyY3G8Pq/L+f1R5py4VMvc+meu9Cx3fY8PqCM+pAkSZKkcqSwsJCKFSuucdvaAt7StFlWdYRhSKdOnVZb83f5msAdO3bkzTffXOMI4vXVYQAsSZIkSX8k0U+88s/76fjk1bTabg9Ou/0ZTlt589zXWdDlXzzxyp/Yr1tjutw1kINuLCQzpxIZFDD6uacZshhY88vLpZOoy+mPD6Xz/BRValYjO0gxtd+LfLQ4Ij16DHPTe1F7/+489+JhTF2Uw05V1jY0d83iRUPp038Gh/2pATmVYvI/epNB09ecgkbT+/FEv248cEIDOt36JkMvn0dBVnUygeUxdzStH0+8eRr3HdeAjje8ykdXLGBJXJGqlZfR7+KO3PBR0Vpr2ZRjV5Zsfj7P9DqVSjOnMXNxJvV2TkC8hOnT5pEuoz4kSZIkqTxJpVKkUimSybKJQ5e3V1Z1RFFEjx491hjw9u/fn7fffnuN20pThysBSZIkSdIfTMG4Xlx06kX8++WPGTNjAQWpNKmCRcz6YRjvvPUVc8MlfH7XeVx8/wC+m7GMjIoJlk4bzut3nc8FD4+kYFMLiAuY+VMeyaqVYeEUPn32Ov56z5csBQq+uI8r//UG3/xUTPXdWtF6/52ouPBHRn05jAmLSn2GfPVCH0YVxxDN5/1XBjFnbdNaxwsYetvZ/PWBt/h62hIyqtVku4xlzJ48ks8/H88CgDiPIbeczUX39mX4lAWkK1SlamYhs8aP4ueirLWupcymHruSZLiQqZMWkllrJ3bbpQ7BrO8YcP+V3P72fOIy6kOSJEmSypulS5duFW2t7dh1rQ+8tm2lqSPYcccdN2Z1J0mSJEmSNkxmB/459EGOrvgTvc48kru+3fA3p9cnDEOiCHI73MqL9x9LnR//x5nH9+RbB8FKkiRJ0h9STk4O2dnZm9RGQUEBixcv3mbqcApoSZIkSVI5UYnO/+rP3/YLya6RS6Ugj0EP9+J7w19JkiRJ+sNavHgxiUSCjIyMjTq+uLh4k8Pf37sOp4CWJEmSJJUPYU22q5Qic7uqJBaM5517LuOmt+ew9gm1JEmSJEl/BAsXLqSgYMMXNCooKGDBggXbXB1OAS1JkiRJkiRJkiSp3MvMzKRSpUokk+ueJDmVSrF06VKKijbPlFKbuw6ngJYkSZIkSZIkSZJU7hUVFVFUVEQymSQrK4tkMkkYlkyYHEURqVSKwsJCUqnUNl2HAbAkSZIkSZIkSZKkP4xUKrXZQ94tWYdrAEuSJEmSJEmSJElSOWEALEmSJEmSJEmSJEnlhAGwJEmSJEmSJEmSJJUTBsCSJEmSJEmSJEmSVE4YAEuSJEmSJEmSJElSOWEALEmSJEmSJEmSJEnlRDI/P39L1yBJkiRJkiRJkiRJKgMBNxNv6SLKu3YN2/HRtI+2dBnSJvvPouOpNXDsli6j3Ot28ugtXUK557/LKi+8l1VeeC+rvPBeVnnhvazywntZ5YX38u/juT7NtnQJ5d7QMxryWOGgLV1GuXczN2/pErQVcApoSZIkSZIkSZIkSSonDIAlSZIkSZIkSZIkqZwwAJYkSZIkSZIkSZKkcsIAWJIkSZIkSZIkSZLKCQNgSZIkSZIkSZIkSSonDIAlSZIkSZIkSZIkqZwwAJYkSZIkSZIkSZKkcsIAWJIkSZIkSZIkSZLKCQNgSZIkSZIkSZIkSSonDIAlSZIkSZIkSZIkqZwwAJYkSZIkSZIkSZKkcsIAWJIkSZIkSZIkSZLKCQNgSZIkSZIkSZIkSSonDIAlSZIkSZIkSZIkqZwwAJYkSZIkSZIkSZKkcsIAWJIkSZIkSZIkSZLKCQNgSZIkSZIkSZIkSSonDIAlSZIkSZIkSZIkqZwwAJYkSZIkSZIkSZKkcsIAWJIkSZIkSZIkSZLKCQNgSZIkSZIkSZIkSSonDIAlSZIkSZIkSZIkqZwwAJYkSZIkSZIkSZKkciK5pQuQJEmSJEmSJEmStG0Jgt+vrzCOCElBEJLaxuPNON78fWzbV0iSJEmSJEmSJElS+RTHfPjsY3z/Yx5ZcRHn/fUCEtXqrrrP7xhEbysMgCVJkiRJkiRJkiRtYTFEKeJ0RJBMEgQhg57uycgfl9KsbnUO/8slQABxTBxHxOkU6VSaKE4TR0XES+eybN40Fs+dTTodkS5OUyGRICuZpGJWJhVzqpJRsx5xhVoUJ7MJs7IgTLBKglxOwmQDYEmSJEmSJEmSJElbTFZUwLfv9uPNYWNJRRGVo5C9m1Zj+M8FJLKy6XTmucyY8ANzJo/l88+/ZXEcsSyANAFBMkl2MklGMgPikDCRQRwFQEBxupg4lSZKFZJKFxESkY4DMhNQNYadciqya8dO1N5pR7IqVQHCX4vahsNgA2BJkiRJkiRJkiRJW0jMj+89yZRpKarXrMjPefksLEgyZPwyIgICiriz531EVCCMoXZWNkd27cLerVqyy07N2KFOfapWr0iFyllkZWaTTqWZNHEyk6ZMZtLMn5g7by5zZ81i/vw8lixayM95i8nLW8ScWbOYuzCfb15/k4wgZsfqVWm5777ssH8bUokMWHmt3m0sDDYAliRJkiRJkiRJkrSFBNTufDFHxAEEEBQv48F772FuUTZhqpCKQUTDxg35y/nncsyxXanbeBeiRJJ0FDHr55l89clw3nrsLb788gtmzZ7FosVLiVIpCAIy0iUpbkxESEhEDEFEREwYBqSDgGVBgmVxyLi5+YwbPISaH35It+O6kLVri19LjNmmQmADYEmSJEmSJEmSJElbThwQxMX0fegeRs0ppjgZUylewq5tO9J/QD9qZmewLCpkfliBxYsXc+UlF/Haqy9TVFREKorISiZIpYqBmABILG83hFQEBBAFMVEUE8QhMQFJQmLSBFExQQBxZsiydBZTUxk83edtDmv5M42POJIVye/yEcHbQBBsACxJkiRJkiRJkiRpiwiIWTjxc3q/+A7zySbIqsxJR3Xirrvvolb97SGGWXPm8cxzz3LfAw/y09Spq7VRmEqvse109MsfYojjX0cDAxSlo1+z3BiKiyKgAChkVgDPffk159SvR/0992WV1HcbGA1sACxJkiRJkiRJkiTp9xdHDBv4EkO+nEBxIpMGOzTm0f8+Qvu2LUnGSebMnsPdd9/No48+SnFxMUEQsOrivJvY/do+DUJSccxrb7zFX3dpTpiVXWZ9/h4MgCVJkiRJkiRJkiT9rgJi3nz6cb6asZg4yOHk44/iiScepEKFChRF0P3qq3n2mWdYuHAhcRwThuGKUbybWxRFBEHAvBiWTB5HlV33+l36LSvhli5AkiRJkiRJkiRJ0h9HSMybT/RkxMw8giDFTbdcwTO9H6RCMs03n3/JTvUa8+ADDzJ//nyiKCKOY9LpNOn0mqd63hziOCaLBG8OfIuyHHX8ezAAliRJkiRJkiRJkvS7COKIwc8+ybfT80lHAQ/9pyc3XHMtRamIq2+4kf0Pasu8BbOI42j9jW1mYZzih6UpXn/oPwTRSuFzzFadCRsAS5IkSZIkSZIkSfodxIz//G0+nzybKAi487a/c965F/Hj1Jm0aduZ+x54lDgZUBynIPj9qgqCAIKAIAipklOVRBiSmRHSuNlOJOKQUQuL+fzVl+C3U1BvpSGwAbAkSZIkSZIkSZKkzW/RT/R/ZzjFcTann3kaV1zVna+//op2HdoyZuR3BKkIimJI87uEq0EQkEgkAEiEIa1ataJKTg5BHNGsWRM+GPoWJx7TiShdyJAxE8gb+d3mL6oMGABLkiRJkiRJkiRJ2rxi+N8T/2MpCapXq8gTjzzIdyO+o13HTsyYMYNUKkX82xG2m7ukOCaRSBAEAddfdwMzZ85k9uyfyK1ehU8+HkjNahV5+oVHqVgtgziK6fdaX+LC/NXOa2tjACxJkiRJkiRJkiRps5ox9BWmLw2IMyvw3uC3+frTz2nRsjVFqQLiON7o8DcIglV+SrN/GIZkZGQAUL9+ffq+0ZdevZ5m+rSp1KyZy3ffDyEjM0VctIw4KGbEd5+SmZXJjwn4sPfTbJWp70oMgCVJkiRJkiRJkiRtNhlxMX2GjCJFBsedeCzF6TRHH30yAQEE0Ua1uXLYuzz8LU2InEwmAcjKyuL666/nnnvu4fjjj+PnGdNo02Zvxo77nBo1qpAIQ6JEkmQqpna1ilx4xfmkgWEz5pBYMHfVRreyPNgAWJIkSZIkSZIkSdJm8+3QASyuUIXKmXDZJX/hsK5Hkl8QEpKEaOMC4OXTNwPUqlWLZDJJGK4/+kylUnTo0IEvv/ySKVOmcOqpp5KRmcEVV1zAm2+9RIXsEOIUQRBSFCRJRhlkhQFXXncZ9WvUYGkA/Z57dqNq/r0YAEuSJEmSJEmSJEnaLJJBxDufjSKVv5iOnQ/j/HMuYP7cOeSnF1McFRFGJYFlQAhBgiCRgGRImIQKFUN2brrjr40FECRDIEFmRgVCItoesA+3334LqVRqtSmgwwSEiYAghGRGSP0Gdfnww0+58cZb6dz5UPr0eZ6srIhXX32MO+/oQZWKCRJAMkhCOk02MUESyIDqlQMu/usZhMDIeYsIiwtWPdGtaBSwAbAkSZIkSZIkSZKkzWL691+yuADCIGbCpAn88MMPBMHyiDIgIkFMyUjeZAKSyYAqlbPo0eMS7vzXv5g4YQqQAEKIIYhDgiAilVrGSScdxbvvv87HHw8hCALS6fQqfQckIA7Yrlou9/7nfoYP+4Zbb72ZTp0OYu7cWRx0UCvmzZtIx4MPIAxiVk5xgyAgiKNfp6iOIs457ywqVcyiIIIRA/tv7ku30QyAJUmSJEmSJEmSJJW5gJgJo0YSEEEA48aNIwyXj9INgSSQICYgDiISSbjsknMYO/JLdmy0E1dd2YM4LhnxW/KTJIwjKlXI5IknevLU/+6jqHgpAwe9QxRFq40AzqlchX/3/DdfD/+aMaPGsXOTXXj/g3do0qQ+/Qc8T//+LxEGaWJSazuBX/8QB9SokctuzXYiDjOZ+ONPrDbsdysZBZzc0gVIkiRJkiRJkiRJKofShQyfMJ0oDomimDj6JWgNAsIEJMKQKI6oXbs6F1x4NuecdSp1atdhYP93uOyya0inAiAmEZb8bzIJzZo24bEn/s2e++xCEMZ8/PEw5syeTxiGxHFMGIbk5uZy5RVX0PHgjvTu1Yvdd9+NwsICdmjUkP+77kZOPe14srMSJWv9kiYzEa4lvF0+KjggCEIiirn55ms48uiLmDh3PkH+EuKKOb/X1Sw1A2BJkiRJkiRJkiRJZW7JgrksKM4iJMUvEykTBBATkcwIada8EY889AB7NG9CRmZMOh3w9dffclq3v1BYmGb5ZMYxRWRmh9xy07VcfvG5JLNi0lExcZTNicf/BQiJ44iKFSty1113sdNOO9H9qqu4/bbbKCoqpE7dXJ7472Mc1KENiWRJ8FxUtIzMZJKAgCAO1nIGK6omjkvC4AMObEGYLmZpRsC0kSNo0KrNZr2GG8MAWJIkSZIkSZIkSVKZSy3Lp1rFJOmiFItiCAg5/vguXHzRubRqtQ8Z2QnCuJAwThMFMXPnLuTQQ4+luDgkoGTUb0ZGglNOO467et5Ejdwc4uICwhCCMJsrr7iZwsIkubk1uODC8xg+fBg9ru5OUVERWVkZHNWlMzfdeh0779yAICyCsJBUKiAOgpLw95eaSqxj/uY4KJm6Oo6oXKkidWttx/T588hbvJQGq+3LSlNHbxkGwJIkSZIkSZIkSZLKXNUGTbn82qupsGwm1/Z8jDhK8887urNjozqEUUQcRURhTHE6ZO7cxeyzV0cK81NkZWWze7OmHHVUZy697EKqbpdNTIpEWEwhAanCDD779Dsef7w3YTKDJYvmc9edd9CgQR26dOnAqaccQ9ejDiMzERGn04RBUUkwm84iMwCilcPedS3cWxIOB0AQx4QEEEXs2LQB0z+Zz4Qpk9lza0h8f8MAWJIkSZIkSZIkSdJmk5eXRxBCGIY0bNgQosIV2+I4JhFmMGrktzz40J3ssH0jdth+R3KrVyoJfRMhcZwmkUiQLk6TDBKMnfgDfzrjHGrWqkLbdu04/LA2tGnTgtp1apKdnUVJqFtInA4JEwniKCIIyi6kbbpLYz78+Dvy5s3bKkb8/pYBsCRJkiRJkiRJkqTNZumiBcTpmOyKFQjDkCAIVyyvGxAQRxEHH9SOZEaCOE4TxzFxUEAYhkRRRBgGRFFMIpFBlIqoX6cmI0d+SOWcyoRhCBQQAlEUEwYxBAmIIQwpCX/DEOJ1jfTdMLs32w3CvhSl02XWZlkyAJYkSZIkSZIkSZK02RQXF0EAyYyQ8DcjcQMoWV+XEOIUARFBmCYiSRzHJSN344AgCEpGCwcB21WtShzGRMQQFBPEGQRxQCIIIA5/mdU5AIp/Ob7swl+AnJyKEASkooitcQiwAbAkSZIkSZIkSZKkzSYgIAgD0umYKI4JiFeKTEv+DjHEASVhahLI+OXP8W9+guWHUZLtJgji5Z9GQHpFu8vX8C1rxUWFECxfPXjrCn/BAFiSJEmSJEmSJEnSZlSxUlVIJ0kXpUinIJGRIA6KCeIkcZwgCpaP0P1lJDAQxhFBHBAHy2eLDoiISQUB6RSM+H4MI0dNYPGipVSpnE3TnRuxX4u9yMrOIIqLgIiAAKKAgJKwGCLiME0cL+8nwYoAN0gTpUtC40SQBBKkohSQIpkMIEoTkCSOQiZO+YkgnSSZ6RTQkiRJkiRJkiRJkv5gqtaqRRAWU1QYsCy/iDAHkomS0bpBHC5fDvgXJYFsSAQBBITEcUgUBxQWpbjvwYe4//6nyMtbSJSKCICMZIIgjsjJqUy3M47nppuuo1JOFgGFJesNA0Fc0m4cB8TBLyON41/7jKIk8xcs4PHHnmbQoKGkiiP2339vrrzqEuo3qE4iTBClI8JEBl9++R0BAdUrVVieLG9VNs+4Z0mSJEmSJEmSJEkCsirnEEQAMd+PGEMikfXLxM8Rv2xYi4D4/9m78/C6qnr/45+19z4nSZO0aTM0HWiBzlBooWUobUGFC6KIyBX8qUwiAoKgTF5EShPKoCCgKCgXQQS5osWLXGVSEGgLtJSplKkUOg+0TYdMJznDXuv3R5pjmqFN0jRJD+8XD093z9l7Dfs5T//5PN/vkq8wDLR61Qbtt+8EXT/zF9qyaZtsyiovN1fjDhinnKx8pUJfW7bW6Fe/fFCjRk7WG68vkXWSM6HkhWroE+1JLiq5yPZ2041tpaXHHvuXRu5/pMrL7tT8V97S668t1q9//ZDGjZuiH//oZlmXJWeMkqmYFr/9oZxJaOwBB7W25B5HAAwAAAAAAAAAAACgy/k2roq3n9fdt9wh2SLJC3TSl07TpZfM0KK3lioVRhQ6X8aYhrDW/ftZ53sKja/Q+XrzzXc0ccI0VW6rV0FBkW677eeqr0uoqqpa7yxerC1bt6quLq7f/e4hDRk6TFsrY5o+7Qt65um5CkNfoXWynt0e9foNE2w/ONg6T/945kWddeYFSiSc9tlnP11xxX9pZtksTTz0cDnn6xd33q+Z1/1EoQ0UT4aqqYzJ80INzMnpgbe6awTAAAAAAAAAAAAAALpUxIR66M5b9cD/zlNFvS+rWlkXqjaW1G9+85COmnKyTjn5bG34pFKpVCgbhmrSk1k2TCkMQ23ctFVf+crXFasPdeD4CXrnnbf1ve9dpEgkUPrMYOPkR4y+/s3/p7cXL9IJJxyv0Dp97fSLtGbNVjlFGiqOjZMUquFU4VDOOm3dEtNp//kdWWf0lf88VYvfXaybfnKTfvTjqzVv3hzNLCuXdZ5uu+0ePf30C4rFknLWkzHSkOH79Mi73RUCYAAAAAAAAAAAAABdat6j92rZNqdak60TTv0P3fXbq/Tre+7QlVf+QCNG7idrpeeenadJkz6rN95YJOM1VOZuP51XyTCUMYG++c1zVVFRqVGjxmnBgvkqLOwr50I519g62sgZK+uS8rxQfXKz9Mgj/6MjjjhM8YSn448/VWHK/LvlswllTEpGoZyk88/7nhKJlCZMOFi//e1/Kxr1G+7xrIyRLrv8cp191jlKhlY/vuYGLVq0RFKgLM/IDBzcI+92VwiAAQAAAAAAAAAAAHQdJ724+BMlA08/+sFp+uP/3KsLzjlL551zkm6YdaHefeefWrXqDZ1++pdVVVmjE084UzU1KXnGb6jptZ4iQVRLl36iuXPekIynvz7+qCKRiKz15Jwna52cc0qlUnJWMgrknC9nffXpk6+//vVvysmLau3aT/T0U3PkwqjkPHnWybOSkafqmpie/McLMlm5uu2225WVlaMgyJK2j2OMr8D3devPblWfPrn64MMVuvknv1HctxrmRRX6QU+/6VYRAAMAAAAAAAAAAADoMsZIQSDJSif8x3HyPadkolaSkWcCOZdScUmBHnjoN/roo7c0asz++up/nv7vDtDGylmnH1x6uXwvorPPPlv777+/JCNjjJYuXapDDjlEOTk5GjVqlFavXi1J8n1fkUhEnuerqKhI3/7WdyT5ur78pzIyMnKSfMlF5VyW7v71/bLOaGBxkaZOnaYwDBWPx7fvwcj3fXmep+zsbJ1yyilyzmnOnDmSpIJ+Ba1sfA+/2HYiAAYAAAAAAAAAAADQhZwSSamhPbORtQlFsiKS81RZuU3vf/CONm5aLadalZTmad5LT+tLJ39RsVhs+/NWnhfV3LnzFQRRnXHGGfL9hnN3V65cqaOOOkpLlixRIpHQ9ddfr6FDhzbM6pysbWgNbYyna350jZLJUB8sWaa16yvkTFQpF1U8FSgVZumF5xfKWauTTz5JdXUxXXrppTrmmGNUUVGhVKrhDGJrrXzf15lnnvnv7VmnooL8XhP4Ntc765IBAAAAAAAAAAAA7KVMOhvdsnmzjDwZSbH6Gr32+isKw7jWrF2uQw6ZpJLiITLG1/e/f6FcKiUplEyoDRs2KZWU8vOzNWnSZBnPKJVK6bbbblN1dbWccxozZoy++c1vypiGymBJ6T8laWBJoTzPVypM6eFHHtfChS/r+X/NU3V1vUaM3FcbN26Wc0bnn/8dXXnllbr//vv1m9/8RoWFhfJ9X865dCXwIYccIudcw96cU7+iQvXWBJgKYAAAAAAAAAAAAABdxjknZyQjqxWrV8taTzblqWLLelkXlzNJeZ7T+++9J+dSMl5KxlgZz6ihD7TVW28ulpPUf0ChcnNzZdTQ4vmPf/yjnHPyfV9TpkzZIfBtLrShxowZKWudZlx7g554co6/qjVWAAAgAElEQVS2VdZLnq+lS1epqrJWRkalpQP10EMPyVqrL37xi/I8r2EPzqXH6t+/v/Lz82WtlZFUOnTwHn6LnUcADAAAAAAAAAAAAKDrGKPCqCdnpLcWL5FvkoonjeJ1tbKppHwjKbRKxOPaUrFZxjqFybg8OTXEl4EqKrbI8zzl5PRpOFRYRsZIlZWVkiRrrRYtWpQOaq21OwS2kpNMSqWlgyQnBUGgz332CL3xxlxt2rhSV1xxccOpwE7atGld+uzfRCIh55zCMGy2JaP8/HwZI/kmVP4+w7vjTXYKATAAAAAAAAAAAACALjVt0hgZz9ezL74im6hXNDui/Ly+CjxfnjMycvJltHrlShkZBYEvuVDGSXKB+vcvkLNO8US9lK7GbWjH7HkNEec777yjl156SfX19XriiSeUSCR2XIQz2rZtmzxjNKv8v/T4X3+vCQcNVX5eQtdcc4kKC/spCALF6qrTAfK5556ryspKzZ49W7W1tTsM1zh+4JyUnd8Nb7FzCIABAAAAAAAAAAAAdKlJnztOQTKpdWu2asnSNXKKq3+/AbJWslaSGtosV1VVKZlIyFm7vdK3wYQJ4yXjtGXz5nR1bhhaFRQUpMPaVCqlE088UVOmTNHVV1/drAJY8rxA7777rmSs9hsxTJKTdUnJxBWJhopmRZRKJVVbWy9jjJxzeu655zR+/HiVl5crOzs7PVZdXV26+jjLSM703pi1964MAAAAAAAAAAAAwF6pPjJAuc7K8wI98If/laxRVna+CgcMlJEvzzOyLlQiEVdNdXXDQ00C3NLSIhnjFIvV6p13FysMQznr9NWvflVBEEiSPM9TbW2t3n33XX35y19WNBpt0graqKYmpkQiIc/3deCBo+T5tmFwI0WinoYMKZbneXr11dfVp08f+b4v3/e1YcMGHXjggfI8T9ZahWGojz/+ON0WOtszUttHD/c4AmAAAAAAAAAAAAAAXcrK6KhD95HvpXTXPfcrTETkrKfRYw+UMZ6cayj4NUbaunVrQwXwDs+HGnfACFmX1KOzH5VkFIn4mjlzZroFdBiGMsYoOztbV1xxhay1MturiMMw1M9uvUOS09B9BmrEyH3lbKgwZfTXx56Ss9JBB4+Xc04PPPCgvva1r8n3/fSYt99+u4wxMsbI8zw9/vjj6bGzPF8tEuBeFAgTAAMAAAAAAAAAAADocpNOOF1BYBVPOl34nSvlKVDf/AKNHnOAPM+XjORMQxtoGaOG+l8jySkIjO666xdKhUn96ld3acOGDQqtU2FhoebPn6/DDjtMffv21eTJk/XKK68oPz8/HQwbYxSL1enee38ryemyy74rKZQ8J085+tktv1UYerrkku9Jclq5coWuuOIKnX/++Tr88CP06KOPavDgwbLWyVqrRCKh++67T2EYKggCBV7vjliDnl4AAAAAAAAAAAAAgMwTZOfphMMm6ql5H+qB2Y/py1/9sr70+eM1fMgBCuTrvWWLlAzrVRnbqlBOngkkOcmEiieSOmTSeI0etb8+WrZKZ5x1pp795zPyfE/jxx+o+fPnqyFBlpwaqoeda2j/nEjE9e1vf0sVFRtVUlKgs88+Vb4fl5xRwnpatXq9nJVGjx6q4cNLtXbNJt1++526665fKvB9yTgZGVnnFIahHnvsMa1evTpdsZzq0be6a707ngYAAAAAAAAAAACwlzI69HNf0NACJy80OuPbF+jFhS8ooWoNHj5Uxxx9osaNPlTRSLbCcMcW0NnRHGVne3rsrw/K963mzZ2n4z73RSUTTs4ayW3vuWycnHPbjw/2ZEygyy//Lz3++BOSiesvf3lQkYgvOV/GRbTkg6Wqra3VjTfeqg+XLtMf//h7hWGoB35/r2Y/+kclU/UyxsmZUDa0+vij5Tr77LPkZBUEDe2gXYt99i4EwAAAAAAAAAAAAAD2COsFOu/7F6s46qmuxuqkk8/RU8+/pJSJKPD6aNiQ0TryiKNl5EtyDf87T875klIaMbJIt9x6tTw5vfrq6xo3brzeeeddWbf9XklGRi50WrFsuQ6ZcKh+e+9v5cKUrrrqO5o8ebwCz5dxvowLdP/992vixMn6+9+e1eRJx+qhPzyiz594jGStzj3nXM24doZqqmsVjyX0+989pClTjpTvGR14wEhNmzZNiXhCgdeLDvxtBQEwAAAAAAAAAAAAgD0mbvrosit+oIGRPKla+s8vX6izz7lCFRUxOespDD0FQUTOhdufMPJcKONS8jyrC84/RzNnXqYgqNeaNcs0+fBD1bdvrs4445u69daf6sILztc+QwdrzOiRev/9RcrOcrrk0rN19dXfl7VxGeMkeXJhqJ/ddoP++exf9fbbb+vXd/9C9/73/frVXb/Q9KlHyTdGd9x+hwr6DVBeXoG+973vKhbbqoGlBZo9+wHF4zHJORXk9u6ItXevDgAAAAAAAAAAAMBeLx7N1/mXflv7D8hWJCU9+ud/aPSYw/Td7/6XFi9+X6nQyXiSjJNkZExKxnkyNks2tPr+D87R7x68Uccef6Q836o+XqdH/vSIrrnmWj3wu99p8+ZN8gPp8CPH6Vd3X6drr7tIOTm+IoEnz3hKJeoUuoSMXyNnqpUK63TssccptFJFxSe6//e36cofnqvhwwfI90N5XlJ9Czyde94peuKpB7T/iFJt3bxRES+ifUsLe/p17lTQ0wsAAAAAAAAAAAAAkPm8nDydfvGl+vCNl/X3J19QXczX7//wF/3hf/6sD5a8pGHDi+Vcw1nAVnb72b5GVdXb1H9AH33pS8dq5Ihxev/sD/TuO+/ro49WqHJbtfrl5mrkqP01Zsx+Gn/QaI0dN0KRSCAjT0ZGNpWS7/uqqt6mO+/6tTZuqtOG9ZWaN/dV5fbJ1tgxI5WTE9cll5yhY487XBUVWxSGVkUF/TV6zGgNHFIq51LasH6DrJPGHHJ4D7/JnSMABgAAAAAAAAAAANA9vECjJx+tKydN1T8efUBvrahSbaxSoQuUSoXyfScbJvTW24s1ceJEbd6yUa+//roOOuhgDdtnHx00brQOHLOvjjr8QK1avUxhmJJvIho7Zqz69euvSDRbzjoZE8g1HBEs4/nyPE/9B5To2mtu1IL5b+naH8/Q2Wedqh/PuFLRaFI26VTYv1jTpw9RIlEj41lFvGyFCckqS5s2bFRldb2sosodOkLhznfZowiAAQAAAAAAAAAAAHQra3ydcOqZemvWTXKSaqpr5Xn9ZYxVZeU2bdq0SevWrVNpaanGjh2r0tJShdaTlZHn9dGQIaM1ZOhIGSOFKSfPMzLGKgxDGc8oDJMyvt8wmZFSNinP8xXaKk05arSefe7Pck6yLiXPSNbLV3VtjbJzQiUTKc17aZ7GjhutupqYsiL5WvrRelknGS+UjWb36LvbFQJgAAAAAAAAAAAAAN3OGU/ZgVFtSlq2bIXGjx8uZ60KBxRr2rTpysvLl7VWgwYNViKRUJ8+UT3+16d0882/0OGTD9PYcWM1bNgQDR48SP37F6hfQa7y83MVifryPEnOyDVOZqQwtIoEEYXJhCq3VauyqlqrV67Xe+99oH8+P1/PP/8vLVv+hvLzclWQV6Cc3FytXbtSfrJaTz75onzjqX/QsO4dmG5+cbtAAAwAAAAAAAAAAACg2zkvUH5ejrZWJTR79l900hePlud7kpMCP9D8+S9rwoSJev311yRJRx45VYdNOVyLFi/VkiWr5azVgKICbdhQoUgkoqzsiDwvUDQaUd++2Qr8iHw/ooaE1ikMk0rGE6qqrFMqTCheH1cyaTVyxFhFcyLqV9BfkcDI95wmHzpRcVkdMflIhamIzrxgloJQmjR8SI++s/YgAAYAAAAAAAAAAADQ7ZykfYeXaPlbqzVv3kJ5ni/JSs5TZdU2bd26VVu3btHQoUMVBIHCMKnSgcU644zT9IcH/yJjjN56a5Fy8/oqkUipLlavTRUVWrN6jTZXbFHltm2qrNymVCqUc1bZ2dnK71ugopJCDRs+SMP22Uf5+QPkeZ4mTpioU796svrkZsmpXitXLNWyFes1fepR2hyr17JVq9XfeDr4uP/o6de2SwTAAAAAAAAAAAAAAHrE8FEHy1u8SmsrNmlbbVJ5WaGMJ5UWDdYXjh/U4n5rnMpnXKYn/u9vqqoNdeiko/XCi89o2NDBys6OqqSkSAceME6S5JzkeUbWWklGxhg5WVlZeWo4O7i6ukZnfONMrVu3XBd/90E5Z+S7iAaW7qt4XMqKZOuOn/1SJp5SVp9AOQNbrqm38XZ9CwAAAAAAAAAAAAB0vX1GjlLEWrmU9MLz8xSJRGWMlZFkWvlPNtQ++wzWNddeJedCrVmzWuMPOFhf+cpp+r/H/6aNGzcqDEMlkwkZIznXeAqwk+QU2lCpVKg331ykH119tcaOHqN//ONJXXTRt7TPsFI5Z+WMUW5+ng484GBVJZ1+8cvfSZ702enHSH7vr6/t/SsEAAAAAAAAAAAAkJH87HwduO9gLVq9Xj+8aoa+/IU5MsbJyTUEvq2wNqXvXfwdvf/eR/r9A39WXSylJ/7+jJ584mnJOOXn56m4uEg5OX2UnZ2dfq6+vl61tXVav+ET1dfWyveM5EKNHrW/rvnRpTJKyLqUPM9InieriC75wVUKfU+FxtOoiYe2XEzrS+xRBMAAAAAAAAAAAAAAesxRUw7Veyv/rhUr12nu3IU65jOHS2HYarjqG0/Oc0qlErrt1nIN6NtXt9/5W4U2lB/4CkOryspKVVZWyTnb4nnP8xWJRNRw1rBUXNxX8xf8S/m5KcmEskaSCRSLJfX64kX6+yN/l2+cPj9tqrwmYXJvRgtoAAAAAAAAAAAAAD1m4NhJ6psTlQula6+9Wam4J2NajzEbGjpb+X6orIjTDTdco8f/9rBKSguUTCVkvIazf00bMWjge0ol4go8oxNPPEZLPnxNEb9OZvvIxvmyoa9tlXF988zvKp6yGuPnaPTUY1oO1gurfyUCYAAAAAAAAAAAAAA9KHRGXz3tiwpktODVxbrvvodlrVFj3CsXyMmXNU4yVpKT8bYfx+sSOvbYKVq+/E396q4bNW3qZBUXF8jznLYfJCzjbf/TSAX9cnX8f0zTE0/+WbP/8qD65PiK5vgNDaedJ2c8bd5Wo6999SxtWL5eMkanfee8hoeb6qXhr0QLaAAAAAAAAAAAAAA9bOB+B2tsyXN6d1Odfnj1zTp40iQdMXk/2URK0SBPqSAhF9QqmoxI8iSnhjN8jZE1CTnP6YLvfFXnnfs11VQltGnjVq1Yu1qbN2+WnFPfvv00dOgQDR1coj7ZgbKys+QplGRknC9njOI2VH0sqRNPOFXvLlqmbHk659RT5BUM2HGxvTj8lQiAAQAAAAAAAAAAAPQwJ6P/d/53dftPf6rKhNXnv3i6Zj/6a312+iGyXpUCOSmUnKLpJyRtD2M9SQ3n/a5bu1bX/KhciXhEhcWlysqKyPOlbdtqtGr1ck2feqh++MPvKZGsVzQaSQ/hUgnNfeU9feP0C1VfsU1+1OpLX/yCiseN7+Y3sfvM9Pumu55eRKYryC7QtvptPb0MYLedsm4/jV/S8sB0dK0bPruyp5eQ8fh3GZmC3zIyBb9lZAp+y8gU/JaRKfgtI1PwW+4e1z4/vKeXkPHmTbR6of/qnl5Gxjt29bHdNlfzjshdJbV1jX75q/sV83IVulodNX2C7r/359pv0BD5fiDrhZKsnLMNrZ1l5VxEzjl5vuSsp2TS6Z3FS3T99bdq5crVikR8TTxknG792Q0qKMiVc1ZhaGWMLyOjLdsqdeFV1+mvD/5TzkaUZ2p1ztdPU9Hocc02vfv7c92QzBqViQB4D5u+z3TNXT23p5cB7LY7qk5VydMf9PQyMt43T3+vp5eQ8fh3GZmC3zIyBb9lZAp+y8gU/JaRKfgtI1PwW+4eD//5gJ5eQsabc+Y+uif+TE8vI+OVqazb5tpTAbAkJTev1AP3PazN9U7WjyrpYtpv0GD96PIf6LgvH6mSkmIFEU9SKN+XXBiV8TyFNiHPGEkR2dDJeCn5fqAwtHKycs4ptJ6CIFuJRErLl63ST35yi/7v/55RrMbKRn0NiUR17vnnye/bv9mGu2Zv3REA0wIaAAAAAAAAAAAAQK8RKRyui354lR759Z1astHKer5WrF2v711xjewVoUaM2EdTjjpMRxw5WQcffIBGjthP+X37yPc9OTnJWXmekTGSC0MZReRS0ppVa/X6onc0Z+58PfvsHH20dLmck4yTBnlGxxw9TaOnTJW8ZhFqLz/ztzkCYAAAAAAAAAAAAAC9SzKmNZ9Uy8/K1uDSYdpS8YlSsbgkoyXLVmnJh+v1h4f+opSJyI9GlZ/na0C/XPXJy1VWNEvZvqdEaJWoCbW5Kq4tNetUX5uSSUpJSRGTkueylciqV/8wW9+67GIFffJ3XMNeFvw2IgAGAAAAAAAAAAAA0Ks8/djjqjNGh0yeLC+ao3GjRmrcyP313ofv6/k5cxX1PGWFTi5IqL7eqTbmFNsYV8KrlYxkwjpZk1TgjOTnKPSSClKhIk5K+VFlBYFG7j9eK2Ir5a2tUTQ7R7anN91FCIABAAAAAAAAAAAA9Bq+Qi1ZvkqRvv1k/ag8z9OoUSMUjfoaO36sPly6TIlPNuni62bIuJRq1y/X2uXL9f7SJVq8NtT+o4bJhHVyvq8+kUB5+bl6f9EqHXHQQE0+/iu6oXyW+hUXqbCoQFs3V2trWC0lE1JWZkSnmbELAAAAAAAAAAAAABlhw7uvaEud0wEHjFMQRDV0cKmCwFfShnKBUb++/VWzYaOcPMnLUp8hYzVqyFgddMyx+nDmTTruuKkqLhws5xrGM0Za/vYd2v/goyQZRWVUUxuXZ0Ll5xRok1umVKxWXlafHt13V/F6egEAAAAAAAAAAAAA0MDppQVvKTRGBfl95CupAf3y5XmBQvnyFGj1qjUKIkGLI3rrw6jGD8rXv558Rsb797cVmz5RTU2lCgoLJEk5nq94ypNMQjlBllJKauvaNd24xz2LABgAAAAAAAAAAABAr2BrNunDdZUaNmwf+Tahon55CoxT6Jx8P6J4XUK1tTU68vPHNZT2NnPCGd/S6mUr9dbbL8vzjDxP+stjf9cBE/aXH82WMUb9+wYKQyvrQmVHfDkjbdq4qQd2u2fQAhoAAAAAAAAAAABAr7Bu5QeqC60GlpRKfpYKi0olE8iX5KzT1urN8pRU8cBBrT5vcgbovHNO1O8ffk7PPjFf8US1+uVHdcKXLpHbXjM8YnCBVny8SbFUgfKyNihlItqUTGpsN+5zTyIABgAAAAAAAAAAANDznNU///6Con2iyu6TrTAMFc3KanKD0bIPVyg/8FRQXNzmMAXDj9BlV43VqvffUnZ2jkpGHyrbJBYdcsBhckv/rmRYJzlPxniq37q1lfVILfpM7wUIgAEAAAAAAAAAAAD0vNhWbanzVTpmkEKbUm5OnkyzNs/LPvhIY4aUSGbnJ93aSD8NPfiYhutm30XzC+SSRs7F5VxEvuerYv06yblW20rvbQiAAQAAAAAAAAAAAHSIc3tg0D6Funzmj3d6y2VXXLbbaygdtr+umzkj/fdpn/18w3it3bwn9rmH7TwaBwAAAAAAAAAAAADsNQiAAQAAAAAAAAAAACBDEAADAAAAAAAAAAAAQIYgAAYAAAAAAAAAAACADEEADAAAAAAAAAAAAAAZggAYAAAAAAAAAAAAADIEATAAAAAAAAAAAAAAZAgCYAAAAAAAAAAAAADIEATAAAAAAAAAAAAAAJAhCIABAAAAAAAAAAAAIEMQAAMAAAAAAAAAAABAhiAABgAAAAAAAAAAAIAMQQAMAAAAAAAAAAAAABmCABgAAAAAAAAAAAAAMgQBMAAAAAAAAAAAAABkCAJgAAAAAAAAAAAAAMgQBMAAAAAAAAAAAAAAkCEIgAEAAAAAAAAAAAAgQwQ9vQAAAAAAAAAAAAAA6KiNGzfqwQcfVE1NTavf5+Xl6ayzzlJJSUk3r6xnEQADAAAAAAAAAAAAaDdrrTyvodGwc07GmBbXzbV1X9Ox2rpuen88HtfNN9/c6hzGGDnn0tc1NTW6++67059fc801CoJgl3PsqX10FwJgAAAAAAAAAAAAAO3WE+FvMpnUTTfdlA54m2se/rZ2ffPNN8s5px//+Mfyfb/HQuw9jQAYAAAAAAAAAAAAQId0JjRtT1DaWmg6a9YsWWt3K/xten3TTTfJ8zzNmDGjW/fRXbq33hgAAAAAAAAAAADAXq2zFbMdCU2ttTLGqKysrEvD38brMAxVXl7ebfvoTgTAAAAAAAAAAAAAANqtMxWzHW2XnEqlVFZWtkN429o6OhP+Nr0uKytTfX39HttH0+vuQgAMAAAAAAAAAAAAoEP2ZMVsXV2dbrrppj0e/jZe/+QnP1EsFuvyfbQnKN8TCIABAAAAAAAAAAAAtFtHwt/OVP7ecsst3Rb+Nl7fcsstSiQSXbaPnjr/VyIABgAAAAAAAAAAANABe6pdsjGmWyt/m89x0003ddk+ml93JwJgAAAAAAAAAAAAALulK9old8eZv82vmysvL98r2z43RQAMAAAAAAAAAAAAoNN2t2LW8zzdcccdPR7+Nn53xx13dHofzd9HTyAABgAAAAAAAAAAANApXVH5a61VVVVVrwh/Jamqqir9+d5U+duIABgAAAAAAAAAAABAh7V13m1HK2ZnzZrVa8Lfxuvrr7++Syt/25p7TyAABgAAAAAAAAAAANAhu9v2ufH+BQsW9Lrwt/H61Vdfbfc+dhX+dmdVMAEwAAAAAAAAAAAAgHbrirbPjc8+9dRTrc7R0+Gvc05PP/30brd97omW0ATAAAAAAAAAAAAAANptdyp/m14vWLCgzfF7OvxtvG5cY2fbPjd9P92FABgAAAAAAAAAAABAh+xu5a8xRk8//XSLcXtT+Ouc0zPPPLPblb9N31V3IAAGAAAAAAAAAAAA0G7NK1s7WvlrjFEqlWoxbm8LfxuvwzBscx+7ej+0gAYAAAAAAAAAAADQq3U0/G0tDL3hhhtajNkbw1/nnG688cZ2h7rNw3FaQAMAAAAAAAAAAADo9Trb9rk1vTn8bbzenbbPTd9JdyAABgAAAAAAAAAAANBunW373Oipp55KX+8N4a9zTk8++WSnK3+7M/yVCIABAAAAAAAAAAAAdMDuVv4uWLBA0t4T/krSwoULd6vylxbQAAAAAAAAAAAAAHqtzlT+NrU3hb87m6Ots4Hbej/dgQAYAAAAAAAAAAAAQLvtLPzd1Vm577///l4b/r777rs7zNGets+0gAYAAAAAAAAAAADQq3Wm7XOjP//5z3tl+CtJs2fPTl+3t+0zLaABAAAAAAAAAAAA9HqdafvsnNtrw9/m++hI5S8toAEAAAAAAAAAAAD0Wp2p/G36XaaEv+2t/KUFNAAAAAAAAAAAAIBeqzOVv8YYLVy4sEMB7Le//W3NnDmz3eHvsGHDNHz48HbPMXPmTF155ZUdCpjnz5/fYr/tCX/bGnNPIAAGAAAAAAAAAAAA0CHNK2HbU/n77LPPtjv8LSsr09ChQ1utGm7OGKPi4mJ961vf0tlnn62ioqJ2zSFJubm5mjlzZrvmcM7pueee63Db5529nz2BABgAAAAAAAAAAABAu3Um/HXOKR6PS2pfMDtr1qx2h7/Dhw/XRRddlK5Ivvjii7Xvvvvuco7GIPfGG29sd2vpMAw71Pa5aVjcXQiAAQAAAAAAAAAAALRbR8PfpiFoe9szh2GoiooKOefSFbqtrWPw4ME655xzWlTlnnPOORo8eHCbc8ycOVOe52nr1q1KpVIdPle4vZW/PdECOui2mQAAAAAAAAAAAABkhI5U/jaGoDsLfC+//HLddtttO3w+b948nXLKKZKksrIyVVRUtJijqKhohzmaBrDnnXde+pmmayoqKkpfz5s3r0U4e+aZZ+qhhx7arfCXFtAAAAAAAAAAAAAA9godCX+bVuW2Ff7OnDlT+fn5LT5/6623dhi7qKhIRUVFKiwsVHFxcTr83dl5vCUlJSoqKtLAgQNVUlKi4uLiHYLZ119/vcUeRowYoZkzZ7a53o5W/tICGgAAAAAAAAAAAECv1dG2z03D0eZh6kknnZR+trXAtTNztKcStz0h9vnnn9/hKuD2zrEn0QIaAAAAAAAAAAAAwG5pq+1zYziaSCRaDVMnTZqUvicnJ0f19fXtCn/Ly8tbjFVUVKRoNKp169bt8LkkzZgxQ77vtxinuZycnPR3gwYNajX8ra2tVW5u7g77a37dU+GvRAUwAAAAAAAAAAAAgN3QnqrcMAxbhKn77rvvDmHxVVdd1SL8LSsr22GO+vr6VsNfSdq8eXOr4a8xRrNmzdInn3yyw1obx25kjNFVV121wz6OOOKIFmNZa1vsr6fbPjdFAAwAAAAAAAAAAACgU3ZV+dt4nZ2dLWnHYPass85q9dnm7rrrrvR9P/3pT9s8m3dX1/fcc096nLvvvnuHORrv8zxvh7WccMIJLcbKyspqsb+ebvvcFC2gAQAAAAAAAAAAAHRYW+fdttUWuXkw21rF7KWXXqo777wzPYcxRps2bVJlZaX69u27w/ODBg3S+eefv9M2zI888oiWLFmyw9xVVVXauHHjDnM453TppZe2uY+mzwdB0OHK3+4MhqkABgAAAAAAAAAAANAh7Wn73Py6tarc5sHogAEDVFpa2uK+n//85+n7Gj/fVfhrjNHXv/71HcaRpNtvvz193fhdcXGxCgoKdhn+thVc95bwV6ICGAAAAAAAAAAAAEAHtLft866qgO+55x5dcMEFLca/8MILWz3nt6ysLH198skny1qr66+/vsW4Ta9nzpypSy65JF1V3PTc36b3XXTRRa2Gvw888ECr47YWNu/qXXUXKoABAAAAAAAAAAAAtFtHK3/bqmz+vSMAACAASURBVKRdv359q+M75zRz5sxWn2m8njhxojzPU1lZmXzfbzP8NcZowIABre6h8b7rrruuzX2sWLGixf2daftsrW39Ze4BVAADAAAAAAAAAAAA6JCOVv5aa/WNb3xDDz/88A5h6j/+8Q8df/zxO4zbGJped911bVb4Nh13xowZLebbWTDbdKwZM2a0ud6XX365xf0nnXRSh9s+N31X3YEKYAAAAAAAAAAAAADt1ryydVfhb2MAOmrUqBbn8TaGrM3HbXxm7NixrVYBl5WVtTpHa+O01fZ59OjR8n2/zbU/++yzLeaePHlyizl29n56ogU0FcAAAAAAAAAAAAAA2q2j4W/TMHT48OHptsqNysrK0u2amz9/+umnt1kF3PTzSCQi3/dljFEqlVIikWh13U2f/8Y3vtHm2pueN9x4f2Mr6Y60fW7tnexpVAADAAAAAAAAAAAA6JD2tn1uGv5ef/31LcJfqSFcLS8vT9/XnjC2+XUikVB9fb1isVi7wt/GM4bbG/4657R582aVl5crmUy2+k7aavvcneGvRAAMAAAAAAAAAAAAoAM60vZZksrLy1VeXr5D6+dGTYPW8vLyNqtnGwPbXQXBremK8Lfp9U033aSysjLV1tam52he+dvaProLLaABAAAAAAAAAAAAtFt7Kn9bC1Oba+ts39NOO00HHnhgi3Gvu+46vfLKK/rnP//ZqfD32GOP1fTp01td75IlS/SnP/2pQwHzrbfeKkk7tK9uq/K3O4NgAmAAAAAAAAAAAAAAHbKrM387E/42Xs+ePVuzZ8/Wdddd12KOqVOn6qijjpJzTn/4wx+0fPnync6x77776swzz5Qxps3q4rbOGG5vwFxeXq7vf//7Kigo6PHzfyUCYAAAAAAAAAAAAAAdsLPwt/Gs3+ahaVlZWfq6ebvk9lYUN33WGJMOdlvTnpbMTSuVW5uj+XVTzQPuO++8U8cee6ymTZvWo+GvxBnAAAAAAAAAAAAAADqgrZA2Fou1Gv421Txc7Uj42zTIbSuY7a45WqsQfvbZZ/Xmm2+2OW53oQIYAAAAAAAAAAAAQIc0r5j1PE+33nrrLsPf8vJySe1rt9zZlsxdMW5bc5SVlaUrnVt75vHHH9eECRMktR6UdwcqgAEAAAAAAAAAAAC0W2sVs7s687dpNe3eGv62dx+zZs2iBTQAAAAAAAAAAACAvUPzyt8XXnhhl8FsJoS/HdnHfffd16JKursQAAMAAAAAAAAAAADokKaVsC+++GK7gllr7V4d/nZkH2vWrNkh/G3rLOE9gQAYAAAAAAAAAAAAQLs1DTSXLl3artC0sVq4+ed7W/jbkX288MIL6RbZ3YkAGAAAAAAAAAAAAEC7NQaazjk9/PDDbd7TNBDtihbQu5qjO6qLO7KPF198kRbQAAAAAAAAAAAAAHq/nbU1bisQ3Z0W0O2dozsC5o7ugxbQAAAAAAAAAAAAAHqtxkDTWtviu52Fpp1tAd3eObor/O3IPqqqqmgBDQAAAAAAAAAAAKD3agw0f/azn7X4vK1ANBPC387s4+67727rNe4xBMAAAAAAAAAAAAAAOiwWi6Wv2xOIdrR1cnM9Hf52Zh/19fW7eItdjwAYAAAAAAAAAAAAQKe1NzTtSPVsZ+borvB3d/bRHQiAAQAAAAAAAAAAAHRKe0PXTAh/d3cf3YUAGAAAAAAAAAAAAECHdTR0bU/r5N2dozsC5s7soztDYQJgAAAAAAAAAAAAAB3inOtwaLqr6tnmemv429F9OOdkjGn1uz2BABgAAAAAAAAAAABAuzUNNLuqdXJzvTH87ew+ujP8lQiAAQAAAAAAAAAAAHRAR8Pfxuu2qoZbG783hr+7sw9rbav37AkEwAAAAAAAAAAAAAA6pDMtoFsLjpvr7eFvZ/bhnEtXDncHAmAAAAAAAAAAAAAA7dZVLaCb6+3hb2f3QQtoAAAAAAAAAAAAAL1WV7SAbm3M3h7+7s4+aAENAAAAAAAAAAAAoNey1nY4NG2rEnZvC387ug9rLS2gAQAAAAAAAAAAAPROTQPN9gaomRD+dnYf3Rn+SgTAAAAAAAAAAAAAADqgo+FvJrR93t05aAENAAAAAAAAAAAAoNfqaAvo5npLMNtd4S8toAEAAAAAAAAAAAD0Sh1tAd1cbwlmu2sOWkADAAAAAAAAAAAA6LUIfzv+fHe2gA66bSYAAAAAAAAAAAAAGcFaq5kzZ0qSnHMyxrS4bs451+uC2c7M4ZxL771pNXR7rrsDFcAAAAAAAAAAAAAA2q15uNne8Lfxu709/G26394W/koEwAAAAAAAAAAAAAA6oDHQbBqAfhrCX2NMq2F3e8LftsbcEwiAAQAAAAAAAAAAAHRIR9o+Nw1K9+bwt+l5vh0Nf9t6P3sCATAAAAAAAAAAAACADmkaaO4s3Gz6XWMg2t4Atq3r5lq7b0/O0bSlc3uuuzP8laSgW2cDAAAAAAAAAAAA8KlVVlbW00vIeFQAAwAAAAAAAAAAAECGIAAGAAAAAAAAAAAAgAxBAAwAAAAAAAAAAAAAGYIAGAAAAAAAAAAAAAAyBAEwAAAAAAAAAAAAAGQIAmAAAAAAAAAAAAAAyBAEwAAAAAAAAAAAAACQIQiAAQAAAAAAAAAAACBDEAADAAAAAAAAAAAAQIYgAAYAAAAAAAAAAACADEEADAAAAAAAAAAAAAAZggAYAAAAAAAAAAAAADIEATAAAAAAAAAAAAAAZAgCYAAAAAAAAAAAAADIEATAAAAAAAAAAAAAAJAhCIABAAAAAAAAAAAAIEMQAAMAAAAAAAAAAABAhiAABgAAAAAAAAAAAIAMQQAMAAAAAAAAAAAAABmCABgAAAAAAAAAAAAAMgQBMAAAAAAAAAAAAABkCAJgAAAAAAAAAAAAAMgQBMAAAAAAAAAAAAAAkCGCnl4AAAAAAAAAAABAT5k6ZKr2O/tkxWprVV1To+rqatXFYkokk3LOyUhyzikIAkWjUQVBQ7SSSqWUSCaVSqXSYxlJ0WhUefn5KujXT3379VOfnBwFQaB4PK4tW7eqYtMmVVZVKQxDGUmRSEQFBQUqKi5WQUGBopHIHt2vc07JVEp1sZhisZjq6uuViMcVj8dVV1en6upqVVVXq7amRvFEQpLkeZ58z1MkElFOnz7Kz89Xv7591bdvX+Xm5SkrK0uB78vzPBljZDxPRpIxJj3vHPf8Ht0XPn2+fdbXdN+Df+rpZfRKBMAAAAAAAAAAAOBTa0zWGE354Q93eV9dXZ1WrVql119/XXPmzNFLr76qZcuWqa6uTs45+b6voqIiHXzwwTp67FhNnTpVI8eNU1FRkXzf3yEM7SnOOVVVVenDDz/UwnnzNPe11/Thhx+qqqpK1lpJDWGv1BDeGmPSwXdWVpainqdoPK6ItcpJJNQnFlNOTo6ys7OVlZXVcE80qmg0qkgkkt63MUZyPblzZCLC37YRAAMAAAAAAAAAgE+tTZs27fR755xisZhWrVqlN998U/PmzdP8+fO1bNkyxWIxSVIQBCoqKtKECRM0ffp0HXXUURo3bpyKi4vl+353bKNdwjBUZWWlli9frldeeUUvvfSSKioq5Ny/09nWgmpjzL+re7df+76vSCSSrooOgkC+7+9QKd34jOd5OvTUAd25VWS4wyaM1sJFH/b0MnotAmAAAAAAAAAAAPCpVVNT0+Z3zjnV1tZq5cqVeuONNzRv3jy98sor6cpfSfJ9XyUlJZo4caKOPvpoTZkyRWPHjlVhYWGvCn8lyVqrWCym9evXa/ny5dq8eXO68rdR0zC4qTAMW3zWPCxu/HtjUOycS18feurnumgX+LT77nln69e//X1PL6NXIwAGAAAAAAAAAACfWm0FnlJDOLxixQq99tprmjNnjl599VUtX75c9fX16XOBi4uLdeihh6bD39GjR6uoqCjdSrm3sdYqkUgouf2M46Z831c0Gk23brbWyjmnMAzT143PNF43HWNn7xLoCp85cgLhbzsQAAMAAAAAAAAAgE+t1loeW2tVW1ur5cuXa+HChZozZ44WLFigFStWKB6Pyxgj3/c1YMCAdNvnxsrfAQMG9NrwtzHgzc3NVX5+viKRiOLxePq74uJiDRo0SEVFRQqCQGEYKplMqr6+XnV1dUokErLWKplMKh6PK5lMpj8Lw1DOOVlr0/9LSlcBA13hhfmLenoJewUCYAAAAAAAAAAA8KmVl5cn6d9BpXNONTU16fB37ty5mj9/vlauXJkOSz3PS5/5e/TRR+vII4/U2LFj1b9//14b/koNYXdubq5KSko0ePBg5eXlpfdkjFF+fr7GjBmjgw46SKWlpTLGKJFIqK6uTvX19aqvr1cikUgHwrFYTLFYTIlEIl1V3PhnMplMh8C9+Z0AmYgAGAAAAAAAAAAAfGoVFxdLUrrlcVVVlT7++ON0+Pvaa69p1apV6aA0Eolo4MCBmjhxoqZNm5au/O3fv3+vO/O3Oc/zlJ+fr8GDB2u//fbTwIEDtW3btnT1bl1dnXzf19ChQzVx4kT1799f1tp0tW/TgLcxEK6vr09/3/y+xrbRnudpuXu+p7cPfGoQAAMAAAAAAAAAgE+twsJCSQ1tnysrK/Xxxx9rwYIFmjt3rhYuXKg1a9YomUxKkoIg0KBBgzRp0iRNmzZNhx9+uEaPHq3CwsJeH/42ysnJUWlpqUaMGKH99ttPa9euVWVlpcIw1LZt27RmzRpVVFTIOafi4mJFo9F0a+emLZ5TqZRSqVS60jcMQ4VhmP688b7Gyupf/o0AGD3vzG+cpof+Z3ZPL2OPIwAGAAAAAAAAAACfWjk5ObLWasuWLfroo4+0YMECzZs3T6+99prWrl2bDn8jkYgGDRqkyZMnp9s+jxw5ste3fW7O9331799f+++/v0aOHKmlS5equrpa1lrFYjGtWLFC7733XrpCuKSkRJ7n7TLgds6l/2wMioGuktcnoppYcrfHaQx/L7nwO/rlb+7d7fF6q73nXyQAAAAAAAAAAIA9YPPmzfrggw/00ksv6YUXXtCCBQu0du1ahWEoqSH8HTx4sA477DB95jOf0ZQpUzR69GgNGDBgrwp/G+Xl5Wno0KEaN26cRowYofz8fBljJEmbNm3Se++9p/fee0+rV69WfX19u8Y0xsgYkw6LI5GIIpGIgiBQEFCPiN0zfsx+XTreL39zr750wtFdOmZvsvf9qwQAAAAAAAAAANBFUqmUPvjgA7388st6/vnn9dprr2ndunVKJpNyzikrK0vDhg3TlClT9NnPflZTpkzRqFGjVFBQkA5N9zaRSEQlJSUaNWqUxo4dq0GDBsn3fVlrVV9fr1WrVun999///+zdeXhcd3n3//f3e2ZGMxqN9l22Je977Nhx4kDC0kATthIoARKWhBZI2drSH08feFJoKC1b+6MrUAj7/kDYKVD2nZDUDt532ZKtXbI00uwz53s/f5yZiZ04wXYWEft+XddY0mjmLF+f48vX9Zn7vunv72d6erpa3Xs+KsGwUg9HfUPrI77Nb/73zx7xbf6+0ABYKaWUUkoppZRSSimllFIXrUwmw913381Pf/pTtm/fzsjICL7vY4whHA6zaNEitm7dypOf/GS2bt3K8uXLaWhoeFyFmqe2Z67M662pqaGrq4uVK1eeFmg755iamuLgwYMcOnSIkZERcrncwwqBlXq4vveTX83Lfp/59CfPy34fLq25V0oppZRSSimllFJKKaXURWtubo5f/OIX7Nixg7GxMZxzGGOIRqP09fVx+eWXc/XVV3PZZZfR19dHfX397334Wwl68/k8xWKRQqFAoVCgVCpRLBYpFovkcjlmZmaw1lZn/c7OzlIoFMjn8wwNDXHgwAFWrVpFT08PsVhsvk9LqcdccmZ6vg/hvGgArJRSSimllFJKKaWUUkqpi1YymeS3v/1tNfwFiMfj9Pb2snXrVq666io2b95MX18fdXV1v1fhbyXoPbWyt1gsks1mmZ2dJZlMMjMzQzKZJJPJkMlkyGazzM3NkUqlyGaz5PN5ZmZmSCQSxOPxauvrmZkZ+vv7OXjwIL29vTQ2NmoIrH6vzZycJl8oMDMzh3PQ3Jygo7MdOP979pf37HzkDvAxpAGwUkoppZRSSimllFJKKaUuWqlUiuHhYUqlEgCxWIy+vj6e8IQncPXVV7Np0yZ6e3upra191MLf4UyJSE2JFnLkBdJeLQ2lAtaPYGrC1deJSDXkrVTq5vP5apCbSmf54d5BMicLLIgmuftgP+OTSeplltRcikwmQzqdZm5ujkwmQ7FYxPM8otEo0WiUWCzG3NwcpVKJXC7HwMAAe/fuZdGiRbS0tLBw4ULC4fBDnIlSj43/vOM7iPi88ubruONTXwEMYsA4EGOwAg6HNYKIARxgsEQxpp4nXtnHunWL5/ksHj0aACullFJKKaWUUkoppZRS6qKVz+cpFAoARCKRauXvk570JLZs2cLChQuJxWKP6gzc57/l1wwkn0D/B6J8+Ic7+esvtvObd5WI5KYISy0igohUg9lKhW8qlWJ2drZa0ZtOzvBPX+tHih5XLhlj244T5NJFGuJpivkCxWIR3/cBqtsEsNbS2tpKPB6npqamWlU8OTnJrl27aG9vp62tjXg8TltbG9baR20tlHow77/jvzDkwRQRBGvgw5+6E4MBBINFjGCNw4nBGPAFrBEqVcBCDiHHz+4a52e/ugcnCV5/6zPOuL8tl67jnnt3P3Yn+AjSAFgppZRSSimllFJKKaWUUhetSggaCoXo6uri0ksv5corr+TSSy+thr/AI1r9KyIYY6r7DoulkJvm0NExju3fhzvyS+781BSl7BwUg/0656qzfHO5HKlUUNFbaeWczWbJZdMwOIfzff5nIks+lwOBZFHgIfJr5xzZbJaOjg6ccwwNDVEqlcjn8wwMDLB9+3ZaWlqor6+npqaGhoaG36tW2OpCJrz/jm8ABQwOjAEJankFKGe/COBEMMbiBMQIGIs1rrwZAXEIFoOAGMRzGDfDBz7yfxFp4HWvuu60PT9ew1/QAFgppZRSSimllFJKKaWUUhc5z/Nobm5m48aNbN26tdr2+Wxn3lYC3YdSmS/s+341zK3M681OnSA1Pc43v76XH3//bkp7jvKpoRTFUg7nXFBx606f81sqlfB9v9q6ulLRWwmV89lTD/B3n0MikaCnp4fW1lZyuRzj4+OICLOzs+zfv5+mpiba2tqqs4BramrOam2UOl/v/9DXwcuDEYyA4LBiEGMBg4jl5muv5I1PW8N39kzw+bsGuWFrL+uXdWCAdFF49yd/wKGJNLffdDlvvuM74Ar4xmBxQZDsPLAOwzT/cced1Ne28/KXPGm+T/1h0wBYKaWUUkoppZRSSimllFIXtUQiwdq1a7niiivYvHkzfX191NbWnvX7K9W8lYfv+9VwthL0Vip3K490Os3s7CwzMzNMHtpOYWKWOyd2cODgYchkODHnHrLtdCVwfrDXnFph/GCvrTzf0tLChg0b2LRpE4VCAREhn8+TTCYREU6ePMmePXtob2+nvb2dxsZG2tvb8TzvrNdIqXPx/o98BUwJCMJfEKxYSqaWK1b28Y13vITKJxvEWG7u7eWWZ16GwwXXfrkx9FP+6WYQgxHDSzZ0I6k5ut/ydZAcVgqIdYhYrBEsPunMMO+/4we87lVPA+CqrZv5xV3b5mkVzp8GwEoppZRSSimllFJKKaWUumiFQiGWLVvGZZddxubNm1m2bBn19fWnBbr3f1SqeCtBb6Uit1AokM/nyefzZLNZMpkM6XS6+pibmyOdTpNKpZibm2N6eppkMsnE0YOY2Tn2jkxTyOeB3120+7tmEt8/9D319ZXfRaNROjs7ufTSS7nqqqtYu3YtmUwGYwypVIp9+/aRTqcpFosMDw+ze/duFi1aRFdXF4lEgrq6uvNcdaUe3Ac/+mWQUrnbsyAYRCJ88n+/lOsuX44zIC5oA+2sYKX8OgMGjyD+rVz3BsRDcHgd3UiHx/AnFuIdO8zq9/6I5NzJYEawCSqCETB2ig/c8QNe+6qnPS7DX9AAWCmllFJKKaWUUkoppZRSF7Gamho2bdrEli1bWLJkCbFYjLm5ueq83WKxWH34vl99Pp/Pk8vlql9zuRzZbPa0wLcS9M7NzZFKpUin09V5vZVHPp8nM5sBShR4ZOcMP1j4Gw6HaWtrY8mSJWzYsIEtW7ZwySWX0NPTQyqVwvf9ajh97NgxisUi6XSa/v5+7r33Xrq6umhubmbRokXaClo9oj5wx5cBHzAgggGKpo2JL/1Fec6vw4jFWHDl6mAROWUWsFDpxu6MwYgADrEEVcEimHgCt+ZS9r4pmCPc8Y7vEvGTCD5YgxMBM8kHPvxdXvvq6x7kSH+/aQCslFJKKaWUUkoppZRSSqmLVjweZ+XKldTX1zM9Pc34+PgZA9t8Pk+hUKh+f2o751wuRyaTIZvNnvZ9pRo4n8+fNrdXJJjne2qb5sBDtXymHHCdnTNVCFtrqampobOzk+XLl7N27Vo2bNjAmjVr6OnpobGxkfr6erLZLBMTE4yOjjI9Pc3U1BQiwvT0NHv27KGjo4PW1lZqa2vp7OzUVtDqEfH+j34NYxwGQVxQ+7t5xSV88503Bhe+ATA4AesIWkNbB8YSZMAOMeXaX2OD7WDAgMUgphIqBw2iZd0GSrv3Mfy26/jannH+8os/QAQs4IyAmWbo+Cg9CzvncVXOjwbASimllFJKKaWUUkoppZS6aHmex9zcHLt27SKXyzEzM8PMzAyzs7OkUqlqwFup/K20eq5UB5dKpWqwe+rDOQecuQXzqU5t1ex5Hr7vP+D3nucRjdeSSkWJx30iYcf0yRLWFLEhn1KheNbna4zB933S6TRTU1MMDg4SCoXIZDJ0dnbS1NREW1sba9asYWhoiJGRkeo6FAoFhoeH2b59Oy0tLSQSCaLRKM3NzdXzUOp8fOzT38FIEXCIgBhDY6KHb73zxRhjcOWPPhhcEN4aMFYQCeJcawTBBgGyC0JiY4P3WGODn40g1mB8KVcEQ2jdakp79vH8tZ18Y8M6frRjL4ILcmUjfO3b9/C6W58zfwtznjQAVkoppZRSSimllFJKKaXURSubzfKLX/yCfD5fbdmcyWSqFb++71MqlapVu0D166nuH/BWqnsrwai1tvrV8zxCoRDhcJhoNMpk0lKSRpb3lTgxMk46mUS4LzhONDSwavVafnO8i82balnZ6jE6NcPs1DhDQ8NMTU0xOzv7gPD4/pxzZLNZRkZGmJubY3R0lMOHD9Pd3U1fXx+LFy9m8eLFdHd3k0gkWL16NcePH2diYoITJ07g+z5zc3McOnSIxsZGGhoaqK+vJxKJUFdXpyGwOm/5fAZw4AgqfW0dez/2GoxYXPk+Egkqc4M7KajmtQYEHyem8kawYMQgYrAWfBdU/OLAIoiVcmtog8ESWr+a4s5dfPT5G+ncPUbMnwQM4gRj0nz28z/hJTc+ZZ5W5vxoAKyUUkoppZRSSimllFJKqYvW3Nwcv7nrN9UZv6eGqA8W6t7/Z2MMxpjTQt5QKFQNeStBbzQapba2ltraWurq6kgkEiQSCeKNcTKhThr9Gb7/q33suve3mOIo4oJZqJ4N09TSgM1cyppNC3niMsOr/2mExuwP6aiLMjEhD1phfH8iQrFYJJlMkkwmGRoa4uDBg7S0tLBo0SKWLl3KsmXLWLRoEaFQiKVLlzIyMkI6nebkyZM455ienmb37t3VADgWi7F48WJisdjD/wtRFx9xwbVuARO0O9+6qhtjLCUEr9z22RjBOIN4QSXwK979JUrO51NveXHQIr3cFtrhMFiM8XDOxwL7jhzidR/6ET95102IV1ttpW6MjxGLbe/GTY4y9ZYn0fUP38KTAmKCkHhmLj1vS3O+NABWSimllFJKKaWUUkoppdRFq9IO+Uxh75kelQreUx/hcJiamhoikQg1NTXVkDcej1cfdXV1xONxEokEdXV11NfXU1tbS319ffX75OwsHYs6+UKN4+jOLMmZaUSE2dkk42OjkDvJ3Gw94+NFCtN7OTl3nLwbI5mcJSidDITDIeLxYH+hkEexWCSXC+YWV4JukSA0zuVy5PN5pqenGR4e5tChQ9UguLOzE2MMHR0ddHV1kclkyGQyiAjj4+P89re/rZ5TNBpl4cKFhMPhx/hvUD3effBj3wbjA7Y8p9fwhdtuxCB4Aib4XAVdN7wdcZWKer96z3a94O8YvfNvg7bQ5fm+UJ4JjMHg88J//BqlQolFL38fK5b0QSTCE7pbuf2V1wCCbW/GjY9T8mIUbIyaUj5oKy0WyD/ma/JwaQCslFJKKaWUUkoppZRSSqmLnud5AIRCIWpqaqipqSEajVaD3TM9Kr+vBL6nVvdWHrFY7LRAOBqNEovFqtuoqakhHA4TiURIpVKIFJkeGuMbEwOk5mYplUoUCzkG+gfBbePgvQPMHkjjDx3ElYYoEVQnGsDYCM42EGpayFOvWszCBYsJR4qkMgVSyVlGR0eZnJxkenqamZkZcrlctb11pb1zOp1mfHyco0eP0tnZSXNzM6FQiNraWhKJBPl8Ht/3KRQKDAwMEIlEqpXM0WiUrq6u4Hi0HbQ6S6Y895fy3F4BMrk8sUgYV66y777hdkCw1oEE7aAFiyPM2J23IWIRghbRGIvBlCuBAbGMjGe4/potfPvHv2T3vkOICLt2wIe++3OGv/x2rBC0hbYe1i9hsOUDEowUOD44xsJFHfO3SOdIA2CllFJKKaWUUkoppZRSSl20wuEwPT09RKPRamjb2NhYrcyNx+PEYjFisVg1GK4Et5UQuBLqVr4/NTyutIAOh8OEQiGstVhrT6sqrkgkEixcuJjla1ax/OBBxsbGOHnyJCLC1NQkNZFd9O+MMUAO8jMIeZzxAEFsmCVLFjGYW0qpaTMvfvmlvP9LG1FswwAAIABJREFUWRYtbuHlz6wlnZxmdHSU0dFRRkZGGBoaYmRkhImJCU6ePEkul6tWBmcyGXK5HOPj49VA2/M8RIRQKIRzrlo9fOjQITzPIxKJ4Hke1lra29s1AFZnTcQP+j4bAbEghiPHp2hem6CcCvOuP30Wb/7of4FYBGHXv76Bjm98i28Op3jen72fLz9nBd6zrq3OCsb4GDGY9Dg2FGHqi2+E6RP8Yl0dL/j374ExiAOsKbeNFrwFnbiRUcJWwC9XETtBrOVb39vJa1759PlcpnOiAbBSSimllFJKKaWUUkoppS5azc3NPPvZzyaRSFBfX09DQ0N1tm2lbXMl7K3M9K3M9z21BfT920KfOhP4d4WhIkHVo+dZ2trbWbl4JavWrubYsWMkk0lKpRLO98llpygUbBCY4cr7AF9aINHDU556GV/dtwzqtnDFpSvYeFkznZ21hHJzpNJZ5ubmSCaTTExMMDw8zIkTJzh27BhHjx7lxIkTjI+Pk8lk8H0f5xz5fJ5CocDs7Gw1rHbOnXbs+Xye/fv3Y62lVCrh+z6bNm2ira2NUEhjKHUWpBS0fgaCQmDDyMlZHBLkv0a4+fqredbYca79yVGOpx1Peve3+NIH3sqz1yzhOVg6N7yQ4WdeS9BIGpwYLIa+V3yGFcu62Lyuj233HqKQ86mJtvHKpbX86bpGup53fbWVtGlugqFhnBNCCIgg1oATjBeZt+U5H3rnKaWUUkoppZRSSimllFLqotXe3s71N1x/WqvmSjVvpTVzpWq3EugCZ6zgPV9iDI4kVhqI10RpXdLBooU9NDR3UiodDOajioDx8X3/vmMgxIIFXQwWVmOaV3H1dVezeks3N7xoLV21YYQwIa+IicWojSdoaWmhWCySzQZh8OTkJMPDw/T393PkyBEOHjzI4OAgY2NjpFIpCoUCwGn7fMCxlyuBd+/eje/71XbRkUiEpqam09ZMqTORyiXigrAXhM62JiwGDDz1rz7BjsEpxnZ9hR2RMBJEw0F7Z2NAoP83n2byH2+j7fo/gvLkXzc2yvqNfXzzC+8DDMYQBMoYcPDOf/ssH7j5g3z+8gRX/uUtAFgs1oCP4CHgLFiDhEqP/cI8DBoAK6WUUkoppZRSSimllFLqotXQ0MCWLVuqVbzW2uo84MeKKQlkfUy0wPbRAs95LfztH8eQiAFrg/CX6pdym9sw4UQbT3jiU4gMwD++9ya29C6gpaGNSDyMGCGYimoRE7yxUp0cjUZpaGigo6OD3t5eli5dytq1a6tB8OHDhxkcHGR0dJRkMkk2m61WBT+YQqHA/v37qaurY+HChfT09FBXV0dNTc2jvXzqQiBBC2gBjBguX9mDwdH78g/yzacuYd0PPh5M5RXAWCyCE8Ga4Lna2ijTrvx7axg+dpzn3v5FOpb2glisFVw1BDYYC29540t4y1+8lJ4NL6L5VR9l20dfhSA4YzDiBZX2NriPXDE9r8tzrjQAVkoppZRSSimllFJKKaXURcvzPBKJxLwew88Oj/LS9xj+56PCr3ecYFLmOD50jOT0BEguCMeQ6uuNsXg1TVx37VN5+lOeyps2b6Krt4fWJosxYQwFIIyIJSirdNw/EjLGVGca19fX09nZSV9fH6tWreL48eMcO3aMwcFBhoaGqrOIk8lktTL4TGFwoVBgcHCQwcFBTp48SXd3N5FIROcBq4dmPESKWILQ1dlY0BLaemz/4Cu5+949XCLlil8MThxBcbDBCSCCMXDcWvL37KR3yzri9/6W1WuW8ZlP/yMCOE65Bg34IpggbcZYw57/dTnX3HYn33rRSk687fksvP1zwQ6lkk3LGQ7895cGwEoppZRSSimllFJKKaWUumgZ5j+cvP39+5nhcooj44wc3Y+MHWH7PTsYOjYM8sCg1WBZs2ElmzZs4tLL1hJe0EuopYGwSzNriszkIyzwYBJIhUosyuYJxU4PuU8NZcPhME1NTSQSCdrb21m8eDFr1qxhbGyMkZERRkdHq98PDQ1V5wXncrlgfnG1QlmqlcKVh1K/k4SDOcA4nLOMffktgCACDZEaIuEwR4+dYPHiBRhxgMGI4FMOcSFIaV2ERcsWgjHUP++Z/PCmf8fIfZ+fMOXG0c5KcNeLYDGUxOEvW8d/v2MDpd17EBzXrl7C9/YeKW9bqImF52Fhzp8GwEoppZRSSimllFJKKaWUUvOoVMjhUgNs23aAPdt/hjmxl9+O7mZmapxTK38rwpEQe/sN8qskt9zUzJY3ZxE7wfCHlnHJaw9TzDYyeEcrt7x9J3eNLmP4P2vOKhAKhUIkEgnq6upoa2ujt7eXVCrFzMwMU1NTTExMMDIywrFjxzh06BBHjx5ldHSUVCqFc466ujpWrFjBwoULSSQSj3krbfX4tLCjjcHRYwiWsU+/GWOCocCCw0Ys12zdQO8fvZaBHd9ArMFKMOXXQ4Jpv9bw/Z/ewxMWtWKbGxBjMGLwXemUsNeW20sHBfHGGMQI23YcZNtrr8R4IUQc3soVlA4c5CMvupLet5/AuAJO4JUve+Z8LtE50wBYKaWUUkoppZRSSimllFJqHpRKJWZmZkiODlKaGueHP9zG/v/5DW7iGONmGuf7Z3yf75cgn0d8w2w2TVHqCeHhcPjiIUQohqCmVEseD+OdW/WiMYZIJEJNTU11VnChUCCdTpNMJpmYmOD48eMcPnyY/v5+JiYmKBQKtLa2sm7dOjZs2EBbW5u2f1YP6cVru1m2oJnb/nAN3TfcjrH1mHi8HOsCxoIYSkZY2V5PMAQ4qDQ3FnCG3fuP8uTn/jnL62P86o4/454jMzznbz7JPzx3A/0vWk37mus58psvUF8XL28zaOfsECzwzJe+jdE3PTGoYhfBhEOURPAMDL7tBha+/XM4U8NfNxX5yk+O8yUHl166ZB5X7exoAKyUUkoppZRSSimllFJKKXWenHMUi0Xy+TylUgljDOFwmHA4TCgUwlr7gBBURMhms4yNjXHkyBGGTvyK0nieH8/u5PjhEzg/BeUQTDBEYrUgJQq5AiA45+Pnx5geP8LIyBjhQpxQTQ1hKxiEEpaIK1CwIUISKc86PbfzqhyztZZIJEIkEqGuro7m5mZ6enpYvnw5l1xyCWNjY0xOTlIsFqmrq6Ozs5MFCxbQ2NhIKKQxlDqzX/54D2+9dh2CwVro7ljEtn/7EwwWQYJqXeeD5+E5+O4/38qCtdfju8pv4TMv28rT+lqY/L9vRKzl6W/9Ej9803WMfuEv6R+eIVpvGIyFyLz3djq/fogQHpesX8Ftb7iJtvYm/uZdH+fZGxfiNm5EMIixWBzWBLOFHYIL1TL8V9fwleNZnveMZdz9rQPzu3BnSe88pZRSSimllFJKKaWUUkqp81AsFkmn04yPjzMxMcHc3BwiQm1tLY2NjTQ2NpJIJIjH49VqWN/3mZ6e5vjx4+zdu5cdO3aQOr4TmZni4MQkhXwWAGMgEkuQd90sWdUAuTQH9g0izOEcUDiJpMcZ6D9EsdBKjdeGEw8f71GdalwJt+PxOC0tLSxevJhMJkOpVMJaSzQaJRqNEg4/vmamqsfWd995AwCX/flnuOffb+SNL9iK2CC2NJTn9uLhBEx50O/xj78Gk5oBAb+pDTyPEmBx+GL43t+/EFee87usq5Eb3/VVPvPXz6HGWoZe8CwMhrs/+0OS7/sPsrUxbsnnePKtz8IgCA7jQKzFa2nGTc6AFTwb5ieTjuetbAaB9z5zBdd8bg9P/4M187FsZ00DYKWUUkoppZRSSimllFJKqXMkIqRSKfr7+9m5cyd79uxhYmICESGRSNDR0UF3dzednZ10dXXR1NRETU0NqVSKgYEBdu3axfbt29m9ezcu2Y8UMxRwBPGXoamxld7lS9g/0smTrlrN1NgAB49MIsUgZIYMmZlD9A+OEs3eS32kD98twBNLCcEPxqhiHjhC+BHjeR6xWIxoNFo+JrTlszorQjDj91tvvhaLx9pFnRhDMKBXDEgQ5HoOnAmeMtEYLhpDBKwFccJXfnmA65+4Ck98TPneEQOI8Lk3X4/nfBa84v0c/fjrwRq23HQN1kj5NQQVxwYMDmeCLYS7ushNzWAw1NQ0clVvI3/4kXvZO57jxP/ewqFjczx9HtfubGgArJRSSimllFJKKaWUUkopdY7y+TwTExPs3LmTb3/722zbto2ZmRkAYrEYLS0tdHV1sWDBAnp6emhubsZaSzKZ5Pjx4xw4cICjR48yPj6OKxSAIDw1XghHN5u2buDyTZfw1o2biMXD/M+OGMPH+7n33iS5XA5MkZjNMDQ4wL/cvJQrr1pFmCTgCIalPnaMMRr8qnOy++g465e009XdASJsXNYBrlL9azDcN6c3SIYFMQ7EwxiHOAPW8usjJ+mf2Mk7P/EVpr/6N2BC4HwccN3/+TRrFjQx+JFX88sdh7hyw4pgUxjKXaSpdEcXLAbBiAkCZ3FgYf+brkZwPGVpLd/+kw2E/SxPf7LOAFZKKaWUUkoppZRSSimllLqgiAiFQoHx8XH27t3L9u3bGRgYwDkHwMzMDOPj4/T399PQ0EBDQwO1tbVYa0mn08zMzDA9PU0ul6tWzoIhkUhQ29TDqKzjmmsv5/L1G1i+fBXgSKVz7Fu8j/7+o+TzeUSE2bk5BgYGGBmaITWdpNjYhJEImAIhP4bYAr6XxUq0HKIp9fvhmX/zVY597nWAICJYA85arAC4oMoXcBiMCEYEsR5Ggg8biAmqhN9xWYKu276CEUfrDe9k6ou3AXDNmz/GjsPDrO5qYPlrPsbHbn0axprq/iqV9kGxcPkeNOCC0mQozwEGwFre9JQVWGDPeIrlS9sew5U6PxoAK6WUUkoppZRSSimllFJKnSPf90mn00xMTDAzM1MNfyEIlEqlEqVSiUwmw+joaBBaiVTDplNbJosB43WxfvNKpGUFs8NP4rInr2Dtwh5aG1vJ5Qr09PTQ19dHW1sbU1NTlEolcrkcw8PD9Pf3Mzw8TGtPI/FSFt95iBHCvlBfzCCmdl7WSKkH8+pbrsYah3MWawExGAOCYAVc+WdbaYtuDAaHYJBqkbvwsQHLzJ3/J6geNkF6Kwg/eudLIF/CeJY3npjgpf/5K362eTnY8n7EIcZixFItCpZgm9YawGGxwUxhBx4GEbjuY4e49RWXz9OqnT0NgJVSSimllFJKKaWUUkoppc5BpeWxtbb6uP/vgWrge1+V7wN5nkdLZysb1q3niVs2cdnmK1myej0LuxqJxupwnhCJONrbW+ntXUx3dzeDg4PMzs7inGNycpKj/ccZGBiid+FStn2wj5BXQCjy9bcvoWQ8wAe8R3FFlDp3f/C/vsCP/vEmEINYAV/AGly5HXMQ/Z46zNqWv5YH+DrhDdeuxInj+e/4PL/aO4ihhLEWETBeGGcTTHziFfz8vc9HvOBtIgaLh5OgrbRxNpg9XJ4BXJnEjQErQfArxlCbO0lTQ828rNW5emybwCullFJKKaWUUkoppZRSSl0AwuEwtbW1NDY2Eo/Hq6FvJRgOh8N43u8OXT3Po6G2jpamZpraO0h0NnHHLxwmXsdJE+Iprx8hJTHamhpZ2NtL3+IlNLU0Y42HiJBKpfjxXQf4/973Y8amR/mTv9vG3WkPZ2tw1uKFing8dPvnMwXUvyu4Vurh+oOnrcPzS0A5f/Uqo3kFjAQftAhKe8tPSTn/FYxz7Ds2TMcL30n3i9/BXbsP4lHAmCLGz2NdHuOn8AojdN30bhbd/GGs7zAiQavncsIbzBwOWk5TDnuNE5wEFcFCud00wiX/sYMXPn/D/CzWOQpdvfDq+T6GC15jtBFdZ3UhcMN1tG7aNN+HccH759lV830IF7wjWQ/032V1AdD/Y6gLhV7L6kKh17K6UOi1rC4Uei2rC4Vey4++RQ2Lzut94XCYuro66uvrqaure0CLZ2stIlJtDf1gYWqxWGRqapqjRw/R1NTAtmNFPntkC699ZhSvvp196UWMzmRpjdVzJN9ET2cn3Z0djI2OkctmKZVK+NOT2PgMR4+dYPuRVbzgr7L0/2cCkZPgNxC0tS096Lmc2pb6bKqWAZxz1deEQiE8zyMUClWD8PtrD7dwdbtey4+64/N9AOfm736wl9uevg4xNgh5y5ePkaAnc5DXOhCDNRI0gRbouuHvMPhYHMZ3iAEQrDOICdLb4CmLMw6yY/S84G3ceOVa3vvXN2GkfH8asMYgCDiHZ8vNn8vtqI2Axafv7T/ida980vwt1DkK/fz4z+f7GC54Vy+8Gl1ndSF4/mwbk9v3z/dhXPDa5/sALgL7X7aQn0/qv8vq8U//j6EuFHotqwuFXsvqQqHXsrpQ6LWsLhR6LT/6rllyzTm/xzlHNptlenqaZDJJsVg8LTD1ff8hg99KWFzZ1smTJ9mxM8/E5CzhxgNIZozv/9cqmpeuoDjVxNhAjGJHmDfdYfjLLV20trVRKCaAXBDWuhnMxAHuveunTI9PkK/bxLEDCT7+9Z3c8MzF1IVjuHIL6FMD2lOPQUTwfb967KeG16e+1hiDc656zuFwmPr6ehobG2lpaSEajZ6x8nm8OKXX8mPgGs79ep5PAmAEsXJfu2eRoA20Ceb6Vq69kgEr0PmCt2ERBIcRg5SnA1vA4AdVuxiMgFiHcQQBM47P/HoX9oPf4z23/mG1nbQIGGNx1uGwiBMEL5hHbADfPq7CX9AZwEoppZRSSimllFJKKaWUUmfNOcfs7CxHjhxh27Zt7N69m7GxsQcEvff/2RhDKBQiHA4jIhSLRXzfr1bbZjMpjvYfhtAgjhN85uP/Q9uidnIHF/D1b3SxoLMWM5bh13uHqPUdYsP3bVsK+Nkj/PTnMVLTxynWHuUb32nizm9PUyxO0BadxTtDJFQ5xkroWwmATw2Cz3T++XyefD6PiBCLxeju7mbNmjWsXLmSnp4e4vH4A+YiK/Vg9p6YZPWCTqgEviao/jVOcNZQ6WDuCXS84PbqfFvBYMqtoj1D0NfZBPODjZFyRbEhKCaWoLrYGD75gx/znlc/FUw4CInNKVXwBrCVCcSAwKGhKbCJx3hVHh4NgJVSSimllFJKKaWUUkoppc6CiJDL5RgeHmbbtm38+Mc/Ztu2bSSTyYd8nzGGcDhMLBarBsC5XI5cLndaK2XnHBRywCHuuusokZ11lPIJvvbFBA0NteQO13J0Lk0tKaSY4ZSJqSAFdu3aRcENQ+ggX/h8DaPHcvzbjhCXLAEvXHPG8zk1BD41CL5/BXDl9cVikWKxSKFQAIJW2N3d3WzduhURIR6PU1NTQyQSeVhrrS4e17/1Wxz45CvL1zFBgCsGMRYD5Spfx83v+iTWBK3MRcAiYEF8wUrQ+tnHAMH7rDU45wchMCBYjDgQof2GdzN2521QjpONcYhYvKCuOCgOJgiE3/HjI6y/ZuNjvi4PhwbASimllFJKKaWUUkoppZRSZ6ES3I6MjHDvvfdy7733/s7wt6JUKpFOp4H72ig/1Kxd3y+RnZsBM8PAIQCDkTAn5kx5Jqr/gPcUikWQcYw/wZ5dhpIP4kLs3lvEmIeuyD31OE49rvu3jD7T8Z48eZJIJMKSJUtYunQpLS0tGgCrs1YoGMBhJWjijIBYCD7aUK4GNvD97YcBgzgpt4c2OGcwwAffdit/tGVlULnrfMz0OKTmML6h5S8+i0cKI1KuEA62LWIIbguHiKnsGsnkcNZiJGgufc9whvXzsjLnTwNgpZRSSimllFJKKaWUUkqps1CpgE2lUkxNTZFMJs/YJvlM7ztTRe3Z7fTUOt8ClCo/n/m1QZgFxWLlyRKlEsADA+NHSrFYJJlMkslkKJVKDxpqK3Umr7z5Mjxn8S1BaS8eiI/BlGcEOwRDTSRCNp/HWDBiecO6Ft7y+U9jjh5gNp/jD//uq0xnsqzqauJ9r38WrYk5XDrD2O3PwreGN33pV3xh1xDGGsQ5KuGyxcNZh3GCYMkf6Q9m/wpQnjH8eKMBsFJKKaWUUkoppZRSSiml1FmozPGtra2loaGB+vp6MpnMWQWeZ5qJW507+igEpvdV7lqstcFM1N/x2srX4PXB98650x5nOtaamhpaW1tpaWmhtraWUEjjJ3VuHAUMEcQEFe4iFmcEa8pBrTMc++xbcbZcHmyE76Q7MLFmSvk54li+c9u1QetmMfguhUMorNuMv/ZKar71Of7p5mt5XybNwUQbK3tbQYJWz+K5cptpU416DSDWkJ5L8acvu3L+FuY86R2olFJKKaWUUkoppZRSSil1FowxRKNRurq6uPTSS5mcnGTnzp2MjY2RzWYf0DrZWksikSCRSDxkS+T+oUkoRqmvy5DJlnClLE4sQZvaBwau1vMQ3wbjS+WBFbfGWOobEqTzdTjTyrpV4OEBp4fNpwa+1lo8z8PzPKy1+L5PPp8nlUoxOzvL3Nwc6XT6Ae8PhUIsWbKETZs2sXTpUpqamjQAVuds8cs+zbFP/ylibbnzs8NSmd0LxgiCIM6AEazAM2rHcfd+vzzjVzC+KSe3gofBGI/osQPlbXiUMil8MazsbQ/aQSM4S1Dla4LwN7dnf7AfDJ4TNv77dm592RXztzDnSe9ApZRSSimllFJKKaWUUkqps3BqALxlyxbi8TgrV65k7969HDp0iIGBAXK5XDUkbWxsZNWqVSxbtoyWlpYzVgEDfOibg6SLbTzrqgK7Dh1l9+4kfe2zJGcmSM4kcWIRV+3pjCBgDdaGaEjUkkrnKRRy9/1eoLGpCUoLSNVu5rnPbaC2pvaMYbIxphrkWmurs4onJiYYHR1lcHCQZDJJoVB4QPhbV1fH0qVLeeITn8jVV1/NypUrqa+vf9DzVOrB/MlLNmFLKSRcBwaCSBdwElyjUG3FbAQcgHFgTLlu1yBG8MRRwuABvhOsCRpJy9rVeOKwng1ukCBVrvZTtyKIMVgniLE4hFA+TUdrfB5W4+HTAFgppZRSSimllFJKKaWUUuoseZ5HfX09y5cvp729ndWrV7NmzRp+/vOf45zjyJEj+L6PMYZYLEZvby9PeMITWLFiBTU1NWfc5p377sK5Lbz85R7/dfdBDlDg+qefYPDwfr75nX4aQseZm5mmWCwCgvgOKOLEp+SH8P0ImBIGvxzSOvKZLETDmNp2Lr98Iwu7F+B53mn7va9NNJRKJZLJJGNjY/T395PJZBgaGuL48eOcPHmSYrGISBDGeZ5HW1sb69at44orrmDr1q2sX7+e9vZ2otHoo7f46oJlrGXZq77G/o+/FEy5uF3KFb3l+FfKYa6TcqvmYEAwzggGwYjBGYtXTnVt+foWCbZvqqGvUImYg81bRITC7r1IuQDZCvT+0z382S2Pv/bPoAGwUkoppZRSSimllFJKKaXUOQmHw9TX15NIJGhra6OxsZFsNsuxY8cYGhoinU4D4Ps+oVCItrY2VqxYQUNDw2mha0WkbYqIfwmbtoY4WmzD7GngpTeOc/BYP9/e28/WZfdw/PBOdu8ZhNIsiIdQQsQnnU7juxBgqq2bAaaTSSgO42rGKOHT2tpKa2vrafsXEYrFIslkktHRUUZHR9mzZw+7du3iwIEDnDhxglQqVd2mtZZ4PE5PTw8bN25k69atbN68uVrhHA6HH/3FVxesl924Hn9yhFBbV7UFuim3gQYJ5vWKYIKC32r1roHyDN/gOQcgDmNs+UUGcQ4sGFfemi1vrxIuz6WCcBmDwbLv0CEu29jzmJ7/I0kDYKWUUkoppZRSSimllFJKqXNUaXNcW1tLc3MznZ2ddHZ2Eo/HyWQyiAiZTIbJyUlmZ2fxfZ9YLHbG9sieF8OYOLVxj0isHlPbxtLlTdS29xJa2MsfXNfGxLGF7B7dR4s9QDE7QnI6BfjlcNYB5YrJsmKhgBRPIOZudv22na7mDurq6qivr68Gv3Nzc4yNjXH06FEOHDjArl272Lt3L8eOHWNmZua0qt9wOExLSwtLly5lw4YNbNmyhfXr19PX10djY2P1vCqvV+p8vOpLO/nEa9sRPKh0aDaCYLHl0FdEQAwYgy2HwEHDaA9rXPluMBgjOCkHxJXU2ARztQ0gJmgHbXwoDg4gWIwI0dwU1395iFe99PE3+7dCA2CllFJKKaWUUkoppZRSSqmHIRaL0dLSQnt7Ow0NDUxNTeH7PrlcjsnJScbGxkgmk3R2dj74fNzyXFIRhzFgPWhsrKOmYTkbNtcjyxfzzz9Yytq2XsK5ffzgJ/sw/jhIsTqb17n7ZvQ654AcJI+y7e7tdLS0U1dXR09PD4VCgfHxcQYHBzlw4AD79+9n3759HD16lMnJydPmGHueRyKRYMGCBaxZs4aNGzeyfv16VqxYQXd3N/F4/LTAV8Nf9XAsXdrJohs/xsDnX4Uj6NiMBG2bnQFjDbbcvlkEnDH3fehAfJwrv6fCWIw4nDEY54KfTbmNtBFkdobiiWGcCcLfEI6+f939uA5/QQNgpZRSSimllFJKKaWUUkqph6VSHdvV1UVrayuDg4P4vk+pVGJqaoqRkRGmpqbI5/Pn1ibZgISjtHf20LigCbughfWb21lcu5ifHFqMN/tLYm6ImZkZTDkIO50PpSl+c/ddRGsiOOdYtGgRuVyOY8eOcejQIQ4cOFANfjOZDM65aqAWjUZpb29nxYoVXHLJJaxfv541a9awYMECmpubH3SmsVIPx6tuuZzuGz/M0Of+DINPMOc3aPOMCyb3OmOxBNeqBVy5qtdYU63wpRLymvLMYGMQ40AMnoHcnn2IC9pMW2MIeR7L3/UzXvWSy+fx7B8ZGgArpZRSSimllFJKKaWUUko9DJWZwB0dHbS1tVFTU0M+n8c5x+zsLKOjo0xNTZHNZqmrq3vIbYnxiRbBYWgQ+NJbs/S1F6mVGu78h3ZW1jeTm+hh2u9g8HCCgT1389vd+5ibOQmOM4TAJcZGRvnZz37G1NQU3d3dlEolTpw4wYkbnPi+AAAgAElEQVQTJ5iYmCCdTleD38r5NDU10dfXx9q1a7nkkktYu3YtS5YsobOz80FbWSv1SHntLVew4MYPc+IzL0NC0WA+r3UYF4S6RkBO+dCDMQZx1bHAwYcngv7R2HK1sAFELC6ZpHDiBCJgjQFxxPLjLPm3fv7kpsvm54QfYRoAK6WUUkoppZRSSimllFJKPQzGGOrq6mhtbaW9vZ1EIsHc3BwiQjqdZmJigqmpKdLpNC0tLWcVnnq+JWp8ntIbowgUbYhn9NUhEcNsvccr4gn272/inp4mGurr2blrJ8PDYxQKhQdsyznH8PAwyWSSuro6nHOkUikKhcJpFb+Vds89PT2sWLGCDRs2sG7dOpYtW8bChQupr6/H8zxt86weE695xRZu+8YONtQ6XnjdVqwYsOVkV6Q6A9iVnzPGBEGxMRiB8h9Bq2gL/q79iHE4AWs8DA5rhD/+xL0M5YRbbtw836f8iNEAWCmllFJKKaWUUkoppZRS6mEQEWpqamhpaaGjo4OGhgZGR0dxzlEsFpmenmZiYoLZ2Vl8339gAGzKY04Bg8F5PmItBocYj3ChlkjIIREwJUtTuIn4ggh1tfU019XTWt9Mc2sb27dtZ9euA4jkz3ic6XSadDp9WrvoSvAbj8fp6Ohg6dKlrFu3jjVr1rBy5Ur6+vpoamoiGo1WX6/UY6U2XsMhYMkrP8+ed1xJrKcvuFlMeWY24FEZEyzk9hyAaATyeawDHyG43UzwNgfWGqwr8KN9x3nDd0Z5+Ys2zecpPio0AFZKKaWUUkoppZRSSimllHoYjDGEQiEaGhpoa2ujqamJUChEPp/H932SySRTU1Mkk0kKhQLhcLhadQuwIDyFVzhBLb30NUfoDh3DFJaSC4epQSAMGBvMMS0nOyEXo6UtSiQaJdYQpzYexYYN+wezFJPHEck96LFWwt9QKEQsFqOzs5O+vj5WrVrF6tWrq8Fve3s7tbW12u5Zzbs/vWEN79uZ5Ccf+CYr22v54OufhNgIAuWZvyaY9SuCyxUx5apfYwy44NMVYhyeOFa/5/sYG+fmF1/Oy1/UPd+n9qjQAFgppZRSSimllFJKKaWUUuph8jyPuro6WlpaaG5urs4BFhFSqRQnT55kdnaWQqFAbW3taZW0//0ff4xzOTCGP1hVz55/b8V5aSxhjImccX/GGEqlEs45QqEQiUSCtkQnV23qZO/eJOPjQXvn+6sEz3V1dSxYsIBFixaxcuVKVqxYwbJly6rBb11dHeFw+FFbL6XOxzVX9fDhT/wS+fOn8lf/+g2++OtBvv3uF7OurxnrG2hsxM7OgDGAgF/iNV/dw7f3jWMFrupNkM6XCMncfJ/Ko0oDYKWUUkoppZRSSimllFJKqYfJGEMsFqOxsZHm5mai0Wh1DnA+n2dmZobZ2VlyuQdW5l5z638zlu5m56fW88lfjvGejyXZ8eEVhGuEUxsuF4tFisUi2Wy2GiqPjY0xMDDA4cOH2b9/Nz/91TH8whymXOV7f9Zaurq6WLNmDevXr2fFihUsXbqUBQsW0NbWRiKRIBI5c+is1Hz4yEd/zcf+8y942pMvQ4xl8bJLya24giduPsj//4ZnABYRwVlLeFE3xd1JQHACxoT44PPWw/McFkchn6f2ljdigI/8y+3MhlbxgQ/9F3/0jFU0tzfO85k+cjQAVkoppZRSSimllFJKKaWUegTU1NRUA+BEIsHk5GQ1AE4mk8zMzJDNZnHO4Xle9X0Z18ZIfCXpkFAQw0B0NZmIoV5K+M4nl8uRyWRIJpOcPHmSiYkJRkdHGR4eZmhoiIGBAY4fP874+Dh+fhrERzg9ADbGEI1G6e3t5fLLL+eKK65gzZo19PT00NraSjweJxwO64xf9Xvhc5+9m/f8/a0899lX8da/fgMAgiAY3va3H+am5z+ZF7zm1Szc8EIGP/UaEItvBOsL4RVLKRzsJxgCLDgTTNc+MT7NnhVP4XoDL7zl7bz5NU9j45VP4aY/vhKkxK1/9Ul27x3nFS9fP78n/wjQAFgppZRSSimllFJKKaWUUuoREAqFqKuro7GxkXg8Xg1Ti8Uis7OzJJNJMpnMAwLgOTuHKYUJEcJYD1vyKLgcqZkZppIzjE6MMzY0yejECU4cH2NoaISxsSHGxiYYn5wgOX1fsEx1trBBBIyJ0NbeQFtrG0uXLmXjxo1cdtllrFmzhra2NuLxONZaDX7V74VPfvIuPvAvf8lb3/R6sOVrGFP+QIPFIPzL378aCGb6Du76Ir1rXsDRz74OKwAeJhQCDNZBEP3Ca7+4gw984V9ZHg0jwD337Gfjp96OOKGrZwkA3/ziP/DrX32Xu3dO8y//9gNeccuGeVmDR4IGwEoppZRSSimllFJKKaWUUo8Az/OIxWLU19cTj8cJhUL4vo9zjlQqRTKZJJ1OUyqVHjBfVwDfF/xiAclP8v/Yu+8wOc/63v/v+5ktWm3VqlmWLEuWXGTLRS7YxjSDA4QQDIQSsA3BkENJOTlJyC8kBGQDCeWEK4EQygkkFIMxPQEbF4qNDbZsbLmoWG7qfXe1vc089++PKTu72lXzrlZevV/XtezMM9+5n2fG2BrtZ7/fe/P63ezauZt/+dZDnD1/H7s3b+ZXq56hOm2js3MPbS2dpLGfNJsr7fWbD3EzRAJz5zTTPjiD/spTufJ1J3HqKYs59dRTWbJkCfPnz6exsXFYCC1Npr7OTrbtTHjysRsgiRDzYW9M8v9uEBNCSIHA71/5EpadfxVrHvwaxJSNa75Hf28/p110NZu++T5yOag+8xRCLuVH37mNf3sqy+0//Dwh5juIBwYG+e7X/4wQA4RCyJzkiGnCpc9/JZdcBhecVcP1n/gtM2dkWXb2vEl+dw6fAbAkSZIkSZIkSTpu5dLcuK2VJElpH+D6+noqKiro7+8HoKenh9bWVjo6Oujp6SGXy9Hf38/g4CBp9w5yg8/w5Locm9Y8zsD2bn52606eePoZfv4/T/J083a69u1g765eIt0wcrwz+S7JadOr6OlvhJq5XHLpMh7cMpNdFct51WsWcvIJw0c99/b2ljp/J6r7N8aY35u1EFBLo/ny13/N+l9/ger6JggpMQaSGEgDJOT/fxSIpCmEEIkkrHnwG3zsn77OB//2akISqampYMtjN3LvA+v4w2vez0A28vJXX85//svHeV0aIUIaACJnnHstD9z9aQI50piQBIgxUNpwO8LzX/RafvqC1/Lk+lW8/MrPc+27VkzeG3QEDIAlSZIkSZIkSdJxq6OjY9zWKgbA9fX1NDU1MW3aNHp6eogxlgLgHTt28OSTT9Lb28u2bdtobW1l9/qH6Rt4nP/6cjer1m4hXb+PG9v2smv3TtjbyjOtA4Q0EEMkADFCMa3KZBJysQoydSw5ZSZrd80iTF/IqactZm07JIM1ZPv62blzJ3v27CFJEpIkIZPJDPs+nkFwzF8gaZqSy+XIZrPjsq6mnq984242PXIjMYTCHr8JAUjJEQiEFGIIpEQChZA2RkKEm3/6az74gasLY54TCJHbb/81NVVVVCSDvOKi0wgRYkiIMZKQcNaF1/L9G97LjOa5haHSEWIgQ0qhj76YOhMCnLrsIr7y2cd45/++h3dc+9wZCW0ALEmSJEmSJEmSjlt79uwZ1/Wqq6tpamqiubmZ6dOn09raSoyR3t5eduzYweOPP86uXbt45plneOKJJ9izZw9ta7cS0xpu3DNAe3c3sXeAR3alxFjoTs5R2AMVCIGQSYi5hCSToampjpaOKmJSS+30RmIaSQda2bIJ9u3sY2BgOzffEsnEisLTAxUVFWQymdL3TCZTCn9DCKUAdzTFugPVlAfA2Ww2HwDPf7bvrKaab35nFc88fBMxRIYacPNBbwiBUOgCBggxEELh34NC8a/v+iLLzr6GdY/+JxDo6+3nG9/6MYsXVpGESv7yH/6DS5+3gpOXLiQTIu2dPfzpH7+Q81ZcRsgnw6QhkABp4expGsmk+dHQAClw+SvfyVc+U8k7/uIerv2jM4/+G3UEDIAlSZIkSZIkSdJxq6WlZVzXKwbAs2fPpqGhgSRJyOVyDA4OsmfPHtavX09XVxfr1q1j165dDA4OlgLT3buH1hk7Xi1kU0kCaaS/v58kN0CS9rPhqRZiayQkldx1V0L7vpR0MHDLzVUkcWif4BBCKfgtdv/uf47hQe/ImhjjmDXlAXCMkVwuxyvfc8bhvZGa0r74tV+x7bGboLAvbwL52ynEhELImw9pQ0jzXbwhFvbtLYxsJrL2kf/keZe9h/vv/jwXXHYtSa6PQBUBqJsWeMmr38/G9d8mEllxyZ9w+3+/n/zMZ0hDJIRImgaSJN9Zn0kihATSFGL+eEjhxVdczVc/V8c177uVd73j2A+BDYAlSZIkSZIkSdJxq7hH73ipqKigoaGBOXPmMHPmTCorK0ujkNva2ti4cSN79uxh+/bt5HKHv/9wjDHfERwHiEB39yAA2TTS1lLo3o2BXTshLQSxu7ZR6mgcaayxz2OFuqMdO5SwGAyAlfelr93Flke/QyQfuiYBSPPjn2NISSLEJBILWWwcagOmMASdNAQyQErC3Xf8O6csfzNPPXIjZ6y4Mt8pnEb6+iNbNtzI8vOvpbs3y/13/V+aZ84lxpRIJj/mmUK3b8wPno4ESGM+fCYhxEgaIkkIvOAlr+MLH2/hvX+7ine+Y/lkvX2HxABYkiRJkiRJkiRpnCRJUgqA586dS21tLX19faV9gNvb2+np6Tns8Ld8NHN5GDt8FHMC5IgxH6YN9REnxEIH8EgHGuU81uMjjx3svlRu46M3FX4fIRKSJB+6hpBv+i0EwaSRmE9/8/lszAfBIeSHoWeKncNJhsqawJOPfY8Ys3R1wyPruoHAN97/VmIIPPbgV9i1ezczZ88FIJAhklIarF6YKp3vNo6khV2FQ1LoAqbY8Q6ves27+GhbA8/s2p5Pp49RBsCSJEmSJEmSJOm4NVYH7LNZb/r06cyePZt58+bR2NhIW1sbaZoyODjI4OAg9fX19PT00N/fT5qOHsyGEEiSfMBU/r04wnnkV5IkhCRh374UAjTVBzp6sqS5DE1NSSkLjjESYyRN09KI5okIbMsD6yPpdNbU9KWv/poP/fWfEZMAaWHacoyEGEkIpCEhpCkkgUBhzHgEQrH3FyAUenUjaZojCflx0TFmqJ5eyakLqogx8tZPfIPt/+tqYoQ5c+aWxpanMRZGPufnPhenTUN+tHQSip3A+T2AYwJJLHYDw1nnLmLlVbfw9j9aMVlv40EZAEuSJEmSJEmSpONWZWXluK9ZVVVFc3Mzc+fOZcaMGWzdupWBgQFyuRy5XI758+czZ84c2tra6OzsZE9rN7lsJXPnVNOXy9CxL8Pik2uYPq2ampoqKisrqajIRzrlgW+SJGQyGSoqKvL7+Qa446Fe0jTwkgun8+ATvextD7zk0lpCbmhf3uJ1DA4Oksvl9guhDxQIlwe7IxUDtmLA3N/fT3d3N52dneP0zuq5bstj38iPfk5jqbN3KIQthr6F4vxUZmLI7w2cbxTOx8CB/Oa8aSEWjvmmXQZ6+4FphCQlSRJS0nxAXHhWsS6mId//GwKh9P/nkI+WY6EjmUASIjGNkOT//53EwIoVz+OLn27l149sOJpv3WExAJYkSZIkSZIkScetsTpwn43KykqampqYO3cus2fPpqqqisHBQdI0ZWBggMbGRk4//XSmT59Of38/PYODVAEVCVRPm05ldQ3V0yqoqp5OTXUVmUxm2PrFEDiTyZQC4CRJiAHe+NZAyGWIRN6SzRKrK0nTQSoyVcM6f3O5HNlslmw2W+oELioGucXbI899oJpsNktnZyd79+5l69atbN26lfb29nF/j/Xc86Uv38M/vP9PAQhJIcjNZ7D5TttAPhEOha7gQkAbCfku3BAJKYVj+UQ4KYxvDgRiiIRMIMYcIeTHnodQ6CqO+ai4uN9vjIUu4xiJIQCBEAudv+RD51AYMx0I5NKUJCT5MDoGBtM+vva13/K2t10wGW/lQRkAS5IkSZIkSZKk41Y2mx33NUMI1NXVMWfOHObMmUNtbS3d3d3EGOnr6yOXy7Fw4ULOP/98mpqahoW5xa7e4rjnsRTHQpfXHuw5wLAQuBgEj8cI6DRN6e7uZufOnTz55JNs27aN3bt3s3XrVvbu3fus19dz33/861/k+3VDHBpJTqHzN0QIaaEHtzCTuTCbubibdb4LOH88hlDoIM53A4c0JYaETIj58dLEwlhoyLcRQ7G1OMS0tN8wSb7LN00DheyXSCTkAiGJpf20E/Jj1EMhpH75776O8P99/6i+f4fDAFiSJEmSJEmSJB3XyrtZx0MIgZqamtIY6MbGRvbu3Usul6O/v5+Ojg5yuRyzZ8/m1FNPLY13fjbnK/9+MMXAd7z2/h0cHKS1tbUU/j744IOsXr2ajRs30t7ePiEhu557Xvny5xHJUAxkI/muXkJ+5HISIQeFztvCnr+FsDfmZ0FTTINDjIQYCl28aT4QTiKZTCCJCTHk8ssCFMdEQz5ATgp7/g7rYE/zGXGa7yImUBgFHSHmICb5cdAx32mcCfCPf/8G1m3eeLTfxkNiACxJkiRJkiRJko5bMcZxD4Ahvw9wY2Mjs2fPpqmpiYqKitLY5X379tHa2kpXVxfZbJaqqqpxPffBHG5gPJY0Tenr62P79u1s2LCBhx56iFWrVrFmzRq2b99Of3//hIzY1nNTJCEUQtQQ8923EEnzzbpkk0iSxkIYHEiL3b8xLWbEhBRyCSQpxCSFNCEXIFMIhk85uT5fFAMnzqkpJr2QkB8XHYdGPFPo7S3+b4T8Xr9pvhOZkJQ6jAn56yTkh0JHAq997Yt5/LPPkMbx/W/HeEgm+wIkSZIkSZIkSZImS4yRffv2MTAwMK7rZjIZGhsbmTlzJjNmzKCyshLIh6bFPXLb29tL5x2vbtyjJZfL0d7ezhNPPMF9993Hbbfdxm233caqVavYuHEjfX19pGlKJpOhrq5usi9XkywhJeYTWCKRtPDLB/m8txDGppBvvS326xZHORdqQ0ouxHyQS37j4EC+Ezj/ixzkg9w0n/vOaKzkodUbCDEdWjOSXzOW7QVcCHQjhV8Godg6nJZuxwhpKE6ujhBy9Pbl6Ni+/Si/k4fGAFiSJEmSJEmSJB23kiRh7dq1bN26la6urnENYotjoGfOnElNTQ0hBEII9Pb20tLSQltbG/39/RPSgTyRstksbW1trF+/nrvvvpvbbruNn//856xevZqdO3eW9hWuqKhg1qxZnHPOOZN9yZpka9dszU9TjuQ7agsjnkNIgFD6TpIf+Ty0IW/I7/8bIRBKa8SQQkzy3cLFsDi/wTAhyT9ECPzVBz5NsUE3FmpCiCRJSiAWTpP/dz6kSeGsST4QjsUIuvi8fLAakvx11DXNYMGSk47SO3h4HAEtSZIkSZIkSZKOW2macvvtt7Ns2TKWLVvGokWLqK+vJ0meXQ9dCIHq6mqamppobm6mrq6OlpYW0jSlv7+f1tZW9uzZQ2dnJzNnznzW+wAfDTFGstkse/bsYf369axatYp7772Xhx9+mB07dpS6mYt7IM+fP5/ly5dz/vnns5W7J/nqNZnOOGshH/nUv/HBv/lzQkwJId+1W9zTNyUlFPf3LYW5kRjy9/MhbiHJDYUQudCZm4TCAOcYijsHl8LdDU9uzge5hSVDjMSY5EdQxwiZsnNlyAfIMSUh5Ec+J/nAOOR7mCFAGgMf/eRnJuNtPGTH/n9NJEmSJEmSJEmSJkiaptz805vZvHkzLS0tdHd3s2TJknEJZauqqmhqamL27Nk0NjaSJAlpmjIwMEBLSwu7d++mra2N+fPnH/MBcJqm9Pb2smPHDtavX8/999/Pb37zGx577DF2795NLpcDhkZfL168mBUrVnDRRRdx9tln89U7DYBFKTj93StewIUrzoc0ljpq0zSQhGJvcH7fX2LIb/hb2Eo6hnxtaRhzgDRGCEmhSzdXbP/Nd6FHoPSc4jL5jvtYOG8SIykx3wEc8qOiUyAkSWkiQHEk9fWf/Nej80Y9S8f2f00kSZIkSZIkSZImUJIkrFmzhra2Nvbt20d7ezudnZ2cfvrpzJkzpzS6+UhUVFRQX1/PnDlzaG5upqqqimw2S5qm7Nu3j+3bt7N37176+vqoqakZ51c2PmKM5HI5Ojo62LhxI2vXruW3v/0tDzzwAOvXr6e1tZU0TUmShIqKCubOnctpp53GRRddxAUXXMBZZ53F/Pnz4c7JfiU6ltxyx93cckf+lwLe+ge/x9JTlhJCIXgt7NWbz24jpPlu/EhKsRE4AiHmA9wQ8h3Ed931IDEm+a7hwmjnkMl3+0aAkA95SfL7BReD5FxhwRBiYdxzoDB4GkKgu7ebT3/2y0f7LXpWDIAlSZIkSZIkSdJxK0kS+vr62LRpE93d3bS3t9PW1kZLSwvLly9nwYIFzJgx44hC4EwmQ319PbNnzy6FyT09PQB0dHSwc+dOdu7cSUdHR6lD+FgSY6Snp4fdu3fz9NNP8+ijj/LAAw/wyCOPsHHjRrq7u0nTtDTy+eSTT2b58uVceOGFXHDBBSxdupS5c+dSXV092S9Fx7Bvfu8npdvvfedVzGyeme/mLWzeGyk0AscKiGlxY97Ct3xomyHhrrt+S0K+mzfGQBID+bnOAUJCKIyZjiG/v28kFjqOC5OoC8FvGhJCGrjltp/ywMOPH/03ZBwYAEuSJEmSJEmSpONWCIEQArlcjj179tDX10drayu7d++mpaWFc889l1NPPZXm5uYjCjKnT5/OnDlzmDdvHk1NTbS1tRFjLI1T3rZtGy0tLcydO5dp06ZNwCs8MsWu382bN7N27VpWr17N6tWrWb9+PTt37mRwcJAY86N06+vrWbp0KRdeeCEXX3wx55xzDosWLaKpqemYH22tY8vnv3xD6fZb/+DVLDnlFCDmw1wiJPm9fvNdv8URzpALKV/65vdZfkpDadxzDJEkiYSQ5p8bA2nI7wNc7PGl2EEcAiGNpEnCRz/x3BjzfCD+WydJkiRJkiRJko5b06ZNo6qqiv7+/tJo5r6+Pvbt28eePXtoaWmhvb2dZcuWMW/ePGpra0v7gh5KV3B1dTXNzc3Mnz+fE044gW3bttHX11cKnDdv3syuXbtYtGjRMRMAZ7NZ9u7dy5NPPsnq1au5//77S12/7e3tpbokSWhoaGDZsmVccsklXHLJJZx99tksXLiQ2traSXwFmgq++b0fD7v/wff/OSEm5MPcmB8PHQIpgSRCtj9LiJG0EOpGYOGJVYVwtxAgx0AuBAKhNEqaGPnWd77HUxu3H/0XOUEMgCVJkiRJkiRJ0nGrGGA+/fTTdHZ2EmOkr6+Pbdu20dPTUxoJ3dbWVgo3m5qaDnlcc0VFBTNmzGD+/PnMmzePurq6YWHz1q1b2bZtG+3t7Ye17kTp7+9n586drF+/nlWrVrFq1Soee+wxdu7cycDAQKnrt7Kykjlz5nDGGWdw8cUXc/HFF3PWWWexYMECqqqqJvU1aGr66Kc+U7p92ikn8aY3vJ7i7sAxCaRUkAKESEpCAkyblnDvbx7hskvOHdofGCDAgw+t5ubb75qEVzLxDIAlSZIkSZIkSdJxq7m5mSuuuIIHHniADRs2sHv3bgYHB8nlcrS0tNDX10dHRwctLS20trayYsUKli5dysyZM6murj6kLuC6ujrmzZvHSSedRHNzM21tbaRpWhoDvWXLFlpaWpg3b96kdgF3d3ezfft21qxZw3333cdvfvMb1q1bR0tLC7lcDsjva1xXV8fChQs566yzOP/88zn//PM5/fTTmT17tuGvjooNT2/ho58cPqo5hGmFPX0TQqFLv7svx/v+/NM8dN9XWf3oav7np1Mz8B3JAFiSJEmSJEmSJB23GhoaeOkVL2XWrFnMmTOHRx55hC1bttDd3U2apnR1dbFhwwY6OztpbW2ltbWVjo4Oli1bxoknnsi0adMO2LUbQijtA3zyySczd+5ctmzZMmwM9JYtW9i5cyeLFy+elAC4uN/vli1bWL16NatWreL+++/n8ccfp6OjozTyuqqqilmzZnHaaaexYsUKzj33XJYvX17qiq6srDzq1y4VJQnEWNjdN+b3AK6bnqG6po6PfOqzk315R5UBsCRJkiRJkiRJOm594r5PcM5N/8MCYAHwmhBg4cLRizdtgk2b6Pze91h1BOeaDbwHYPHi4Q/cdx8d993HrUew5nirAJ5f+GL+/PzXSLt3w623wq238jjw+KEsfM1J43iV0v7+5F2Xc/cvVxGTAWKE/kHYvquGq686Y7Iv7aib3EHykiRJkiRJkiRJkvQspQSe/5KLCbGSmuoMe1uaufqqiyb7siaFHcCSJEmSJEmSJEmSpoRLX3wJAOdfOskXMonsAJYkSZIkSZIkSZKkKcIAWJIkSZIkSZIkSZKmCANgSZIkSZIkSZIkSZoiDIAlSZIkSZIkSZIkaYowAJYkSZIkSZIkSZKkKcIAWJIkSZIkSZIkSZKmCANgSZIkSZIkSZIkSZoiDIAlSZIkSZIkSZIkaYowAJYkSZIkSZIkSZKkKcIAWJIkSZIkSZIkSZKmCANgSZIkSZIkSZIkSZoiDIAlSZIkSZIkSZIkaYowAJYkSZIkSZIkSZKkKcIAWJIkSZIkSZIkSZKmCANgSZIkSZIkSZIkSZoiDIAlSZIkSZIkSZIkaYowAJYkSZIkSZIkSZKkKcIAWJIkSZIkSZIkSZKmiIrJvgBJkiRJkiRJkiRJz0V9LGpYy+KKSHZgKfd0NZICMMiC+kc5tTKSDpzC3V0zyD3rc6UsnHkTr69vJ+15BV/cvYj+UaqqMl3UJZBLa2jPZQ7rucOE3bxs/o84pyLDM3uv4YddlQe9wpD00pTJQqyiM1tN9jBf4XgxAJRJRWMAACAASURBVJYkSZIkSZIkSZJ0BPpY1PhTXlSdZaDr7fymFAAPsKDhVl5U00+2+2ruHZcAGCqSdhoqdpDLDI5RMcDyuZ/j96cP0tl+Lf+658TSeTNJF9MzbaSZQ41lU6oz+6jNZJgWDu0Z0+ru4H1zfksm+1Ju2PQinoqHeKpxZgAsSZIkSZIkSZIk6SjIUl/VzoxMP1UhQ89gE7sGq/cLh0PoY1Z1Gw0hoTc7ek1epCrTQ02A9mwN1ZkepoUIRELSR2NFNzkq6c5WsbnlKj7XlkKcRj+D1FUMkCGhL1dDfyyet5+GTBaopD07h19sex/3ANlcWfdv6GdmVRszMimDaQ0dg4205RKSpJf6JEsACANMr+imMQYGctPpPcpBsAGwJEmSJEmSJEmSpAnWzotO+jyXV/eVHZtGV+9L+eHO5/FUDmCQ+Y2/4MqZ9zM7KXb5VrOr9d18obVpxHopTXW/5Jq5d9PMSVz31JVcNv8LvLBqAIC6+q/xZ/UQc5dz/TMv5JSZX+Pqxh3kuq/iYzsbeNH8/8dFldPZsOt93Ng5jUjKwplf5+1N2xnseTP/tKOBly34MhdUVPLErr/km52VVFQ/ylvm/YRTKspfQzPXPflnzG36Lu9qfooEIHM3rz/5bmAOD21/D//dk0zMWzoGA2BJkiRJkiRJkiRJz0pl7Y/5k5OrC/dSqipGjmnO0Nb9Eu5on0tLtppcspcVM3/CsprbeWXTEj7XMpOa2l/xptn30kAte7pewQM9tVRWbmVuOnIGc8qMul/wxrn30MwpPLDz9UBgU8flzGv8OUsrcwz0X8JvexpJ0xP2v9g4m4e6FnLBjI0srt9EXefpdIadnF23k8AMnuhYDLTs97TFjXeyuCJHa+ebuL2zgZDpYO60rUCgq3cFq7oHeF7tFpL0NNa0L6GdKrYOHuL86HFkACxJkiRJkiRJkiTpWUgJoY3GygPV1LGm/XSW1m7hxJpdTAtZYjqNSDszqvcCDSypX00DkOu7gm/vPLcQwS4rnaMoM+1O3jJ9J/XxDO7ecSU/780Hz0/tu4DG6XextDLS37ecn7UU9wBOKVdNws6O89jetJEFNWtZVnEaq6se5/SKLDF7Dqu7q8Z4lRkgpaZqGydVR/YOzGRN6xkAdPYu567KZ7iwdgshXcBDrRe7B7AkSZIkSZIkSZKk56KEga5r+NTOk8kC0M0l8z/DK2r6SxWh4knesODbLKvIkc0toDVbTUXFQGHP3CwwQF2mHwj0D8xk3wHOFjLbaSBhoH8xG/qrOZKcNQ4u5eHeWhZM38Dyuja6qtdQSyWtnWfyTARGadzd2PY7PFJ9C8ur7+H5xWbnuJBHd72ZH3TVHsFVTIyjO3BakiRJkiRJkiRJ0nGlH6itfYzTKgaJ2RfynU3X8vktb+aOnull4W017dnpRCLTqncx6wCTk3N9L+Kh/lqqpv2UP5z3MPNLiWcgRoBICAeLhaezpuMseunnxIbbeUFtGyGewiOdswpdw6Ocd3ApP9zyp3xq41/wle1v5+fdJxLDZs5s3Eg9FM4NhHS0/PiosQNYkiRJkiRJkiRJ0oSpBrK5arJAdWYzZzc8TmPyJJfWtZWC0kYqeKrjQtrqfkZz9R285cRuHumpo6JyKzMHL+NbbTNK68XcSdy+Zymc+C1W1PwPbzkh4YYdZ7MjZujMNRDZRW3dL3hzcgI9/cv5YducUa+rt3s5j2cf4LyqdcwjYbD3XB4eGDu6Pan5v3lJxVye6W+iM41UhxyQkKZVZIHBXAN9QF3mEa44YYBzc3N5cO+5PJOOueSEsANYkiRJkiRJkiRJ0oTq676YX3bPIxueYfms7/LS2jrWd88bNr55oPcSvrXrZWzKZmio+TkvnPnfXNrwJDUxs996aXYhP97xB6zJJtRO/xFvnbeWuSHhmbYreKT/BAaTZzi17m6W1xxgmHQ8kYe6TizsENzA0x1L6DjAaxhMc8yuv52Xzf4Wr517I5dNb2Vg4GLuaD2FHiDXex4/7zidztjFnNpfs7x+IzMnoRXYDmBJkiRJkiRJkiRJR6CJX275O3653/Fa7t32Ae4tPxSbuXfHH/NwRQf1YRqtg9PI8mJuG/a8DHu7LuO/ui5hekUX9UmgL1tHe5rvaX16z7u5fk9Z+eBSvrvx7/hu+RKDp/LDLafywxFXtN9zAUjYvPdaPrJ3lJcW5/HjjR/kx2WHdu57HZ9u/33qMj1MT3KkaR1t2cqhkdGxkYd2v4WHdo+y3lFkACxJkiRJkiRJkiTpKEjozTbRe9C6DD3ZRnqOwhUdtlhBV7aBrsm+jgNwBLQkSZIkSZIkSZIkTREGwJIkSZIkSZIkSZI0RRgAS5IkSZIkSZIkSdIUYQAsSZIkSZIkSZIkSVOEAbAkSZIkSZIkSZIkTREGwJIkSZIkSZIkSZI0RRgAS5IkSZIkSZIkSdIUYQAsSZIkSZIkSZIkSVOEAbAkSZIkSZIkSZIkTREGwJIkSZIkSZIkSZI0RRgAS5IkSZIkSZIkSdIUUTHZFyDpueP7Z+3hVw1rJ/syprwbbjpzsi9hynv9mtm86EHf54l21Zv874UkSZIkSc/W69fM5j0/9ecYkqRDZwewJEmSJEmSJEmSJE0RBsCSJEmSJEmSJEmSNEU4AlqSJEmSJEmSJEnSBOhjUcNaFldEsgNLuaerkXRSriNl4cybeH19O2nPK/ji7kX0H/JzI5WZduZP28WJVV1UBYgDS/hVV9MkvZaDMwCWJEmSJEmSJEmSNAH6WNT4U15UnWWg6+38ZtICYKhI2mmo2EEuM3h4Twx7uXzBl7i0cuh52a63cY8BsCRJkiRJkiRJkiSNJlJVsY8TKnvJxFp29zfSHfPHqzM9TAuQS2voSou72+aoreijgsBAbjq9MX80JD3MqdpHXaikfWAme3MH3g03k/RSl6QQq+nIVRBHvbRpbO14BbdnZzKt4bu8sKZ7/F72BDEAliRJkiRJkiRJkjQpQrKHS+f8mBfXbaGKFEjI5c7ivl2v4vaeKuY1f4u3NW5noPstfHbHqXQDmWn38s4FtzMjPZ8fb3oNv80NsKDpZ7yu+QGak1x+4TiHzftew3dbFtA56plTFjTfwNubtpL2vpHPbjuL9lHr6lnbdiGQ46zaAwfKx4rnxlVKkiRJkiRJkiRJmmIGOGP2d7mibgth4AXcuuOdfL/lfLoza7j0hNu5sCJhc8e57CWlevo6zsgA5FhU/xhNZOjpOZvf5qCm9le8adZ9NIdFPLLnHdy48zU8kWtj4YzvcmXDsd+xO94MgCVJkiRJkiRJkiQdfck2zq7dQ2Aae3pOojsMQnYBO7IJIVnL8tpe0v7TebivBsLjLK/rJoQdnF23m8Ac1ncsBAZZUv8w9SRk+09hYy5HFY1s6Z9JpINF9ZvGOjl7O1/OD3ddzY/aTqLnaL7uCeYIaEmSJEmSJEmSJElHXUh6mB5SoIcTm27g9cMfpbaiF5jJox1n8KJpD7Og/ilOyO1maSZHOnguD/VmgD7qMv1ASsW023nNCSPOkeka8/zd/Qt5pH+8X9XkMwCWJEmSJEmSJEmSdNTFXB2dMQOhjg2738V/d1eWPZojE2sA6Ow+m6fSR1hW/RC/N6OV6VSzs+MMtkeAajqy04kMMtD9Zr60+2SGMt1IZciMdXYaah7nnGl9xOxJPNA5k6mSBRsAS5IkSZIkSZIkSZpQldNv5n0nVxML92PubP5t63ms7jyRMxu3saT5Z7wwOZOd6QANVTtYWrubLbvewu19EHMLWd01izManmF+NRDP5eHORlIAKniq4wL21f+cGdN/yatnXMaj/ZVUV7Qyv3YNs3qv5IstM0e5osiM2rt5adNW0t438tiYAXAPy2f9knMqc9RV9wGQqbmXN89bS5o9k1v2nMK+8X+7nhUDYEmSJEmSJEmSJEkTKCUku5iRDB2JyRKWhkqe3PsGfsTtvKzhUS6etbrwaBNtfSvYlQuF+xU81XEu+xpuYwYJfT1n81g2lNbq772Ub+2CV8/8DYuavstiAKroGzyVtQM1z/LaB2muWc2p1QOlIyGzgaW1kA7MY9qzXH0iGABLkiRJkiRJkiRJmgBN/HLL3/HLA9Y08sieN/Do3n6aKnuojNV0ZmvojWFYVa7v+XzmyeePsUaGPZ0v4D87L6W2sou6kNCbm05XLlPoEoan97yb6/eUPydh0953cf3eg72GRu7a8nfcdbCyY4gBsCRJkiRJkiRJkqRJFWM1bQPVz3KVDN2DjXSPyxU9dyUHL5EkSZIkSZIkSZIkPRcYAEuSJEmSJEmSJEnSFGEALEmSppRAfm+QMGKPEEmSJEmSJEk6HhgAS5KkqSWO8V2SJEmSJEmSjgMGwJIkaUqJYXjiayewJEmSJEmSpOOJAbAkSXrOGy3kjUkhCP7k2DWSJEmSJEmSNNVUTPYFSJIkPWsRCPmQt9QBfD/wE4jFGdCFGkmSJEmSJEmayuwAliRJz3ml0LfwLVwX4CdlBSsphb/BFFiSJEmSJEnSFGYALEmSnlOKo5yHjXQu3ryHfNhbPByGauLHh4fEkiRJkiRJkjQVOQJakiQd+74HPAq8H5heOFYc6Vz8vrJs3PNo+gtPCybAkiRJkiRJkqYuO4AlSdKx7RPkw1+AT+0f4IafhWFdvwAxjqgpdgKPqJMkSZIkSZKkqcYOYEmSdGz6LoQ1gRgjIYShUHdl/ismcfjevuU1BaMFwfH/RvjrCb52SZIkSZIkaQrIxRx3dt7JQ10P0ZntnOzLmVLqK+pZUbeCF9e/mEzIjOvaBsCSJOnY83Ggb/+RzqWQt4f8KOiVEFeOUVNm2P2u/P7BjoKWJEmSJEmSDuzOzju5N3cvdafVMaty1mRfzpSSDqbcu+Ve6ISXNrx0XNc2AJYkSceO70BYu3+AO1L4VCB+uFDzIeD6UWpGCYJLrgc+bBAsSZIkSZIkHcjqrtXUnlpLb7aX3EBusi9nSskkGWoX1LL6idXjHgC7B7AkSTo2/BOwZuhuad9e9h/lDOTHP0dKn2YOFhrvV/PZwvMlSZIkSZIkjaoj20GoDORyufzP0vwat69cLkeoDHRkOw7zn8rB2QEsSZIm103A2kMr3W9P395AnB7hw8B1Y9SMNRK6pazGTmBJkiRJkiRpdPHQmi90BCbobbUDWJIkTZ5/ZL/wd7QAd6RSzacKNTHAB49gnev94CpJkiRJkiQdSCROerfsVP2KE5QA2wEsSZKOvm8D6wrducSxu3TLjFmzkvw+wBUHqDnQOjlKvxIXCBP2oUuSJEmSJEl6LooxTlin6vFuojqr7QCWJElH18eAdfmbh9Xte4Aa+gvf/+EANSOUaj6C458lSZIkSZKksRRGQI/bF2fy5ud9gr84cQ5h2PGzueqST/Bn85qf1fpNCz7NnW/8AOeTv19ReTovOPla/uqST/DPL3gXl4Th9bW1l/P2C/8v//H73+cHV36Vf7ngdZyVDD0e6t7Lt9/2Za6aFsb3fZjAYN0AWJIkTbwu4EZgJYTsYYSzhyh+ovBJKQDvH6PmQL9NlxZq/FVGSZIkSZIkaZhxHwEdFvOy572PNy+YTWbY8dN4+cXv4w3zmkiOdG1W8KeXv4Hu9d/ioRSI03nt79zBzW/8IH+04hre+4IrOTuUP6eBt77ym1y3/HSqezfyREcVF7/wa/zsDz/A8wp1acd3+VHb5fzNxS+m5jkyAtoAWJIkTax9wL9AeHzsUPdQRp0ctBN4ZaGTt/YANWOtc/1BTy9JkiRJkiQdnyarZyKZy9KGRcwI01k0+/f4g8Uv55zqygM+Zfr8/8XVM+/lW+ueKfR89HDrbecx95OLef7P76V3v9fSxY9vvpgzvvJqrr7t//D+n/0hL//ON9h38h/xthNqCjW7+cFDdzD9vHfzuqpxfo0T9N66B7AkSZoYLcCtwIb83ZG/zfas9v0dq6YfqIb44cLewIezTgyOgpYkSZIkSZJGiIVRyuO44NDNWPZTw/IbMVI162/4wbsuZ+P6hDPn9LEnnsSy+k184cYr+Zstu0dZuIYXLXsZM7f8M7f0D63b3r8HgIbigRgZejk5tnVtHLZKT1cLnVRQmQy97u6tt3Ev/8prTm7khg37nsWLH84OYEmS9JyxoacH/h3CE0e2p+8R1/xT2YE/P8x1ilOk4+GNn5YkSZIkSZKmstJeteP5xSEezyzjtN6P8MLPX8zFX7iAax5p4r2v/jsuD6M9dzEXnTiPrTsfpv1wz1v6OoHfv/gNnN52Kz/c3jt0PPcAj+2t5+wF51E9niOgxzNYL2MALEmSxk02Rj61eTPXbdwIuaHj4xryHqzmukJN89jXOeoewzcUFyzUGARLkiRJkiRJeRMRAI+27sjjucf54X3/w7YUSHdw86ofsKH5xbxiRuUoz13IiXXQ2rWN7OGcs/RVz/Mu+BqfPWcf//6DD3LzYNlj6V52dQ8ws34+VRPxPowzA2BJkjQuBtKUd6xbx+qurtKxQwlwRxqXmgHyH6BWjn4do4lPjaiZwA9gkiRJkiRJ0nPFuHcApznSCEnIjHgsQyZALs2WHWtld2d/6f5g5y5aaaC5pmKUtQvrMnLdsi/Guq4azj/3Bm76nbn85KY38oEtLfvVJCGQpum4vhd2AEuSpGPWJzdv5trHHyfl0ALccocUzh5uzT+WdfC+e+x1Ru0oTkbUYCewJEmSJEmSjl/FPYDH7Svdzq4umNO0iMqy40n1Qk6c1ktLZxvZ4j69yRwWNFaVaqoa5jOHNnZ3Do6y7tNs7ojMajiJzCjnLb4a9ntsGued802++6ol/OI7r+c9T2wsnL/siwXMq6tk975n6B/P92KCulAMgCVJ0hHrzuW4au1aHi7r+h3NhO77O1bNRwo1c49wnVCosRNYkiRJkiRJx7Px/vlYXMuP161jxll/xl/Nm0sGIDmdN73kbVzQdxc/3tg+VJss5XWXvY1lCRBO560veAOLdt7G/+wbHGXdLdyzeRMnzjuf8h8JZipOZHHdEhZUVxGoor5uCUtqT6QxAFRz9jk38L0rV/DYre/lY9sji+qWsKR2EXMrytauuIhzZ7WwetNj9I/rezGeiw2pOHiJJEnS/j6+eTOPHmTc88hjR71mEMgAK/N7Ax90nRiGgt/Ch8SJ+i08SZIkSZIk6bkgEsc5qOzn3nvewweav8SH3v00/7tnH9nqZmq6f8MXbvo/fLWnrDT3EPf0vJNb/vL/I5vMZm721/zjDR/n3tzo69736C1sft7L+f3qz/C53hyQYfH5N/HYay6lslD18b/ewMdz93PdP1/G9R3zeNX5r+LkqkpOfu3PeVVprS5+8s2FvGZNPoxuXvQKntd/O3+yqXNc34uJ+tmjAbAkSTos7dksf/LEE8QYj42Q90A1HwM+XLj9NuCro68ztCAQRg+CA8EwWJIkSZIkSced4SOUx0l2FZ/9wXl88ebTWTFjHhUDG3msdSPt5TURiN3cf8cVvPsX57G8dpCNex9hWzr2sn27vsiXN/2Ct5x3Fl/69cMMkOWJey+j+t6xnvEMH/9KNR8/0LWGRbzlghew7b7Xcsvg+P6EcKL2ADYAliRJh+yfNm3ise7u/Y5PZMh7KOc6UE38WIQPAovGro8xQjWlsLcYBJe+YyewJEmSJEmSjlORCRtVPND3OPfteHzs8wLEHO1dv+WeA+9CV6jdwJdu/SyXXnYF5/AwD4zDdWfqfodzB7/Gdfc+wMC4j8Me5/UKDIAlSdJBtQwO8udPPHHQuvEKcMsdSu0Ba7JADmImwkrgujGu421l+/4Wr7W8E1iSJEmSJEk6Do3/COhDk/Y9xQNPJmzNcljn79n1cd78/fG7jlzH/+OPvz1+65VzBLQkSZoUH9u0ibXd3YfUwTuaI6kZ947ij5APf4H45gg3jlIzv2wdg2BJkiRJkiQpL07cqOID6W/9DNd89aif9uiaoLc1mZhlJUnSc93OgQGuWruWtSNGPocQ9qsdLXg95mo+Wbhzxhg1sWyd4tjnYugbR6mRJEmSJEmSpriGigbSbEqSSYZGQfs1Ll9JJiHNpjRUNBzmP5WDswNYkiTt56MbN7Kup2fYsQnv0p3omp6yTt6VlDqCAfhdSvv9Duv2Lea9I/YGDgT3BJYkSZIkSdKUt6J+Bb/a/SsqZleYKo63LGR3Z1lRv2Lcl/YflSRJKtnS38/fPvVUqat2sgPckY645iTgWiAlH+CuGgpwY4xwMUPjVgohb+k77B8IpzhHRZIkSZIkSVPeS5teSmgPPLjtQTqyHZN9OVNKQ0UD5zecz+WNlxNz49tsYgAsSZJK2gYHgaMczh6gZlz2GF7J8G7dlQwFuQAvLKwz1r6/owXBkiRJkiRJ0nEg5iJXNF3BK2a+YtSt2HTkYozkcjmy2ey4r20ALEmSgHzOeU5d3QFrxj2cPcKaQ+ooXhKI15QduxviHaOs87IR6yRjBMHlNYX7oz0mSZIkSZIkTSXZbHZCQkpNHIcXSpJ0nIsjvn/jzDOHHjvCcHbSa1YCVxVqYsjfv2OUdf6hrGbkOqN0BA/dKdS4D7AkSZIkSZKkY4wBsCRJx7mR0WcE/uKkk4YfOxZD3tFqTicf9lIIcH8OXD/GOssZevHFLX5HCXkPqUaSJEmSJEmSjhGOgJYk6TgUQyCMDFHLbl9UX39oY5YnuWaYlYWRzMWk9rriE4eXldZ5DOLSCOcxPOQNZd8p6wQ+QI0kSZIkSZIkHSvsAJYk6ThUDFLTsmMBuGrt2tL9ry1blj9+hF26I41XzX7XcRbwoeIB4KeUuoBLNWP5Yb52zHHPZYcPOBJakiRJkiRJko4RBsCSJImUofD3mrIQ+L3z55duH1E4OwE1w65jJfDGsnD2l0AVhDMDTD/MdYCYHDzk3a8mNQiWJEmSJEmSdOxwBLQkSVNdCBDjsInF5b8BdtXatfuFu3+0bh3/tWwZL2hs5Avbt4+59KSNhD4PwmvKxj0Xa15auJ8CSWEkdHnn7scgDo5xrpUM3z+4vGbkOodYI0mSJEmSJElHmx3AkiRNcWkhOC1Gk+URZXm3Lwx1xQ6Wha3fKIyCHllT7lBGQo9bzYcivLasZrQu3WIQG0fU/D35kHf+GOf6WPHOiO8j1zlQjRsDS5IkSZPOz+WSJOl4ZgAsSdIUN/IP+0i+67d8v9/RwtDyx98xb97RDXlHq7mQfHhb3J53rJAXDh7g/jHD9gkuGYSwfWid0jlGrDPq3sAjayRJkiQddcXgNxLzk4HGeFySJGkqcwS0JEnHieKPOd62bl3+/iGMYn7fhg38+2mnccWMGfznjh2j1hzpSOf9ru9ANf/A/iOdu4GfAF3AOcAFhRdZNut61HC2vOYdEP9zxDn/H/DhMdYpXmvxOkarKZ+1LUmSJOmoikRCGohJHPbbsMVjkej2LZIkHYYkl2PpnXdywkMPUdXZOdmXM6UM1Nezc8UKnnzxi0kzmXFd2wBYkqTjRIBhXb2l4wcIXjtyOSD/i/M3nHnmqM8/lHVGcyi18eIIr2ToN/cjcN2IGiJsAW7OPx6SQPybCNUcPMA9eYzr+QiEvx9l39/kEPYGLtQE9t+jWJIkSdLEK//cHq7Lfy6Pp0fCmwohcNln+FJYzOif7yVJOt6deuednPPAAyydPZuq2bMn+3KmlIFcjicfeIAAPP7Sl47r2gbAkiQdB4pNqd8480yuPkCIW6ovC0OvWruWr595JgBvmTuXb+3atV/NoawDh9kt/GGGAtwkDhv/fMB1IvDxQg2x1D1cWqf8XDEQ3x7hqyPWyY2oGRnyjhUoj7weO4ElSZKkSRHSwijoGPN/N1gfideXBb8hEKsi8QNDHcMGw5Ik7W/u6tUsmTWLqo4OGByc7MuZUqoqK1kyaxa7Vq82AJYkSUcgBCgEpJkQyMV4WOHs+596in9esoRXzZxZCoBH1hzKOodU8wLgZYUfshDhv4CNR3iuCOEjhZoa4P1AMmJc8+Ix1rm+EDoX0vNhP/QZbY/hsWokSZIkHTWlMDcZ2gO4/LN+8bN/jJEwEIgr47DJPWF6IL47EhvHCIbLPvMbDEuSjgdVHR1UNzeTDgxM9qVMPQMDVCdJPlwfZwbAkiQdB0LhBx4R+NqyZcNGOR9KqLqzv790+4Yzz+TqdeueXcg7Vs3KEZ2815V18h7muUYKfWHoN/5XFg+OqBltnQOEvAfdY1iSJEnSURWTMfYALg9+y27v93hPJPxL4TYRXgucN/T3gBhGBMOj/D3BYFiSNOWM0kyicTJB72ty8BJJkjTVfOmMM/Y7NlqoWu6qtWtLmeZrZ80ateZQ1hlNuDzsH8p+ZETNyHXeA3yI/PPO3b/mgB9KC+c66A9lVo5SE0d8H2WdEMN+NZIkSZImVvFzeHF0894H95b+jlAMfou3S8852OM/yv9dJX4uDo2VTmLps34o/AWmGAwXb5cej0N/Rwn+lqgk6bkq5tsz/Br/LwNgSZL0rBX/4K9JEpIQDjvA/eDTTwPw+tmzx6wZy5jh7ErghcUHho6NGeB+uPCcE8qC19eUPX4m8L+G7o75elYeQk2Z0fYPPpIaSZIkSRNj5B6+6z637siD35GP74V4fSQ8Unh8tOD3YMEw+z8+8rYkScekQgewX+P/ZQAsSZLG1deXLSvdPpQAF2BjXx+Q/wBxw5lnHrD2oGNhXg7xw6MEpivHWGcBsPIQgte1EE4orLOSUjg8asi7EmgZ+5pDCPAfI841VrfvYdZIkiRJGn/lXcDjEvyOeJwfBLjuMIPfsseLIsOD4dH+zmAwLEk6ZkxUB3DVQnjPR0m+fhOZb3+d5F+vJ7z5EmJyKM+vgPf/mIrvvDdfX7Gc8OM1ZN674ADPaYJP/YzM36wYOjb3+YTrv0Dmpm+T+ezfE86uG3osWUL45p0kbznRDmBJknTsK34A+JdTTx2zZqyu2PL9g1/Z3DxqzUHXzTFZ8wAAIABJREFUWQk8v6ymGOB+dIx1VkK8tmyd9RCuKwt5R57rwcI6McD5hZo3j3E9/3aQa946IsANI74Xf9BzCDWSJEmSJtaw4HUcg99hj1MYC30Iwe9+wW5g1Mdj2V8aDhYMS5J01E1E92tYRPivn1H5ty+B3WtIH9sMDStI/v69hGmHuEb9LEJzbeH6KmDWCVBbMXb9Oe8l8wfd5L69On+/+XfJ3PwjMi+rJn3gQdKm15D5yXdIzsnkH889Se5Hm0n++i+h+rnVAVwxIatKkqTnhFkVFSQM5ZMhhP0C0tEC3I9u3MgHFy3i6rlzuaWlZdSaUdf5PeCCQk0M+3XKxnSUdf6u9BOVfM31ZfdPg/CWMOyHJQDxzggXFl5YKJxrWYRzgEdGfy9Gu+ahBcvWKVxz6drDodeM9polSZIkjY+QBmIShwezhc/5xWC39MNWxuHxleS3qGEo+C2ev/jZPw4lxM/u8bLXB/7dQpJ0lI3483FcnPJGMq9MyL3zdxn8XvvQ8aQChv2McBqcexnJqQ3w5L2kq3cUL6r0533+z+fSxY5xrdNJ/vgqwn3/SO6ZHADhrX9O5oRfMXjRO8htTSG5kXjzfVT81WvJXvOd/NN+9A1yKz9P5sqPMnhj6/i9/tLl2gEsSZImwNfPPHPMbt9y5TXrenpIC7fLR0EfcJ2VwEVloejIztk7R7m4pUBlWc3Kssc+BLy1sM7HRpzrrcULKF5Y4fvrgKbRr3U0pZrPjlin7Kn7/dDlUGokSZIkjbthwW8cx47fUW6X/v5x3UE6eg/W8Xukj4/Y77h0245hSdJEmIgR0JVVkGTg/2fvvqMlu+4y73/3qVP55u4bOndLLcndVrCiLVnBlm0Myx7yEBwZwCTPDAyYgXfe11JLMMPAAAsw2MsYD8ky4xkGMwzYMvLIY0uWbMnK6hzV8eZYdW+Fc85+/6hwT9Wtm6O6n89avaq69j6hgtRV9dTvt9Op2tsDb/p661txvvgi8S/9Ee6//VXcL71I7HMfgViohfJCj5e4G+f+TQRf/cr0tldtgwsH8fuD8rEvEBzsxdzxdkyivN3kN/C/Dc73vlstoEVERGTjC7+1+N29e0u3LSAIrvjQ4cMABMD97e2zH+j7wDwY2s+fUApy68PZr4XOrXIe7wvNOVC+vq90vfqFx28Dxbpjbilv1mgt3l+iFB7XH6syp1H4PdJgP/VznAXMURAsIiIiIrKqqq2YH17iGr9lswW/lbk1t42tb/A763joM4nWExYRkWVZjRbQR/8n3tch8olvE3/0b3B/61dx3nVdaE4c88AniW77R/I37Sd3z53k7vwVgrccIPoT20pzSic3vU3pr42Pt+t2zJbzBC+NVm8L+oahaxcmVZnXAjs3Q/d2cCu3TRK8chpz/W2Y6OunBbQCYBERkStU5eN/AGyJxXDmCHvDwl+O/P65cwD81JYtjed8HLiZ6ZD3ADBIbYBbOZ9GwWtda2fzgCmt5Vv5idwBsPkGc8KypS9/+HZoTnnNrtnu16zn0yhQXsIcERERERFZWeEA1ASl9/t3/9ndpR9/phdR0cv8IfGM8T9cwWB3JYLfIPRYNFpjWMGwiIgsVhCsfPWrd5DiD97N1Mf+HH+8A+cHfoX4/3qW5Fc+jmkHm7iTyLt3ETz5FPaG+zH334+5qh//kMW5+67G1bRlDY+3cwuGEYIL0xXGwX9/BM+8h+hnD+D80A/j/OZ/JXpfCowL0cq2AUH/MHbTlprK4xWrAA4qfRZXltYAFhERucJVPu7/1b59fODQIaBxGNpoTd/nJiaqf//r/fv5YHn7X9i2jU9+5EL1SwbzSYMdtI33U185G57zENAF9hdsKbAtvx8y/9nMCH7t+22pZXRljjXYh0Jzvgz2yxb2AB8E/nDhax5ba+FZ4PbynHAb67p1f6sP6BxrA4uIiIiIyAr6L2DbLebHDLapwRrAv1paS7e6xq618I/AczMrepe8HvD/AvO9S1jjty64XfB45fpSxk3jNYZFRERmtRprAAPkz+B/+uP4nwZIYH7kEyT/7FeI/tTfkPtUF7RHcO7/RWK3hI99HP/gZOnf4+rpldYADlcEz+AHgIFIaPz4p8j9QJHYx36M6K9+F/bk4xQ+kyL+wUGCfGhdYcdA4NetNbxCVqkCWAGwiIjIFc4YQ2Udj0f27+f95RAXFhYEf/DQoeo6wHe1tvLz27bhAJ/kQmnCAQgI/ZLNbRyGznqs/tI++C6w/1wbshpjsB+zkA7tx1iYAH5/lnM+XZ4zUrefed5smS8Z7O0LD3lnBMLlOdVLERERERFZEWbSYLMW+7vTwawxhifsE/CLYFpnBqu8F/gX5e0rwehxi/n8IoPfyviLFvv9DYLblQ5+K+POLOOh63OOh/ePURAsIiJzW60AuMYU9h8+j3fhx3F37MQWLhEM+QT/42eZfPhgg/nR6r9fpfbPpQTYMvN7RgBOnSOw98EOF3s6P337tz9D/l9+pvyXbty/+0l4+W/xs5Ww18Fs6YT+owSF108ArBbQIiIiV7q6Nxl/XQ5za6fMDGfDPnXhAgb46LZt03P+aJY2y/+G6V/jBw1aKFeO9cN1x/rnBuf+cUrt3MJtlg3wezOn1pzzQw32Ndt5zBgIXa2v6LXzz6meq75fERERERFZEeH37jPW6P3D0pIw5qHS5xP7kIWjNG61fA3YB8rdhw6Ul5d5YBGtoP26Vssr1cq5HNwuaHtnnu3D4w3aQ4uIiDRULh5Z0T9730/0P/8czjUt5dua4Ic+TGR7Fv+lg9j80xT/4SjOv/qPuHe0l+c4cOsP4tzeVNP2Obzf+r9X/5z/Jv5rW4nc3DV9m7Mbc+8bsQ5Ypwvzb/+E+P3DFP748wRBZdtWnBuvwr74NH5+FVpAqwJYREREVlM4in1k/34+cPjwgtsjPzk2xs+Hwt/3HzpUs5ZWzXatzAg/jW3wi/NdwJ3At2aeq7XlL2XC7+rqqmsX8qvEhba6nnGu9dXL9W2slzhHREREREQW6fzMm+at2P1vplopVB2/w8I7gViDitsD5e0rHYR8g/2UrVnmxloLv0EpOF5Mq+aFtnpeTEXvfNuHjqnPJSIisiCrUQHsRzBv+1VS//YPIDuIDVpwkiN4f/nLTP3FRawF/6GfZGrTp0k8dor44CCkNmE4R+EX/y/eM7nQV4PhytxZzjX3bQpfPkvTd70XPvFJrA/E9hP99BeIb89jvSTkDlL49+8n94/D09t1vBv3jgzFjz62OlXQCoBFRERkNdXX4v7Vvn381OHDFFlYmPr+Q4fojEYZKBbnnTtr5Wz4ppSFd1Nad/ePQuHszwE9jfezqNbSS5kzCSTKc8pfpMx1vxqezwLmiIiIiIjIAn1z+uqy1vB9BsyzdcHwZov9kIVmals5Ryzmo6E1dA+E9s8iWzWvZKvn0DZzBsem8fFFRERmZVehX8Spv2TqzX/JVOc1ONduxQQjBK8exE7403OmXqLwkbdQ+PVrcfZ1wfAZguPnofz1o///3MpYZa7/HXK3Ns9xwDz+n34W7/H34b7xMxReLsLUPzH1xp3kbnoDTmyE4IXD2Hx4mwjmxz6Ae+GvyTw6sTo9MxQAi4iIyFoIrw/x5/v2EVBa5zdstsA0HP7OGqqGq3Trq2LDwWtlTkf5C5WgdHImmFktXLOfwWWGvHPN+SLY980R4C5gbeDZ5oiIiIiIyBL0LjP4nWt8APi90HglGP7XFrtplu2XUtHbKLhdSjBslhYMi4iIzGs11wDuP4bff2zuOYNH8Z84uvxjHftTpv74LuLvuAH70nOl27wh7HPfJGg0P7IH9005cg/9IX5hle6/AmARERFZS+Eg+JH9+wmADx06VBO9LilUpUGAW2ywn/kqZydNqUq4fs5fLvJ8GsypV51zggWFvDPC3gXMafS4iIiIiIjIPEaobeW8EsHvfOOfAH4RTKvB9teN5ywky9vnDda32KzFJA22aQWC26W2ep5jXEREZF6rGQCvqUm83/oRvIVO945R+OkfWM0TUgAsIiIi6yNcnPq5chDsAP2FAl8cHORiPk8uCOiJxbi9tZW3NDfjGMMHf+QQPAIcL21bfZNYCUPDLZRzdXMqxw7PqVQEj5S/cCmv+VsNZ7uAnwEm6k6aRYa8Dc6jKnTzbCFvTYVzo1bXs81RJbCIiIiIyKKtafAbHm8vVwT/Tbntc2X8txtUDJevz9j/NRbzvpWv6F3w9sbqh6giIrIwq9ECWkoUAIuIiMiaMab65qO+4LVicyzGz27dWnNbJcOstEwx32uwv1f3JqY+nLUGOzFPOFv5ZfqBOSb1A79ZPo8FvHFaypzKml5zhbwN1/2tb3W9gLWBRURERERkHnnWPvitb/U8toz9H7fYh8rjXWB+bp6K3uUGw40qgvV1voiIzKPQ0kLe94k4DkXfn38DWbBoJELe9ym0tKz4vhUAi4iIyEzlLykq1b4we3HqnHPSDXb9Dxa+L3wDsL3+8OUq34+G5jzUYE7Iqq3722jOAgLcpc4REREREZEF+lLpYk2D38p1s8L777fYh8vj7ytVB1fHV6jV84xxdSESEZEF6L/5Zk4++SR743FijjP/BrJghSDgRC5H/913r/i+FQCLiIjIvMLfC8z2Nq/hnMr6tuFQ9QXg+5jR2nlG8Dq0gDlsoCB4lpbOjebMWlYtIiIiIiIL11e6WNPg11poKo8H0+2fV3T/j5TH7zLY71pC8Fv3WWTW8UqHIxERkTmcvP9+MIa+558nNj6+3qdzWSm0tNB/xx2cfPvbV7wVtAJgERERmZUpt4JusHTtjCC40RxrLHwE+LPp/VlbbuV8oLJd+c3NDwP/oy54/SvgQ8z4UmK9g+D6dX/nDHkbzKle6ssWEREREZGl612nNYB/qBz8OnNs/xMWu6uu1XIG+N1FHP8pi3naYO+12LcvIvgtr+s777g+j4iIyAIUreXEO9/J6Xe/u/RdoawYay2+7+N53orvWwGwiIiIzMrUh6PMLFqt//uMOdtmCVUPlIPgSuXs/gZzTtVV1y4knK0/v1WYMyPsbZB+zzpHRERERERWzLqsAbynHKx+qsH4L1psm52uDg5X7KZLn4Psn1jM4CKO/3Xg62B+2WBbViD4DY2LiIgshOd5qxJSyupRs24RERGZV31uGTQYmxEM29AtvzTLfh8y8Fuz7KB+PwfmOL/Qrw/nC3KXPSd0c6M1fWedo/BXRERERGRVVD4PVILTyvVVHXcsDITGY2AftJiW0Hhl+6B8Wzl45aNg71nC8X/flj5DVfZf/ahRt/+FjouIiMhlSxXAIiIiMq/ZssuA6V+TzZgTbn3cVq6cbRSq5qkJd2fMeQo4DxyeY04Da7Lub2WOs4A5Rl+wiIiIiIismC+tYcXvfOM/ZDH7G1T8Vlo116/ha4H7wTxpsMESjn8AuBHMDyy+4jc8LiIiIpcvVQCLiIjIgs32xsE2mmPqBh8MzW8QvM7YZ2XOV4HD88xZyH5Weo5tMKe+IljfqoiIiIiIrI7eNa74DY8HofGPG7ieGcEvLKAi98eXcX4vg31ocRW/jT7DiIiIyOXJ3PPZe+z802Q52hJtjOZG1/s0RJZNr+W1sb8/td6ncNl7y8Q2tp4trPdpXBZ8a4kYU70M/5D8UNckAIG1OMYQWEvf0Di/81f/Z8Z+Kr9mn2st3o0wZ3tXG7/8/vsxpvZ+OXWBsbXQIENecSevivBSsnf1DySyyvQeQy4Xei3L5UKvZXk9eOoXnsLP+zW3hd+/N3q/vxLj1/7ktXTd1QUBBH6AE3WmK2rDLZJC15/8yJPYwK7a+b31k2/FiYfOo+741dvD4xYGnx9k862bWa4fPNi57H1sND27rqO9Zzejo6OMjIyQyWbxPQ8L+L4P1hKJRLCUwnnHKT3YjuPgui6B7+P7PrZ8W0tLC12dnXR0dBBPJBb9U+FWkyaWWfnvMSwwNTXF0OAg/QMDZDMZgvJn4WQiQVNzM24kQi6XI5vNUigWa16DruuSTCZpaWmhpaWFpnSaeDxOJBLB8zzGxsYYGBhgeHiYQrEIQCwWo6O9nc7OTka/8Y0Vv0/L8XdvHFjvU7jsTXWmOW30OK+2d5x7x3qfgmwA7hPnnljvc7js3bPjHvQ4y+VAr+W1oUd49b0h94PEnj+y3qdxWaj/niP8HUNXgzk9gOs4eEFQu5/Vatc8R8i7lDkfb++m6Sul1079fa7vovb8xAS3NDfPud/lOvLBHTwxqP9ryOuf3mPI5UKvZblc6LUsrwv56atr2Qr62LZjHD13tOZUwkvAVFotA/AwEMys6F2p86tcf+qjT2G/28Kba49fPa/Qh5Wa8xsHzi3lwa/1c4/uX/5ONphdH34zL49YvvKVb/H000/T399PEAQ4jkN3dzf33nsv733ve7nzzjvZvn078Xh8vU95SYIg4PTp03zj0Uf5wje+wTPPPEM+n8dxHPbs2cP999/P/v37GZma4vkjR3jllVfo7e0lny/9B1gJt6+99lre/OY3c88993DjjTeyZccOUqn5Cxw+/wd/sNp3cVE+vffQep/CZe8eo/cYa+EdKAAWrQEsIiIiixQOOusvKxqtDVy5/PM3vIEPHjq04uHsQi1l/eCKdCRSvV7fDjv8uJzO5VY9/BURERERudKtyxrA4TV2K2v81q+xeyC0PUs/fsVswW9lrrUW86jBnrDY99vp85ruCV1zftVguHvlnovLzWQ2y3MnTvDqq68yODhIUP4Rc1NTE9deey3XX389V111FR0dHcRisXU+26UzxpBMJkmn0zQ3NxONRqvhbi6Xw1rLli1b2LdvH5s2baK1tZUXX3yR06dPMzU1hbWWsbExDh06RKFQwPM8fN8nEomwbds2kslkTStzERFZOwqARUREZFGMMWBtw5C33mxzHtm/nw8cPjxj/nLC2bnmrFRFcaPOaZX75xjDM2Nj3NHSwp5EYt5zFBERERGRJXqpdLGmwW94nHKwWx/8/gbgL7+it1Gr5wXt64TB/qXFfmju4LcaDOs3q7OayGR48cUXuXDhAp7nAZBKpbj66qu59dZbueWWW9i9ezfNzc2v+3AzFovR0tJCc3MzsVisen+mpqbIZDJEIhGuvvpquru7aW1tpbW1lWQyyfHjxxkfH8daSzab5dixY9V22K7r4jgO27dvf10H5CIir2cKgEVERGRxZglFYWZV7Fxz/mrfvlkrgdeyJfRC57y1tbXh/ak4MzXFHS0tiIiIiIjIKnuF9Ql+zSzB7x8Bwwuo+P01g02WAljjGWzWYlvLFcVPgH08VNG71HM9DXwNzNvmCH5f33nlmpiYmODUqVNMTU0BEI1G2bp1K7fccgu33347+/fvp7OzE9d9/X+9Ho1GaW5urga7IyMjBEFAPp9ndHSUTCZDPB6nq6uLVCpFU1MTTU1NpNNpDh06xPDwML7vMzk5yYkTJ4hEIkQikWoIvHXrVqLR6Os+KBcReb15/f8LJSIiIuui8tFtrqpY5pkTrgTeCCHvXHN+Yds2ameU7s+3xsa4s7WV3ar6FRERERFZG72sfLC7kPE31wW/FnhoAcHvxwy2qRz8VrZ3LabFTIey9wKPr9C5fsNi32IxyekW1aXB0BrAl4AtK/N0XI6mJicZGxurPs4dHR1cf/313H777dx44410d3dfFuEvlALglpYW2traaGpqIhKJ4HkexWKRsbExRkdHmZqaYsuWLezYsYNEIkFTUxOpVIpEIsFLL73EwMBANQQ+fvw4kUiEaDSK67pEIhF6enqIRqPrfVdFRK4ol8e/UiIiIrLm6n+726gqdiFz/nrfPj5w6ND0NuscBNczxsxYx7gScJ/L5bgzVBksIiIiIiKrbBzIlK6u+RrA76hbA/jhuYNffg1IUhv81lfkHgAiYO5Z3nrBM8Z/x2IfDI2Hj4/BDlsFwHMoFIv4vo8xhnQ6zd69e7ntttu44YYbqmvbXg6MMUSjUdLpNG1tbaTT6Wqlru/7ZLNZJiYmquv9JpNJtm3bRjQaJR6PVyt7X3jhBQYGBgiCgEwmw9GjR6uVwI7j4DjOZRWai4i8Huj/uCIiIrIs9YFuo3V/55vzyP79/PyxY4yX11aChYezKzEnrNHcv963rya8fnJsjLtbW9mpql8RERERkbXVuw7Bb2W8/E2qwWAPlCt6G8yt+m0wD8wS/F4CPl0+lm+x/3cV7stDdcevhMBY6FnZp+VyU3kc4/E4O3fu5JZbbuFNb3oTV111Fc3Nl9fiyY7jkEwmaWlpoampCdd1KRaLBEHA5ORkNQD2fb/a1rmrq6sa5lpr8X2f559/nuHhYay1jI+Pc+TIEVzXJRqNEolEAOjp6aleFxGR1aUAWERERJZltlV8GgXBc8351LXX8rm+Ph4dHp71WAsJcpcyZ65q4dbyh1pjDFjLuXyeu1X1KyIiIiKyPkZmrpFbsdrBcIU1s6zR22FhqG5fD1tMwmB/vXYNXvOnK1zxO9v4KxZzYzl4dkL3ZdOSn4ErggFc16Wnp4ebb76Z22+/neuuu46Ojg4cp37Ro9c3x3GIx+Ok02lSqVRNlW6xWGRycpJcLletiAaIRCJ0dHSwf/9+fN/H8zw8z+PFF19kbGyMIAgYGxvj8OHD1UpgYwzGmOrayVoTWERkdSkAFhERkRUx20fgudYGrp/zge5uvn/zZn726NHq2Hq3hP6Ta64B4OsjI9zX1saOeHyWeyEiIiIiIqvutdLFWgS/Mz4fVNbQfXhm9S97gA+Xx/+LxU6FxnMWikA01Ip5rULsL1rsTaHxchWyzM1aS3t7OzfccAO33347N9xwA1u2bCEWi633qa0K13VJJpMkk8kZAXAulyOfz+OFOnZBbQgcBAHFYpFiscirr75aXT95ZGSEgwcPAqXXZqUldGdnpyqBRURWmQJgERERWVH1IW8l3J0rCA7PaYpEeGT/ft4fWhcY1icI/tz+/QBcyOe5r60NERERERFZZ33TV1esoneW4LdmX7vLFbvOLOMfDI3/+3LF7YHQ+H822I+Xxwenq39X6r7MOf7fwPxIOXg2Fjz0rfA8XNdl79693Hrrrdxyyy3s2rXrsln3t54xBtd1icfjJBKJmgDY8zzy+TyFQgHf92ds67ounZ2dvPGNb6RYLOJ5HkEQcPDgQcbHxwmCgOHhYV599dXqWsCVauDOzs61vJsiIlcc/VMvIiIiq6K+mZNtcNtccx7Zv5/Hhof5i97e2m1WMQgO+w+7dvG1kRHub29nm6p+RURERETWXwAMLb+iN/xZYMH7em95Dd9cg/H3hdb4fcJiH7dwgFLFMOXtE6E1gP947dpWG2OwR2rXAOYV4OaVe1ouR7FYrBr+Xn311bS0tGyY1s9BENS8flfivCKRCPF4nFgsVg1qgyCoCYArx61v3VwJgW+44QZ836/+OXz4MJlMpiYEDq8JvFEeTxGRy5UCYBEREVkxjdb9rQ95FzPnXR0dvKujg/cfOrToAHcpcyqX/2nPHlxjeGM6Pee2IiIiIiKyhsofJJYahobf9y86WN1cHv/zBuN7yxW9WHgcuL3c6nmHxZ4tb3+dnW69nASTW4PgNzzeb7Fd5fGelXgyLm+u63Lbbbexb9++DdOuuNJmudKS2RhDPB4nmUwSjUaXte9IJEI0GiUej9dUAPu+Tz6fb9gCOiwajdLT01MTAltrOXLkCOPj41hrGR4e5uWXX66GzCIisroUAIuIiMiKqQS5jULeeguZU6kIfmT/fsY9j58/dmzO488X9s43J2IMH+juZmciMe9+RERERERkjfmNg88Fr+HLMoNVA2Zgun1zdbwS7P7H8vbvKa8RPBZq9fy95V0EBvtrpfbQaxL8VsY/SakqGRQAL9CNN97Ili1bagLR9WKtJZfLMTAwwIULFxgaGsJxHDZt2sS2bdvo7OwkEfocW/+amI/jOMRiMeLxOJFIpLr9QgNgKIXAW7durTmHIAg4cuQImUwG3/cZHBzk+eefr47tWuwDISIiC7b+/3qJiIjIZWOuls6z/b53oWsDt7guj+zfz7l8nl8/eXL6mCvUEvrW5mbe191NTyw2y5mKiIiIiMi6+sfa9/HLquhd7Hi5ffKc4145+K20eh5rsH2lFfODFvvQGreCZjrIlrl5nsfu3btJp9MLClBXW7FYZGBggJdffplvfetbnDlzBoBrrrmGW2+9lRtvvJHu7m6stXieVw1rK22d5wuxI5EIsViMRCJRU03seR65XI5cLkexWCQIgjmroWOxGD09Pdx44434vo/neRSLRY4dO8bU1BRBEDAwMMALL7yA53l8ePkPjYiIzEIBsIiIiKyacIC7kJB3IXN2xOM8sn8/gbX85JEjVH6DvNQg2AXe39PDuzo6FnfnRERERERkbfXOvGlNgtNoaI1f6sa/v3yb06AiuLJ9a2h7U7oOQCuY8TVsBV0+vsyvUCzS3Ny8IcJfgFwux7lz53j66ad59NFHOXnyJMYYdu3axeDgILlcjquuugqAsbExCoUC0WiUjo4Ourq66OjoIJFIzHp/whXAlRbNvu8TBEFNALwQiUSC7du3V1tWF4tFfN/n5MmTTE1N4Xke/f39vPTSS7Bp04o9RiIiUksBsIiIiKy42QLcsLmqhRcyxzGGv9i3Dwv41vLLJ08yVCgsOAj+8a4u3rNpE32FAt2q+hURERER2fhCAfCaBL+V8R8ph7z1wa612DeFgt36iuBKq+ifbrB9YLD/bo1bQfdZOA/ctvSn4Erhed6GWPcXSm2YM5kMp0+f5oUXXuDIkSNMTU0BcPDgQQqFAmNjY+zevRvf9xkeHiaXy5FIJNi5cyc333wz+/fvp6enh3g83vAYlQA4kUgQi8WqQXEQBOTz+WoAXP/ZuhFrLbFYjG3btlXXAw6CAMdxOHnyJNlsttoOWgGwiMjqUQAsIiIiq6Y+wG207u9KzHGN4Q/27sUbWnYtAAAgAElEQVQJjflAIQjwrSVqDDHHwYa2++rICIDCXxERERGR1wu7xsFv5freecbDwe7V5bA3GxpvmqMV9I9a7BfWqBX0i8C+5T0FV5K1rv4NP4+V6tl8Pk8mk+HUqVMcOnSIU6dOkc/nq/MqlbUTExO0t7dTLBYZHx8nn8/jui579uwhk8mQSCRoamoiGo3iODMXaHIch2g0SjKZJJFIVOdYaykUCkxNTVEoFPB9f9520pXHLZlMsmPHDqy1OI6D67o4jsOJEyeqIbCIiKweBcAiIiKyamb7uNwo5F3KnLnaRhsgWQ5964PkgWKRd7a3z3baIiIiIiKyQa1p8Ftf0dtoDeA+oCdU8fv95Yrg37PTa+7SIPh1LPbhNV4D+DkLb1v2UyBLVHluGt1ubWnt3kKhwOTkJBMTE4yOjjI8PMzQ0BDHjx/nhRdeoL+/nyAIarYvFotcvHiR3t5erLU142NjY7S0tLB371727NlDa2trwwDYGEM8HieZTJJMJnFdl0KhAFANgPP5/IxjzyeVSrFz504cx8EYU31tVtYEFhGR1aMAWERERFbdzI+XJXMFuAuZs5j1gwEeHxnh/vZ2OqPRhZy2iIiIiIhsFI+xPsGvCa3x22gN4D812AfK4w+Ug13m2N5Y7FkLf7GG51+5bQeQWNazcMVYjdrf8HNRaY1cKBTI5XJMTk4yPj7OyMgIg4OD9Pf309vbS19fHwMDA5w/f54zZ84wPj7ecN+VfdYrFAoMDAwwMjJCLpebs4VzNBollUqRSqWq7a/DFcCV9XsXq1IJXAm/K/f95MmTi96XiIgsnAJgERERWVUrFeAuNOStCK8VjLUMFovcr6pfEREREZHXp/OsWjA673gluG20BnAQqugdsPBZoFC3fWXcWHiIdWtlzVUr9WRc/mIrtFRQJez0PI98Ps/U1FQ18K1U+o6MjFQrffv6+qqhbyW4zWQyZLPZBa3BW32uQ3+H2auPw/Oi0SjpdJp0Oo3ruhhjqq2os9ksuVxuSW2bjTEkk0m2b99OEAQ16wKLiMjqUQAsIiIiq8qUA9ia2+rmzBXgLmZOo7bRXxsZ4e1tbWxW1a+IiIiIyOtXb+lizYPT99QFv67BenXb17dyJjR+Tan6F4CvgqFufC0rmiPLewquJE3NzYvepvI4B0FQrZrNZrOMj48zOjrKyMgI4+PjjI+PMzY2xtjYGKOjowwODjIyMsLIyAijo6OMj4+TzWara+7OF/pWGGOIRCI11cCRSISWlhaampqIx+PVyt5G21bWAE6lUjUBeDiwrrSFXopEIsGOHTuqAbAxBr75zSXvT0RE5qYAWERERFZX5UMwM8PZhQS4S5lDOXQeLhZ5e1vb0s5bREREREQ2DFNYp+D0tvJ4pYr3/7OYhxax/ftC2z9Zag+9Hq2sAdi0rKfgitLW2rrgub7vUywWKRQKNYHv4OBgTTVvJegdHx9nYmKCTCbD5ORktbq2WCzied6M562+cne2QNhxHKLRaE1Im06n6ezspLOzk1QqNWcVcKUFdCUsrigUCtUq5EKhQBAEDdcRno8xhlQqxe7du6vnqwBYRGT1KAAWERGRNdUowF2pOZXLr4+McF9bGx2q+hURERERuSysS8UsoeDXCbVyvtrCiQbb/5LBHrLYnIW3AQ7T7aOddTr/cEvgnuU+C1eOllkC4EoL40rgm8vlyGQyjI+PMzQ0VA19K38uXbrE0NAQIyMjZLPZaivnShVs5bmpv3QcB8dxiMVipFIp4vE4QRAwPj7O5ORkwxDYWovnedXWyo7jsGnTJnbs2FETAM/WDtp1XZLJJE1NTSQSiepc3/fJZrNkMpllVQBXpFIpdu3aBcCLy96biIjMRgGwiIiIrInKWrwVc63pu9Q5BhjxPO5T1a+IiIiIyOXjUOliPYLTmuC30sr5A9RUAVfn/oGFA+Xtbbli2YS2X4/zr4ynLbQs61m4oqSSyer1SuAbbulcaeM8MjLC0NBQtcq3t7eX/v5+hoaGGB0dJZPJkM/nayp7Z6vwdRwH13WJx+O0tLTQ3t7O5s2bq+Ht0NAQR44c4fTp03ieN+OcgyCoeR1Eo1G6u7vZvn07nZ2d1are2aqAHcchmUySTqerATCA53lks1kmJiaYmprC9/0lVQCHpdNpdu/erQBYRGQVKQAWERGRtVH3IbcS3M4V8i5kTsU3Rke5t62Ndldvb0RERERELiuhlGjNg1NCwS+hit4HZ2kF/ZDBPlgX/DrrGPxWxn92GY//Fch1XXK5XDXwHR4eroa8/f391ZbOw8PD1T9jY2PVkLRS5VvPGIPjONX1emOxGPF4nFQqRXNzM21tbWzevJnu7m56enro7u6mu7ubIAg4dOgQIyMjnD9/vhoAV0La+nDZGEM8Hqe7u5tt27bR3t4+6/q/FY7jkEgkaGpqIplM4jgOvu8TBAGTk5NkMhlyuVy1wni5kqGQXUREVp6+IRUREZE1NVvIG1b/97nmGGDM87hXVb8iIiIiIpen3nUKTm9pEPyGg90HQxW/4e0rIbBjqx9mjDXYn7DYv1inNYBzQPPyn4orRT6f5+DBg/T29nLx4kUuXLjA+fPn6evrq67lWwl78/l8df3einAQW6nsTSQSJJNJUqkU6XSapqYmWlpaaGtro729nU2bNtHZ2cnmzZvZvHkzHR0dtLe309zcXA2XU6lUtfrWGIPrutXWz/Wi0Sitra10dnbS1NQ05/q/AJFIhEQiQTqdJp1O47ouxWIRgMnJyWr76UbB9lLMdz4iIrI8CoBFRERkXdR/1JtrTd/Z5jw5Nsbdra20qupXREREROTyNQ6WdQhO31VeA/iwxX6lvMZvfUXvgwb7UIPtDwAHwBBqBb2zfH0Nzr9m7d8bgT6gcyWejCvD8MgI3/6nf+Ls2bOcP3+eS5cuMTw8XNMGufJYN2rpHIlEiEajJJNJmpub6ezspKuri87OTtrb22lvb6+Gv62trdU/TU1NNDc3k0qlSCaTRKNRjDF4nkckEsEYUxOcxmIxjDFkMpmacwifl+u6xGKxee+zMYZYLFYNgKPRKLlcDmtttRp6cnKyGgqLiMjGpm9LRUREZF0sNOSdy92trSt6TiIiIiIisvGsR8WsMQabsKXg+UsGm62r6K1UARuLecBgH26w/YHy9g+EguMHma4IbhQcL/D8KmYLfmv29YMGOzhzW5nd4MAA/+s736G/v5+xsbGa0LcivHav4zjVds6xWIxoNEokEiGVStHd3c0111zDvn372LNnDx0dHTQ3N1fX2k2lUsRiMWKxGK7rVoPeikbPe0XluJOTkzNaMxeLRbLZbPX8FxIChwPg8PzKvrLZbHU9Y1XwiohsbAqARUREZF3N9pGx0bq/+ngpIiIiInKFGWLtg9/KeCXkzZbHfw/ML0+vC1yzxu+/AT4xy/4fLm//U2C2l7d/aGkVveHK3gXdlwdLITSbV/JJufyNjY/zyiuvVNfABarVt8YYotEosVisumZuc3Mzra2tpNNpCoVCdb3gbDZLNBrFcRx27NjBTTfdRGdnJ67r4rpudT3gyv6XYrYwNpfLcenSJc6cOcM111xDMpkkFovNGd5Go1FSqRRNTU3V6uIgCCgWi2QyGSYnJykUCks6TxERWVsKgEVERGTdNAp568fCcxQAi4iIiIhcYb5WuliXNYArFb+V8Ym6NYDDFcEdBvs9FvvlOfb/WYv9Hot5cmYr6Ir5KnoXVPFbue0qW127WBbH9/2aSlfHcYjH46TT6Zo1eyuXmzdvprW1lYmJCV566SWOHj1KX18fANlslvb2dm666SaMMTXr+C7UbFXAxWKRYrE4o/oXwPM8zp49y8GDB9m1axetra10d3cTiURmPYbruqTTaZqbm0kkEjXHyWQyTExMVNtCqwJYRGRjUwAsIiIi68cYsFYhr4iIiIiINPbDpT/Ws5hvGuzX1qgV9NbyONNhbbWt84FQ8Bte4/d2g91psZ+eY/9ftjXrGS+6oneh467BfrBc/SuLZig9nvF4nKamJjZt2kRPTw9btmxhy5Yt9PT00NnZSUdHB21tbbS1tWGM4aWXXuLZZ59laGio+txMTU1x8uRJTp06xejoKNu2bVt0ADzj/Mrhq+d5BEHQ8HUAMDg4yMsvv8zWrVvZvHkz6XSa1lmWUqqsXZxKpWhpaSGZTNYcJ5PJMDo6Sjabxff9Zd8HERFZXQqARUREZN2Yyq/YmRkAq+2ziIiIiIhAeb1d12Lvs3Bf+bZyZas9ZzH/dRUqgr+3HOxONRj/FJifCwW/4YrgHuAAmBMG+7nZ97+kit6FjmOx/28o+H0euGX5z8OVJBqNctVVV9HV1cX27dvZuXMnO3bsYOvWrXR1dbFp0yaam5tJpVLVdX8zmQyvvvoqExMTM9okT0xM0N/fz8TExJxr+i5EOPANr0tsjMF1XYwx1WA4l8tx6tQpnn/+eXp6eujo6CCRSBCPxxvu23VdUqkUra2tNDU1EYlEqm2wJyYmGBkZIZPJ4Hke0Wh0WfdDRERWlwJgERER2TACZraCFhERERGRK5t1QmFnJWytBK87LPbB0Lg12FGL/ZTFFJcRpvaU9/+ZBuN9FvtNi7lrOvitBNLViuC9FvNAefxAbaXvos9lseMHah8repb9FFxx2traeM973sOOHTvYvn17Nfhta2sjnU4Ti8WIRqM1bZBzuRzFYpGhzCTW1rZkHhuf5JGvvsKTfd8h0T0MsWYigaVIhO989m3kiwH3/sJXCXDAhn4GbQAs/vglsheO03f8HEGuWB0Ovx5isRg9PT24cZczpy6AzREEMDAwzD8+9hz/58gknY/00rVzP4m2TqImz1c+8W6coLz8kim9jpLJJK3tbQxlHQpFHwDftxw9cYG/+J/H+PKrT9KxNUOhrYXNsRz/+z/dCSgMFhHZaBQAi4iIyLqrVv2WW0KLiIiIiIiEVSt+n7WYR8th57UWfpxSK+bKuLGYVoP9D5a7d9zNE2efKI1nDfYfLPboIqpoHQsjs4x/1WIPWfhI6fiVVsv1FcFmdOZ6v6sW/P4IsJ/aimSA7tV6Vi5fmzs7+f63vY2uri7a29tpbm4mHo9XK2xnE4lEwEYpfe3uVW93TITA20Jffidx+zaslwYgcCfABhSjRQaK9+EZF0Jtu60BE1iC4AK54iResb30y+k6xjj09HRy0003EI820Tfqkhk4j2EKaz3s1ATZvnFy8YDe5i24XAXxNnqnPLrj4NoATBTHcUgkEqTTac4ONWMiKaw3AViMzTM4NMjwgKE52gP+bqIW/IJLJLYyj7uIiKwcBcAiIiKy7qofnxX+ioiIiIhISE2wG0yvoQvAMTAPlwPQ0Lq69gFbzdCqFblpi/nRcjBKeTwA86zBPtogTK2s8TtL2GqMwV608BDwPuDa2uDVvGqwf1u7Bu+qBb9QajsdTAfX1epfgMhqPTuXr7a2Nq699VaSySSRSGTO0Lei0oK5LR0QcT28YmjM8XnrGzL8zM/Au7/Hkm5zCbC4QStxikSCHKf+vLVmeSQov4wtXDoX5x++aPjrz2V55QWfIKg9bropzbXXXsdb3vIW0okULe1NPP61xzn32nk8rwDuJF3x09y24zm+67vbuPuuONdc20wykQPbBBGwQUA+nyeTyTAxMcE7b47wjW8YMpnycSjSHj3GO/c+ww//2NXce/dm0ps2E7GjQPvyH3QREVlRCoBFRERERERERERkQ5qxxm7ZnGHow6XxJ+wT03P/tcVuCgW7GGzEYt9iMXfUBcMDoeMvZI3ev2kQQq9V8PthMLtCwW8lMHf049rliEWjNDc3L2obY0ypLXQySuAbwpW8gW85fXGIrzx7moH4GVKbunAxjNkiP3VfD2l8vvD1C3im8spxMLa0QJIFhi69xhOvnOJC7+jMAmBjSCSbybe9gdTW27j96mYGiptxXz1JvH8EL1sEz2NoaJRvP/sig8U4L11y2Xu9R8eWLfyru6LkcMiODHKht4+jBw/zla8/xwtHXiM7NVk+iCUIYGRolCeeepZiy7WcyXbRsqPIT9/VjaMfGYiIbDgKgEVERERERERERGTDqVbvOvNX5Fa3mW38E3XjWMy7DPau2uAUgK7y3EpF7WoEt8sd/14wb5oOrsOV0tXtrcG+aOHmFXpCZE7GGGKxGIHXRhBECLeAtjbgwvlJPv/4AF84a4k2d2KcCEEs4CP3RhhymvilR9JgXUxQSlNzUbABmCDADLzG1KERGJjCBAHheN8GCUa4kSfO38rLX93Ooe/exNOfGeXE5FuxkQyGw1gy+H6R4YERhr95lGfPduE8sxXSnbzpugHSQ0OcOn2OY8cO8sqhw/z9Pz6PN/JazX2o3I/eC8P8wz9f4Mu9Pk3pJj78loC4AmARkQ1HAbCIiIiIiIiIiIhsONWKXBMKg5cYplb3GR5/zGK+WlexuwPMT5Srg/+sbl8HSlOc5wzB/16H4NcBHgi1miZUHR0OfsO3ta3IUyELFIvF2NwK8XSMfDYcnga0JCZ4zxsv8S8/1Mub3ryLlrYWEr6DYyybAzj7p9FS+2cLRccSwcPBITOW5dGvX+SRT1/iyQsZ8tRWF3d3tfMDP7yXH/3wXq6//ipa3QSf/J3beO4Z+OpXh3nysRynjh/G931gigTnuKb5Ke54g8u+N17ixceSZPtHOHr8GEeOHOHM2dM42REMkzNWabImwHXyvOOGS3zkowVuvdvgunkgseqPrYiILI4CYBEREREREREREdmQqsGvsZjR6RC4Oj7XGr2hy7nm1uzrnMX+RoNWzh+ZDlaDWy3mFoN93GKfWOXgN2LhY0Cibo3fBq2ea9YgrlQ096z0MyKzsdbiui6pZIqYMeTrxrOTY5w6e4bjp05zzY7tbIvHMXGwBYcg5tJsDOCRz1uyUYM1UYqe5dylPo4fO0XfxVMUClmsMdP5r+PQ3tVO59V7aN+6h2I8iSVge0c79pqryAzfTmZgnLGxMQb6LmJ9j6nJcY4fOk12wufg4cNE43EKw0P09ffT19fH1NRUwx9PlO8kflCkMJUjkhujCQOkV+9BFRGRJVMALCIiIiIiIiIiIhtSzRrAfzBPRW+DYHVBa/guZHxbXatlLLwDeEc5eH3WYr+8zODXsZh9BvuDDYLdSvA7V8Vvo/Hksp8CWSBjDI7jkEykicUTkMnWjHsFn299+wzPDh3l+n1XsWv7bpqSzRAvjQc2AOMSNXmu/WkPlzTBZD/5/pMUTx+ibbIPaw01ZbmB4XhvN7//99v5w++04zhw4nOGdidg2/bt3JzZx9m+Xv72ny8Q2FFgHICpyQlOHTvMyWPHwcRwIwUC3yMIKisMm/KFLf0II3RMi4XAIfANCesSMYoYREQ2Iv3fWURERERERERERDaccJWrsaUQdNEVvSsx/mCDNXZNXfB6h8G+OVQxTHk8sNhCOURLWWxQHnfqWjmHg+Xw9vXB7mwVvw3GZe0ZY3BdF9et/9rdAQKSyVHu3HuR0fPDDF49TKopjeM4AFjj4wQOXizON37LJZeb4OSxUzz99ed5bPwgx88PzajMTSVd7rmzgx/7QCu33AFOokhr4FAsFCgWA5wIdKdd7nlrG4efbWOwL1MNea21YAoQFPCC0vkBOG6EpnQb8XiMbHaCyWym5r+7ivpKexER2VgUAIuIiIiIiIiIiMiGY830GsCVYHTFKnoXOv5gufp2tmC2PhiuH68Ev9QFvwut6J2v1XOjYLjS/vkkcPWynwZZJMdxiEQidaFpKVz1pvKMDl3gwoXzjI71s7V7C7FYDIAIUXwnDwWHrZs8+s+OMtl7gvPHnmXo7GkCf2a4H40n2NzVQldPitZNAc3FMfr7JxnsHeNS30XOnTvH8eNnKIwMY72puq1taCnhAMeJEo1F2Lajh11X7yVKjOPHj3LmVKb2vw9b+u8wCAKFvyIiG5gCYBEREREREREREdlQKmv/hm5Y2+DXGOyDoeC2vuJ3NYLbxex/juDXVtr2eqoGXi+O4zSsmvWKHi98p4/b3nSMG/tv56qduWoA7AGRIEbR97j6I4MUhk/hnX6Z4LXD2KnBhscZn0jxN1+P8D9PjdPS8hx/8zHL4MVBXnvtNKdPn+bMmdc4dfY8xw5fwAYTVILomQwRN07RbOdM7hbO9V+P701i+/uwNkIpKZ6uHPY8j2KxiO/7K/J4iYjIylMALCIiIiIiIiIiIhtKw+B1rYLfmyz2+5cZ7K5CRe+8wXF4vWQs9CzzSZAlMcbUVMVWrltrsQTE3REGLg3Sd/Ecmcx1NDc3h+ZbPL/Av3v7axx98SVe6n+FM1wkN0twm262XLd7iN3Xvsq91yf50t9d4vzF05w9e5be3l6GhoaYnMqCnTuoNQYcx7Dz6k1cc/Medl23m4nhAV55MskrzwRAXZDteeTzefL5vKqARUQ2KAXAIiIiIiIiIiIisuHMCE4PlINbA/whmNFVqAh+cImtnhca3C5m+0bB7iKCYVqX/RTIIlXC35rqX6ccCPvllsnBFH19g/T3DTA2NkZnZyeu62LwsARMTk5x/eZB+vwj+BNn8IqT1f04jgOBra7jG40UiWcvkL8U8E8npjh/4TUGB4YYHx8PVegawOA4BuO4uBGwxmCLHkXfxxgXaz2sXyDljLOvM8ctewz9KY9jJo/jGIKgNgDO5XJks1ny+fzaPbgiIrIoCoBFRERERERERERkw6muoRteg7dSEfyLpduqIai18M/AM+XxxQS/ey32/atQ0bvE4HZRrZ7nWgNY1pQxptr6OdwC2vpgTQSsBSy5XI6BgT4uXixV6O7atYtoNIrBMj4+wclTp/jQf3iKwsVD2LHzQLl617oEvgHrVY85MpTlqWdOYpzXcJ1xrJ/H9/2a17vjGgIvTmBaicQ2UYx14BiP6/aOc/jIBaw3CkCh6PPKwUsc7PsO7mPNdCfO4A9PEdQVH1tbug8TExNks1l838d1FTOIiGw0+j+ziIiIiIiIiIiIbEg1wW8lDG5UkWvAvMtg310OhgPD3bvu5onDT8Ap4Aw4Uw7B7gC702J6ytuzhGB3vYPh+bZX+LsuKm2QI5EIQDWELQXCLn7gVzspj46NcenSBXp7e8lkMiSTSaamPM6fv8hLLz9PfPJ5ipMHseSwtlxZ7ERKlbteIXTUHPh5rA9Fpo9njCEajZJMJmlv72C40EXr5h0Q30T39r1kJgb4npsCLo48zkT/KbziKAYfG4zC2CFiCbjhug5e7B8HE2BwsHY6Ca5UACsAFhHZuPR/ZhEREREREREREdnwwmFtTfDaKBiuBKNNYK432BstAUHtGrmV7de71fMCK3pnbG8pBd8Ntpe1Z4zBdV0ikUippXO5AthxoLU1QT5vmJwstXPOTGQ4d/4c586dY3h4mKamJnp7+3n55Rf51re+Tad7how/ii2v3RuLJ2hKxclO5sj7pqbCN7w+byQSIR6P097eTldXFzt27GD3rp3s3LOD7Vu3sm3XXrZ1bGIy7nP28DFSTVG+8pXHOHzoCOOZDAQ+bjBGj3uOwbN5Ctmp8p5ry4Dz+Tzj4+Nks1mKxSLxeHw1H1oREVkCBcAiIiIiIiIiIiLyujVbMFy5eUUqeldhjd7FVPQ2HK8E37OMy9qqtH52Xbe0Vi9gjIPvO4yMx7EYsDnAp1Ao0Hupl7Nnz3Lx4kVc1+XIiaM89+yLPPf885w4cZZq62dcCvkIXjygUCjUhb+AcTDWgmkiiHRw023b2Xf1Hnbs3MvuPdto2bKbD3w6TSzeRizSRjGWotn28s2HbyWTN/ynR8bxvCwEJ4AihYLH6TPnGBufYGxstPxDA0M4aC4Wi2QymWoFsIiIbDwKgEVEREREREREROTyY6av1gS78wWzy12jd7nB8GzB7xwVv+FxWR/GGCKRSPWPMYYgsGACcCJgmnD8KQI7SRAEDA0NcfLkSQ4fPszY2BgHXznEt7/zNKdPHAeKdTvPk50szliPt8rtxGm/mkj7G3jvD93Etds2s3vXG+jsasNvaaXz82PkomninsVGe4l4aVq7k9y0fzetm1oZzV2HLfYTFIeAAGtheHiYIAiqlcxhnueRyWSYnJyshtKVFtgiIrIxKAAWERERERERERGRK0Y4DF6RVsyLHV9sxW8l+J2t4rduXNZHpQI4EokQMX65atYnGnO5Zk+a1rY2Xjub41JfDusHZDIZTp0+yQsvvsRrp89y+MhBjh05RbbadrmyT0sQ+HjFxsfs7u7krjvfzF33vYN9+9/I9i09dG5O0dq8mWjSxQ1inPzzzURMgLUBgd1CzpkgFrhs6dzO3//R9/B/n2zj8X+a4IXnX2RsrBT8zqVYLJCdGGN8NEduylvhR1JERFaCAmARERERERERERG54i07GF5qsLtCwa81062uZX0YY5iwhoOnI1jPxxiDV4hw5JzFHWummN2MtSPgFCkWixw8fJHm9CEiiRjfeuoQfrG/Zn/W2jlbLFvrMJjr4fEzV/NNu4fU81s5+Nk9fPO0w0ceGKboujjBIL6xOPgk/QhZF5r8AQ7/ya24zXGu3bOX9/36Gfov7qTojYIZx1CkvtN0WCZb5MvfHuHpkVd44q23EQRdRCKRlXoYRURkBSgAFhEREREREREREZmFNXY6ZF2Hit5FjSv8XXcRY7A2ijERrPVKz5ObJkh2Y4hiJ4fBv1Sa7Gc4dvwovg3wiyPz7Nkpt1kOqi2ZHaeJIL0Dr/lN2NabwfGIOi5BABN+HLeYxJKo7iEAgkKEST+NxceJFGhr38QbrtvGRPGdBNkp2lLnGejvh7mqya1HkJ9kanyCsfFhPG+XAmARkQ1GAbCIiIiIiIiIiIjIHBq1Vl50MLyawe86rAG8x+xhl93F8Bs7559cXh/WAMZxiEajpFIp2tvaaG1tJZVO426gALH7jjsWvU0kEmHLli289/77uKqnk8GBISyWiOPQ2Zit710AACAASURBVN3Dzp07CXzL2bPnGBjoxdqZbZattRSLRcbHxxkcHGRkZITHHnuM5qZmWtvb8IoeA0N9eIVSVXDHpijvvKeVf/mjLbztviaa21uIBA7v3OvR+5l2AgPGFHCC0mPvOy42cIiQIOcVSJLAdeGLv/dmjh85yj99+RRf+MJBhgYHSusXhziOA0AQBDgR2NYxzne/dYqxkWGmpqaIx+OLf6BFRGTVKAAWERERERERERERWYIFBcOrHPyuV9vn3ezm8QcfX/PjblSRSISenh56enp429vevqR95PN5Tpw4wWOPPcbhw4d55plnsLHNFJM7GHfaKBQH8QrDgI+1luHhPI+9NMVFv5e77y0Q9Rz8SIbjIy4f/aNztBR8Cs50BODg4VAgnXb5/Mf2lNs8e8TiMf7d50Z419ZNbNq0Cdd1KRQKNedmQz2hAz/gwqVBvvi1M9x73xCTk5O0traWK5RFRGQjUAAsIiIiIiIiIiIisoJqguFyJhZeo3cpFb2zBb/VY61x9mbnWiRW5mWtrQlM8/k8Fy9e5JVXXuHll1/mxIkTTE1NYXu+m8Km/RQCizf5CoazWJun9CqLE7OT/MwHtuLigOtjA4fXhuI81buT5rylEImUXiEGCtEM0UKSzYwxGSmQMtHSgDFs376TLT29xOPRhkFu/fMdeD4jA3mGhyfIZrMEQaA20CIiG4gCYBEREREREREREZE1UFOpO0swPKOi1zBv8FsZl42vEqQGQWkt33w+TyaTob+/n1dffZWnn36aF154gb6+PjzP4zO/+W527tzBpfMX+dKXj/D4V2MMDRrA0LUpwn1vaiVlC2AjQIRIkODtew2jnwaLh2OnQ1knaKboWCg2ETem3IY6AkGO3/wXER77+iT5fL5huG+MwRgzvf6wW2T/riyjIwNks1l831cALCKygSgAFhEREREREREREVlH4cC3et3QMBhuFPxaZ7rttKw/a201KLXWEgQBnufheR75fJ5CoUAul2NiYoLh4WEGBwc5ffo0Bw8e5NVXX+XUqVPVFsz33XUv8Xic3ESOqBPFEACl8DiwAZGIi+vEsZTWFDauQwyAUiBcUxkeARcDsdr1em0QYWxqgsHBQUZHxwmCxusThy8JHKYmM0xOTvH/s3fn8XHf933nX9/fOTcGGAAECJAgSPESSd2iZFWSncR23NyHk6a5E2+ba5tj002PbLp1k02beHM0xyZ2msTbeLNNWju7idc5ajuHU2etg9ZFUSJIggQBgrgxA8z1O/sHPWNCPERKokBS76ce8+DgN7/5/b7fIR8iH/N+fD6fdrtNHMeXVDWLiMjmUQAsIiIiIiIiIiIichN6TcGwvOniOO6Gu+12mzAMiaKIIAi6v9brdRqNBuvr66yvr1OtVlleXmZhYYG5uTnOnj3L9PQ08/PztFot4ELV7djYGOvr668arL6e4LXdbrO4uMi5c+eoVqsbAmDLsrqB9oY5wElCq9Wi0WjQarVIkuSKa0jTlDiOu+dYlqVqYRGRG0wBsIiIiIiIiIiIiMgt5LLB8JvMdd1Nue/NpBOC1mq1biXv6uoq6+vrtFotms0L1bH1ep319XXW1tao1WobHqurq9RqNer1+ob2y5Zl4fv+Df+c0zSlXq+zuLjI+fPnqVarwIVA2bZtstksjUaDOI4veV+j0aBerxMEwSUVwEmSEIZhd++NRoMkSfA8j2KxSLFYvKH7EhF5q1MALCIiIiIiIiIiIiLXJZ/Pb/YSNk2nonVlZYXZ2VlOnjzJyZMnmZmZYWFhgVqt1g1/gyCg2Wx2A+FWq0Wr1SKKIsIw7FbbXlxda1kWuVyOXbt2XVJVe7n5vK93H9VqldnZWWZnZ2k2m91K3WKxSH9/P8vLy6ysrFzSGrrdblOtVmk2m8RxjDGGJEloNpusra0xNzfH7Ows58+fZ3V1lTAM6enpYceOHYyPj79h+xARkUspABYRERERERERERGR69LX17fZS9g0SZKwurrKyZMnOXLkCJ///Oc5duwYs7OzrK2tEQQBYRh2q2KTJCFJkg3h7cXPjTHdittMJkOlUmHHjh3ce++9b2jg+0rGGNrtNgsLC93wujN72HEcBgYG2LVrF/Pz89Tr9W5r6o4wDLvVy51q39XVVWZnZzlz5gwnTpzg1KlTTE1Nsbi4SBiG9Pb2cvfdd/PYY4/dsH2JiIgCYBERERERERERERG5TuVyebOXsCk6LZOnpqb43Oc+x6c//WmeeeYZ5ubmNlT0woWAtdMWuRPkXnysMws3k8lQKBSoVCqMjIwwPj7O3r172b9/P2EYbrj/xRXBnWu+cj7v9exlbW2Nc+fOMT09zfLycrf61/d9tm7dyt69exkYGGBhYYGzZ89eMgc4DEPW19c5f/48URRx8uRJXn75ZY4fP87ExAQzMzMsLS1121t7nsfKygq5XI6D171iERG5VgqARUREREREREREROS65HK5zV7Cpui0TJ6YmOCJJ57gyJEjzM7Odit9OyzLAugGvZZl4TgOvu/j+z65XI58Pk+pVKK3t5ehoSFGRkYYHR1l+/btDA8PMzQ0RLVaxbbtbpXwK72eCuEwDFlaWmJqaoqpqSnW19dJ0xTbtrutmg8cONANiZeWlqjX65fcf3FxkSNHjnD+/HmOHTvGSy+9dEnw2wm+2+02p0+fZmJiQgGwiMgNpABYRERERERERERERK6LbdubvYRNEUURy8vLTE5O8vLLL3P+/Pnu/FvbtvF9n0KhQDabxfd9XNfF8zyy2SyFQoFisUhPTw89PT2Uy2V6enro6+ujv7+fSqVCf38/5XKZXC6H53m8+OKL9Pf3dwPgiyuIgcu2l75W9XqdmZkZTp06xblz52i328CF8LpSqbB9+3Z2795NkiTMz88zPz/PsWPHulXJ2WwWYwwnT57kxRdf5NSpU5w5c2ZD8NtxcbVyu91mZWXl9f5WiIjIVSgAFhEREREREREREZHrYri0GvWtIIoi6vU68/PzLC0tEccxcCE07evrY3x8nB07dtDf308ulyObzZLNZsnn890AuFAodJ/n83my2Wz3XM/zuuF6mqacPHkSz/MAupXAHUmSEMdxd9bwtUrTlCiKWFxc5OTJk5w8eZLl5eXuNXK5HNu2bWP79u2Mjo7i+z5ra2vUajWMMUxNTZEkCb29vaytrXHkyBGWl5dZWlqi0WhsaEntOA7GGOI47lZIp2nanTUsIiI3hgJgEREREREREREREZFrEMcxzWaTZrNJq9UCLrR5dl2Xbdu28dBDD/Hggw+ybds28vk8juPgeR6e55HJZPA8D9/3u0Gv41z4it6yrEtaPBtjOHbsGOVymTiOsW17w3md6t9OBfDFlcFXY4zpVv+eOHGC06dPb2j/3N/fz86dOxkbG6Ovr49cLseuXbu45557qNfr5HI5FhcXCYKAqakp6vU6QRB0w3AAz/MolUqUSiXSNGVhYYF6vd5d47WsU0REXjsFwCIiIiIiIiIiIiIi1+GVYatt25TLZXbv3s3hw4cZGRnZMLvXdd3u+a8MP68W3D7//PMMDg6SyWSwLGtDdXCapsRxTBRFG+YPv5o4jllZWWFycpKJiQkWFha6789ms2zbto077riDkZERcrkczWaTRqNBq9UiCALW19e784DDMNxQfdyZHzwyMsLOnTsplUrMzc3RarW61cEKgEVEbjwFwCIiIiIiIiIiIiJyyzkd1CgDPXaDFquEbKUUpYANfuGarxMl8ImXakRJhq/Y7/J3U+dorhf4igM9YG08t1O167put71xJ4y1bZtcLtd9WJZ1+Ru+wtXC0GPHjjE8PMzo6ChJkmy4ZqcF9PXOAG61WszPz3dn9q6trQEXqpD7+/vZvXs34+PjlEolFhYWmJyc5POf/zxPPPEEn//85zl79iyNRgP4Ynht2zb5fJ6hoSH27NnDwYMHueOOO4iiiCNHjnDixIlrXp+IiLx+CoBFRERERERERERE5Jbz3n/5GRYWH+P0bw/xO3/V4H/+o5DFX61gsUzmOq5jp22+55dr2Klh/jdd/tffP8HRkw9y9tfa5HL+xnNtm0wmQzabxfe/+Fqapt0q1zAM36AdwtTUFEePHu22nu4EvZ3guTMD+HoqgNfX15mZmeH06dMsLCx0ZwhnMhm2bt3Kzp076e3tZW5ujjNnzvDss8/y9NNP88ILLzA7O0u73e6uwXEcCoUCg4ODjI+Ps2/fPg4cOMCePXsYHBxkdnaWiYmJbuVy533XGo6LiMhrowBYRERERERERERERG45npUjigpESYyf+OQbOaI4JeNcexgKkFg+rtfGaqzRsHP0NXO4SYLrZy8517ZtfN+nUCh02zJHUUQURdTrder1Oo1GgziO35CQc3V1lePHj+M4Tjfs7UjT9Lqrf8MwZHV1lenpaaamplhZWem+v6enh+3bt9Pb28v8/Dznzp3jueee4/nnn+fUqVMsLy8TRRFwoVq4VCoxPDzMjh072LNnD/v372fXrl2MjY0xODiIbdssLy93K5UvpgBYROTGUgAsIiIiIiIiIiIiIrccN06pZmNM7BJ6IS03wg4N60GOPusMuHmgl7R1jMjtI/S2kIuB+AwkOwm8JTwrwIp68CJDzenBIaZpZYgsB2NS4IvtmdM0xbIsstksxWKRQqGAbdvdGbyNRoPV1VUajQZRFOG67uveY5IkzM7OdkPnK1UXd9pQv9ps3SAIWFxcZGZmhoWFhe71XNelr6+PYrHI8vIyJ0+e5IUXXuCll15ibm6uW31sjMHzPPr7+9m/fz8HDx7kzjvvZNeuXYyMjDAwMEChUMB13e6M4CAIusExXAh/34jPRkRErkwBsIiIiIiIiIiIiIjcckznkYKd2qRWjPESMFmK3z/CUz9t6B2ss+MndvBLX9/gux6BzI+3eXtpkY/9LIx9d4lq0WPtF21SO4TY+sI1UwzwyrraTuviTCZDqVSiWCx2WxtfHADXajXCMCSbvbSC+Hp1WkvPzMzQ29tLEAQYY66r5fPF12o0GiwtLTE7O8vS0lL3Oq7rksvlWF9f55lnnmFiYoIzZ86wurraPacTfm/fvp1Dhw7xwAMPcPfdd7Nz5076+/vJ5/PducgAURTRbrdpNpuEYditNHYch0zmepp0i4jI9VIALCIiIiIiIiIiIiK3pDQFYyDBYBKP1EA9NvS02yx4LoNJibQNsRVicgaSHP1b78CzCjRLc/SvD2D5HhYR15KpGmO6AXC5XCaTydBsNgGo1+ssLy+ztLREu90mSZLX3eq4E6bW63WSJNkQpF7Yf3rJuVeSJAn1ep25uTnOnz+/oarXdV2CIOD06dPMzc0xOztLq9XaENr29fWxa9cu7rvvPu6//37uvvvubstoy7I23L8zn7jdbtNoNAiCoHsvBcAiIjeeAmARERERERERERERuaUlVoSJszhpgmMgtlL62zaxXacYZfBiC1KLfBPWps/jJnupVPtYytdwKWPHPpgYsK96H2MMvu/T19dHpVKhUCh05+i2Wi0WFhZYWFigWq3S19f3uvfVCZjjOKbRaABfDH2vZ/YvXKjIXVlZ6Vb/tlqt7p6SJGFxcZGzZ8+yvr7ebdlsjKFQKLB161b279/Pvffey913383evXsZHR0ln893z7vc/drtNu12e0MLaAXAIiI3ngJgEREREREREREREbnlRHYLB4NFgpVYJAZCY5NwoZQ3chNMmmHdS7nwH8S5hPy2ImlsEToRxcAjTRJM7FEKQ0yUJZfWiIDQauNyaRvnTCZDuVxmaGiIUqmE4ziEYUi73WZhYYHZ2VmWl5fZunUruVzude1xYGCA6elpkiS5pO1zkiREUXTNQXCz2WR+fp6ZmRnm5+e783/TNKXdbtNqtTZcz3EcKpUKe/fu5dChQ9x1110cPHiQsbEx+vv78X3/qnOHkyQhCIJLqpYdx8H3/dfycYiIyDVSACwiIiIiIiIiIiIitxw/8gjcJmFavMyrF1ov26Rk4zpeakhMRNSOWJxbxjCCF9pgDFaSoRAvQQKOcQnSMpmkiZ/kO5fZwHEcyuUyg4ODbNmyhdOnTxOGIXEcs7y8zNTUFLOzs+zcubM7B/jV2jNfyZ133sna2horKyuXvNZpsdwJcq90jzRNSdOUWq3GzMwMk5OTLC0tbTjnlSFtJpNhdHSUgwcPdmf97tmzhy1btlAoFLqzj6+2r876giAgjuPuubZt43ne9X0QIiJyXRQAi4iIiIiIiIiIiMgtp7FuyDSLOO5VKmANpMYlKtXJBDbTHypQssaJIovTv5sjdg0BTZ744L24MSQ2fPzf7CfAJjWLQP8ll7Rtm2KxyPDwMMPDwxQKBdbX10nTlGq1yszMDKdPn2bPnj2Uy+VuWPpa3H///SwtLfH888/Tbrc3hLSdCtsgCC6pDn6lKIpYXFzkxIkTTE5Odts/w8ZW0pZlUSwW2bFjB/fddx8PPfQQd999Nzt37qRcLuO67jWF2Z21NZvNbgvrNE2xLAvP87rBuIiI3BgKgEVERERERERERETklvOpDz3Ck0sJKRZWbJNaKQZDAqRAmhqi2MJEHla1TdMpMPJPUr5xZJYP/kjIWrZChlN4gU/ilQndCzOEY1ODNMWK+sG99L7GGPL5PFu2bGFkZIS+vj4WFhaI45ggCJienubkyZNMTU0xODj4umYBHz58mJWVFVZWVjh16tQl7Z47raE7AevlwlljDM1mk+npaSYmJpibm7vkOp339fX1sW/fPg4fPszhw4c5ePAgo6OjFItFLOsy5dBX0AmAG40GjUZjw0zhTCajAFhE5AZTACwiIiIiIiIiIiIit5wcWd5eufD8u78MCsMruGmF1Fg03RyNNMVPDVgRDTfBJAnJeovJxipRfgd7vusMe3e5fOqfD2IxhxNlsYxFYPeRApaTApevdvV9n/7+fsbGxhgZGWFqaor19XWiKGJhYYEXX3yRnTt3snXrVvL5PJlM5jXt8c4776RarTI/P0+1WmVhYaH7mjGGbDZLJpPBcZyrzuNdXV1lamqKM2fOUK/XL3vOwMAA9957Lw8//DAPPvgg+/fvZ3h4GN/3r7uFdZIktFotms0mrVarGzhbloXv+wqARURuMAXAIiIiIiIiIiIiInJLsxjhW/e2wG4xQJMfeeccpXgMK81iEos08bAcg+fkKLXKFKMWnuXx/GwM3iqPflfK7l3T/NY/24pvBURxm4AsnnP5WbWWZdHX18fY2Bh33HEHJ06coNFokCQJtVqNkydP8uyzzzI6Okpvby/Dw8NYlnXdQerIyAj33HMPy8vL1Go1nn76aZaXlwEol8uMjo4yMDCA616mVPkLwjDshshLS0uXVP9alsWWLVs4fPgwjz/+OPfffz979+6lUqlc9bqvJooiWq0WYRh2W1RblqUKYBGRN4ECYBERERERERERERG5pdkRtJyEDC7ZsJd//V6fFJcma7z30SaZJMakRTAJda9Oy+mh6dVIgm24cUwtd5xPnxrGdR2+6Z9/gr27h/hfvv0+vCt8g25ZFoVCgbGxMfbt28fx48dZWFigXq+TJAlzc3McPXqUbdu2MTQ0RKFQoFwuX/e+MpkM27dv5+GHHyZJEorFIidOnCAIAnbt2sUDDzzAtm3byOfzV2zRHMcxYRgShiFRFF0SAA8MDPDQQw/x7ne/m8OHD7Njx47XPbs4SRLCMCQIgm77Z7hQtey6Lr7vv+Zri4jIq1MALCIiIiIiIiIiIiK3nDRNCUyElzpEzjqZVpGmH+K7EUlcg2SI0A356H8r8sD2CGNiEpPihXkMy+SaJaq5s5h4FOwCnpuSRCm/8KPvZnBLhqzV4mpfoXuex8DAAHv37uXAgQOcO3eOEydOEIYhrVaLqakpnnnmGYaGhujp6cH3fXzfv65ZusYYisUiu3fvxnEcBgcHOXv2LGEYMjIywt69exkZGblqoGqMwfM8enp66O3tZXp6miRJsCyL/v5+Dh8+zLve9S4effRRxsbGKBQK17XGy0mShCiKCMOQOI67xx3HwXVdPO/yldUiIvLGUAAsIiIiIiIiIiIiIrecCEPCLDHbcYMizcwSbmRYbvbx0A/28UcfSBgb6iN2G8RWTIKNiSFx1vFbe6llF7BSm2U74af+fshXfUURJ4kYGkjwrBBiB16lCLa3t5ddu3Zxzz33MDMzw8rKCnNzc6RpyvLyMkePHqVSqdDX10exWGR0dPS6w1VjDL29vTiOQ6VSYW1tjSRJyOVy9Pb2UiwWrxqoWpZFT08Pu3fv5r777iMMQ1ZWVujt7eXQoUM8/vjjPProo+zevfs1zfu9nFdWAHeqjm3bxvM8BcAiIjeYAmARERERERERERERueW4SYy70kNainl2qcXX/E8WL/9uL81cQsM42FZEEHvEqUtiNYhj8NKQZtIgduDhzBE+8u/fTSUyfOt7Ri8EvhZkjAPJpSFomqYbwtE4jknTlN7eXsbHx9m3bx9TU1NUq1VarRZRFDE9Pc3TTz9NpVKhv7+fYrFIX1/fdYesnUrgTCZDFEUkSdINU18tULZtm97eXvbs2UMQBIyOjlKr1ejr62Pv3r0cOnSIHTt2kMlkrmtNV3O5FtDGGGzbxvd9XNclepVriIjIa6cAWERERERERERERERuOZ+eOMO3fsDlc79d4Jlj8ywUR3ANRJZFYCW0bYcskIktrBTSKKW3NM9H/9lh4gj++Je/jDg2pM4KAUWcJMRYCSb1gZjUamHSHHAh0IzjmCiKiKKIRqNBs9mk0WjQaDRYXV3F8zz6+vrI5/O0222SJCEIAiYnJzly5Aijo6MMDQ2Ry+XIZrPXvM9OWNxp5Xy91bOWZZHNZhkbGyOfz7Nnzx5arRaFQoFKpUKlUrmu9VyLTgD8yhbQxphuG2gFwCIiN44CYBERERERERERERG55fyr3zxK3X4P29o2DcvGSl2aLvhxQuo18VMXLEOTiHc/1o9xlvjovx+hGDXxmjDbcrCzKbk0pmk5rK1Brxez7jZZS7IUF9cw9jpBENBut2k2m9TrddbW1lhZWWF1dZXV1VXW1tao1WrMzc2xurqKMWZDhW+9Xuf48eO89NJLHDhwgK1bt5LJZN6QVsvXynEc8vl8d25xmqY4joPnedj2q/S5fg06gXmnShouVFBbloVt2zfkniIi8kUKgEVERERERERERETklhPHFleKUC0srMRgsLESi0/99TJf+3iOt33fOR7f/gJ//H0P8OBPzBDEDi9+0OWBH3mGsDXIX76/zHf8yic4dmIHv/MjEabZplardUPeWq3GyspK91GtVqnX67TbbdrtNuvr6zSbzQ1VrwCrq6vdgLjdbl/STvrN0Alefd/vHrtRa3jldTshcCccv945yCIicn0UAIuIiIiIiIiIiIjILSdoRyTJ5V9LiYhjh1arQdKG2bk28xNrxCvnWM2u8pmjT7M2P09sQv78r0pUz07Rbrv8xZ9bLD97jNbSKf6/j9VZW51jfX29+6jX6zSbTZrNJu12myAISL6wiDRNu0HnhrV84VgngL3cOW+mNyt4tiyr+7i4jbXCXxGRG08BsIiIvOV87MACnym9uNnLuO39X39452Yv4bb3DUcHePyIPucb7du+Wf+/EBEREbkVfcPRAb7/z/Tv5RvlUH8/vGNz11A3MdkoJbTBSxNSC7w0pBm4WI0Wx6cS5k6fIliaZuKZOf5kvo596gQzM+v8pzBD/eQUVjvHx/4wT/zCCVLj8NH/J2bh+BLx2jqfqqfU6w3a7XZ3/m8n5E2ulDzDhhbQnZm3Y2NjjI+P09/ff13tn3//wAH+5ju28cH2n78hn9mb7o4vPL5gjjl+j9/j957+PfjmTVuViMhtTwGwiIiIiIiIiIiIiNzSIstgpYZ6mFJdSFhfOspTn6uRLjxFcHKWJ5amOOqt0jhVJ3JX+a9TDeIViyQJ+MtPpawtASk8+f/H1NsxpCnnplPiNMIYc0nVbueYbds4joNlWTiOs+FhWRbZbJahoSHuvvtuHnjgAUZGRsjlcm96+2cREXlrUQAsIiIiIiIiIiIiIresJEmJTIoTJcwtrTL5wkvYZz/C5z7ZYmHyCEwvc2Z6hdg2OM2IwEk4U7MhTUithNV5g0kNFgnNpgGTQgrJRV+fd9oYd2boZjIZ8vk8+XyeYrFILpcjl8uRzWbJZDL4vo/v+5TLZYaHh9m1axfj4+MMDg7ied4mfloiIvJWoABYRERERERERERERG5xMVbQYO78OU4/97c8NPAyz//tM6zWAkgTwiQisRxSDE6UElkRDhClHhCRWglxCpaTYqIsYCj0OGQ8vxvsZrNZCoUC+Xye3t5eent76evro6enh2KxSD6fJ5vN4nkemUwGz/PI5/MUCgV6e3vp6enB931V/4qIyA2nAFhERERERERERETeMtppSnXfPs489RSjvs+wqjFvXSbBiz0cA05i03KOMzN5hqeef5LnXniJxZX17qmJMVgmxXItPMcn6/k4lo1nbBI7YqGWYFKfHdvynF1uEaZ7eOTvJVR6ttPT00OpVKJYLFIqlSiVSpTL5e7zQqHQDXxd18VxnO7s305raNu2sSxrEz8sERF5K1EALCIiIiIiIiIiIm8Zp1st3v+xj3V/jppNqhMTrE5M8MGf+RnclRVGfZ8eR1+d3uys1GLdTmlaKSsGvNoAp1c/xZmZdarVarfS1rbtbhVuuVymWCxQKhXJ+nl8N0dix/z536wTuxZf+3W7+MTftVhslPmGb7mTwUKmW92bz+fJZDLkcrluG2jP83Ccja2iOzpzg1XxKyIibzb9K0ZERERERERERETeMqq+v+FnJ5ulctddVO66i5//xm/sHm8uLFCdmODJP/1TPvHhDzPq+4x6Hq7CvJvGZz74LvqSOiY6z4+/bYD3lI/zXz8OcXWOJElI0xTLsujp6WHfvn3s27eP8fFxfuy/+gAAIABJREFUyqUKhR4XL5/HyhTxoln+4fdsx3EMJQ++7dsdnGI/fZZPvqe/G/J2gt7OPOBXC3YV/IqIyGZRACwiIiIiIiIiIiJvGd/54z9+TedlBwbIDgzw1Y88wlf/9E93j9cmJ1mdmOD0E08QTE/TPHuWtdOnb9Bq5WpcIDIG4wyzEsCvfjLDViuganLEsYUhxthQGuzn0J47ue9LHuWhvfvo7c2T2oP8wG/NcfT0HJ//lW/me3/pGb7/Bx5mbyWlENik2QDbyuLaCnFFROTWowBYRERERERERERE3jK23Xff63p/aXyc0vg429/97u6xuNVi9QttpDvtpFcnJmgtLr7e5cpVlNIMmGVIt/AHnzvBR56I+af3GNy4/cWTUp8oyjA60sehnQcZvudefuxffJTf/vkDPDNrUSuNka+4vFDdyff8b+tM/x99mMw8xIMYqw34V7y/iIjIzUoBsIiIiIiIiIiIiLxl9Oze/YZf085kqBw6ROXQoQ3Hm4uLGwLhzvO41XrD1/CW1HKZYIBxt0kmtHBig2M7GCcLdCp3XabP5TidxGSyWR5+3wLjAw/ipQ2IXaw0xcEhDiIaGNIw5Jc/cor3fbuhZOVR/a+IiNyKFACLiIiIiIiIiIjIW8JyHOMVi2/a/bL9/WT7+xl629s2HK9NTl4SDNfURvr6ufDY967y7AfbtI1F4rj4GQ/fdgAbgJQQ1zrNy7NfQqNZZyndx7h1FJIxmv4yJiqQEGOlERiL2HH5xEslvqxWYlfFUNjcHYqIiLwmCoBFRERERERERETkLaH5Joa/V9NpI73tVdpIVycmaKqN9BU9ayCw++h3qmRo4kclyraPm3fBcjAYSGOCdhF7fYFWugZJk9AxtK02vaHDkr9OnPbRdGP8pkuUguUb3v0v5zj/a33gepu9TRERkeumAFhERERERERERETeEvY9/vhmL+GKrtRGurW4eNn5wmojDe/7od8mst4HceZCx2fbo1Aq01cuYdsJcZiCSSBdo1ZbZnV5FcImThzgWRF//+6TLNtN7OQeICG2Uuw0JjUpzXiQtsmQ2exNioiIvAYKgEVEREREREREROQt4dCXfulmL+G6Zfr7GbpcG+nTpy9tIz05uUmr3BxhWCGxIix8jLFIbY9iqUylp0ilr8jSQp0kTbHSBvXaIktLyzhJm9iKMVGGX/uhewFI7SYWFiaJsS0LY6UkSYbI2uQNioiIvEYKgEVEREREREREROQtobx792Yv4Q1T2rGD0o4dbHvXu7rH4nb7kkrh6sQEzYWFTVzpjWOnDpaJAIcEMI5PodRDpa9MseiztHChBTS0qK4ucf7cLGGrgR03aFk2vrXEGhUK2JjUxkkTUgyYCAM4Zh00BVhERG5BCoBFRERERERERETktmcs67YKgC/H9n0qBw9SOXhww/HLtZGuTkwQ3eJtpBtugB9YhA6AwTMx5f4tDA0NUi4Pk9qLpNSJ04RgYZkzp+dIms8Shv1kk4TA6qOUpBhcImMRWwGxCSAy+KaFm+TA3uxdioiIXD8FwCIiIiIiIiIiInLbK+/eDcZs9jI2xZXaSK+dPn1JMHyrtZFO0wu/xnaCFRcoZupsGRpkaLhIecJlpQqYkLV6jVMnJ0hqY7TXQ8KWReq3MaFP6rexIpeEt+afDxERuf0oABYREREREREREZHbXs9tXv37WhR37KB4G7WRtizI9XkUBvfz5OQW/N5B7LVVSAxhO2Lq9AlCa4TGcspibZkf/qWANXJ8/AMFsAJMUtzsLYiIiLwhFACLiIiIiIiIiIjIbe92b//8RrliG+mlpQ3BcG7Llk1a4RXEFjUPipkeKmMHWMwe5v7cORZW5klrq1hJzNz8eSLreWrzHlNTp/ibcxXstILBYKchgeNt9i5ERETeEAqARURERERERERE5LanAPj1yVQqDFUqDD388IbjSZLQaDRot9tUKpVNWt0XGPB8i76+EnZ5J+PDdzO3epbpWh0IadVDUusca+d6OPrsC0SNezEFtX0WEZHbj7XZCxARERERERERERG50dQC+lJpZ4DuK55fz/vX1tY4duwYH/7wh3nPe97D4ODgG7nEa2curN8ApaKNVdzF+J0PcOfeA6R2hcRAkoCJFmkunOTZF54jqU4Rthe5/p2LiIjc3FQBLCIiIiIiIiIiIrc1r6eH/Natm72MTZemKUmSEIYhYRgSRRFxHANg23b3YVkWlmVhjLkkGDbGEEURURRRrVY5c+YMTz75JJ/97Gd54YUX2LZt22ZsDb4Q46YpeJ7Bz1XYve8ukvVJPvU3Z4haq6TtGGjTri/y3AvP0FrZRrYwSqtd3qQ1i4iI3BgKgEVEREREREREROS29lZv/9wJfuv1OtVqlZWVFZaXl6nX60RRRJqmOI6D7/v4vo/ruliWhW3bpGnaDYQBgiAgDEPq9Trnzp1jcnKSZ599lmeffZa5uTne8Y53XNe6jHk9LZgtrDglJsVJDH4EJk0oOhYfe7/HiFWkN6zw9i+7i5c/3+b82ZcIY7DSJidPvcxjD+7mwXfcz9J8i9gOyLThwlfmaff6IiIityIFwCIiIiIiIiIiInJbeyu3f07TtFutOz09zfHjx5mcnGR2dpbl5WWCIMAYg+u6ZDIZMpkMrut2Q+DOI01T0jQljmOazSa1Wo3FxUVmZ2c5c+YMS0tLJEnCT/7kT17TmjqhdOfni59fqyhqERLTbgXUkwQ7aNFq2LjuMo+MOKy1Rhje/QjveSzArZ+jvjzFcm2dxEpYml+hfu4piq0BFs/3EEeRWkGLiMhtQwGwiIiIiIiIiIiI3NZuhgrgtWaLYugSlmzcN/G+aZqyurrK8ePHefLJJ3nqqaeYmJhgfn6eRqNBFEXd6t6Lq38dx+keN8Z020HHcUwURbRaLRqNBo1GgzAMu/fbv3//FdcSxzFBEHTf12w2u22owzAkjmOSJLnmMLi5/BJpYwsvPZPl/MsLJAvTPPdClowTkaWIYzVJ6i36czkGtmyhXBmgVm+QRNBIQibOLPL0M2cZ3zpB2O7HTVtA5nV+4iIiIptPAbCIiIiIiIiIiIjc1m6KANjNMP79qzzxawV25qFmlimYDEFcIGPfuFbDjUaDs2fP8vTTT/OpT32KI0eOsLCwQBzH3Urci11u9u8r2zRf/L7Or8YYbNu+4jo6Vcjz8/NMT08zOztLtVql1Wp1ZxJ3QuBOW+qL73fxOjo/F2eOkNY+x//9xw9y+vwKpbMv87GPPoRnt/F9F8dxsG2bWq1Gvd7EdT1s2yWOA0gjVhdmOXH0OY7trjC68iX09ryM334bW3pzlJt1ItvH5vW0qBYREdkcCoBFRERERERERETktnYztID+qY+8iLF2Mu47nAth749m+OT7M9w3mHCjZs3Gccza2hqTk5M8/fTTPP3008zNzXUrbC/WCX0v99rFr1/uuDGGbDZ7xerfJEmoVqucOHGC5557jmeffZbTp093W1BHUdStBO5UAV9LK+g4TvBslz/9z0dpuwYrLfLxj/9HjEnw7EI3AE7TlGazyerqKnEcd98fhiGzs7NMHl/lZ78PHrpvP0kCv/ljO8g1E5LEaAywiIjckhQAi4iIiIiIiIiIyG0rPzKCVyxu9jL43JMRbuATAv/qg8+Rae3nvh4LN4nAuvavaduAnQY4xnvVc+M4ZmVlhTNnznDixInunN5OaJvJZPA8D8uyuq2XOyHsK6tuLw6GO8Gq67pks1l6e3vZsmULX/VVX3XZdTSbTc6dO8dTTz3FJz/5SZ577jnm5+cJgmDDdTtru9jVguAEA8QYY2ElCWnqYeyQFA/Sc919XryHV4bL6+vrNGrr/A8/O0mmf4QX/9N+fuCXZviDl7ey/usNbHKv+jmLiIjcbBQAi4iIiIiIiIiIyG3rZmj/HBGy1BomKJ3G9sb522cC0tRg+TXitJcrN06+lB+3efwnPsNjDz7Ev/rmAq2kRikuggfGbCxXjaKIWq3GwsICCwsL3Vm9lmVRqVQYHx9ncHCQfD7fnevbbre71bidQNi27W5walkWnueRz+cpFouUy2X6+/sZGRnhS7/0Sy9Zb5Ik1Go1JicnOXLkCEeOHGF6evqy7afh0jbPrwyEN5ybJhgsEhJiC0gTTJpCGpGml69kfiXXdfGyGaKwnyjagWU3OLViSMKEduq8qfOaRURE3igKgEVEREREREREROS2dVMEwKlNFFU4vKdGBNTZg+0sQTrA+379BG8bL/KP37kFEy+CXwTbv+x1GqyRSYt8dv1RTv/VLP/mm4vs/rFpcs1RTv9GDtxLA+BGo0G1WqXRaAAXAlXHcRgdHeWhhx7i0KFDVCoVkiSh3W7Tbre7s3g7LaE74e/FlcOZTIZCoUCpVKJcLtPT08OuXbsuWXMcx6yvrzM9Pc3ExATnz5/fUIVsWRfW3Jkf3JlB3HG1ALjRCACLXD5LOwoxUYjj5TCmRRy5JCRYsY2xEtLUJkkgTtpgwKQuXsYwvmM747u303g5xrgpkZsnb87Rg0P2GqqsRUREbkYKgEVEREREREREROS2dTPM/22mFpaBb3pbL3Ea0ooLPDy+RkDKnz9b5C+ecfm+dwbs/uGXmXLup/0rNf7khSZD2T7u2hnipzFkiuSCIg0vphjB4fE6MZCt7qDtroFT2nDPTnjbarWo1+tEUdR9zfd9hoaGOHDgAG9/+9vp7+8nSZLuPN5O5W8n9L24WtcYg23beJ7Xfbiui+u6l23fnCQJzWaTarVKtVrtzuDtBMn9/f309PSQy+XwPA/btrFt+6rBb8d/e26BZlLhbff4nF1qc3zG5rGDKe005KXTbcYHsxBXmZhtUykkuLbFmemQTN5h10Cbs+Ew6db93PfAPeTO9nGhntgCXn3+sIiIyM1MAbCIiIiIiIiIiIjctm6GCuDn5tYIrSLf8kgfdQJiO+FbHunDGEjbGfbtq9L2SzTiA1SiBqnby0/96pNM8wDHf3OZ3/orj5/7fZ9jv22z0rBwApfv/aohwgiW7BwP73sezNCGexpjiKKIMAy7LZ07ga7v+/T09DA4OEhfXx/lcrn7vovbMneeX1z926netSyr2xL6SjohbhzHBEHQDX87KpUKBw4c4MCBAwwPD3cDYMuyNlQCX6kd9LHGMRbTPXz9txT53EsNjn82w9d/U8hKavHU79R49Ct7qHh13v+H53nkYI17tpX5wH9O6emb4+vf08PP/dkQk+Gd3H3/dvxPGFrdfV/Hb66IiMhNSAGwiIiIiIiIiIiI3JaMZd0UFcA/9wtPEVlvx48tnjgfENkZvuKxDI00InZt3vtYiToJVTvHO7bOEJke5vwx7LiO723hI0+fIrJ6sO0Cf/SZGWxnhHfc1UOYQj4xvO/LL91jJzSN47hb1dsJUI0x3ardTuvli1+7mosD32up0rUs67KhLkA+n2fPnj28/e1vZ9euXfi+321RfXEQ/coguOPf/gVkzeO8+11laqUl8tMl3vUem+U0wy99+izvfOcQQ70r/Pxn17n/4SpfeV+ZX3/KZWTgKF/9Ndv4tecNtUKR4eEBHKtOmG4Ms5UDi4jIrUoBsIiIiIiIiIiIiNyWenbvvqaQ8kYKaPPi8git3AyWN8q//HefJeZdZFzDc7MBVuzw3rflSdKE1MB7Hy0QRlCPt3Fvdp5c4jP/0nZwGnhWnj/660UajOBbbX7/k+ex2cY7D1Uue+9OC+ZOC+dOO+dOBe8rA9kboRPodtpFX3w/27Ypl8ts3bqVsbGxbgDcWeeryfT1YzVGGBnOUh5s4WV7Gd7uk41sCm6Z4p6I4Z4+4kqbLeM17ryrj3A0ZWA0y/ZDozT65+htDOO6YKx5krCfzupSIN3cPzoiIiKv2ZX7c4iIiIiIiIiIiIjcwm6G9s9u0+d//5ERBmsniWPDfHMMQ4gx8JP/7q9JUpuyMcysxGTSFl/7eD912yb0XL7261KS1LBq5RgsGNIYJs4OYJwVYnz+8K9XCO025auEpRfP8E2SpHv84vD3RobAnQA4k8lcEgB3WlQnSbKhUvjigPpqjzgFY3mY1ILUIrEtEmPIONDIhpQjm3Jq4ZgQyxgs28OOW/SULXqbTdy4j1q+TpxYRObC74mIiMjtQBXAIiIiIiIiIiIiclu6GQJgk4X33p3nvf/xHReCWDNCbzoNjHG0fi9YET4uH/jN5zDciWsnZFnjB3fVeO8jwzSMhYXFl9y5iBP3Me8P8YA5hx31Mn8qi5+AMS0gu/G+l5mfe3EFcBzH3ergG6VzL9d1uxXAnZbTAEmSEARBNwS+fglgSE1CbCXE+Lik+Cblhx6vs723RDUN+IF3OLzj7j58t8U/eleedx9IaRd7+MEvO00jUyGTRpgkA0ToK3MREbkd6G8zERERERERERERuS3dDPN/L2aM4dMfyvFfPhIBNk27hy3xBIl1gCdPxNiJT84E/I+/+Fl+4h+/kxHHhiDm1Icsiu426iR89ehn2NdTpmWNMuONM+yv46RluEz16pVm/cZxTBiGhGG4IRS+EfsFNrSAvniGcBRF3cdrCaLbbkwUtnFMnsgK6WlFJKlNIYV/811lAHrJ8HPf0XmHyy99K8CF1376W8YBSJM2sZ3HDR0MMdnYoeU1sdLMa926iIjIplIALCIiIiIiIiIiIrelm6EC+GIBsN1a58e/cwd1agy01njkkVGsOGbF78WPz2CcnfzdmZ08+E8czv0HizDTxsMmCrJkHZs/+KcPYjkJEDDxHwxR0nPFQX+d4NX3/W7wmqYpYRjSbrcJw5AgCN6UFtCe5+G67oYAuBNER1H0miqAvSBLNm5h4bOl7tDwE9zYJnaXsbn8XOTLrjH2Ca0Ux1ogScYwznkywThtG3LXvSoREZHNpwBYREREREREREREbjt+tkB+69bNXgYRIQng4eK1U1q+RwZDPizxzIfzRClUqzbN1h18xQOLNKOAmXoPGf85ms5dPPpjk4zlqvzRz9yLadYIrV5Sq4Fv2pSwIbG5bPkvYNs2nueRzWbxfb9bZRvHMY1Gg3q9Trvd3tAm+o3UqSzuhMAXVyKnaUocx93w97VUAPe6a9QaGcLEIc5nKDZbJJZNnPRhXyEUv5yINru8JdaDYTJpQimzg1EnJhvUwCtd97pEREQ2mwJgERERERERERERue30D2/f7CWQ0sCKczisgXEJ/ZhM4FN1Gng25K0mCVmqPfN849/r4Zvv97EcjzbD3Nu7RilZYWW1yJnGIKFp8tmZiHvuWKEUFwkcBysF4175/rZtk8vlKBQK3SrgJElot9vU63XW1tZot9skSbKhMveN0gmUOwHwxfN/4cIM4CiKuvOIr9df/Pp7KdZdTFTj2w7n+fYHcxAExF7A9dTuNo3PX/7CGCYoUbMT/s8f3Q6OoZXWXzFZWURE5Nbwxv+tLiIiIiIiIiIiIrLJKkObHwCHuFgxBEmR2MRAzKrXxgsMc3MW3/cbDazQ5uN/uc6f/J3NlxzqoUECJubrHndoWX1UrTIPlBp4qeHb/nUvj35rjcBYWMk6Fi3sNLzi/R3HIZ/Pk8/nyeVy3QA2SRLW1tZYXl6mVquRJMkNbQNtWRbGGGzbvuQ+SZK85vuXcDF5IFfCeAXwLchmsO3ra9xcdMCnjOdZlHAwWQfj2mRV/SsiIrcoBcAiIiIiIiIiIiJy27kZKoDd0OXPz0e8ND9D0Iax71nkPf9omVYG7v7XK/y/T4bEtPjA7x0hSj1cK+Kzx1ZxYouv/oqdtGhQaOX5pscbWFGeanadrcMuiR3zpd/9KZZSnyC9cpNHy7LIZDL09vZSKpW67ZiTJGF1dZXFxUVWVlZoNps39HMwxmBZ1iVtnjs/v5b2zyIiInJlCoBFRERERERERETktnMzVADPufAPf8rgWYPEmYDQzvNN714jl+QgtugrrYCTodm3D8/USC3Db3/0LCY1DDbhb1+Kabp1vvwr97Ca2vRHPfyDL3FxUpcP/fTbyAPeVSpnLcsin89TqVSoVCrkcjnSNCVNU2q1GmfPnmVmZoZqtaoQVkRE5DaiAFhERERERERERERuOzdDBfC//dDTJK7Frn6X+SRDQI4v/3vjhKaNjc0/eGyAwMSsVe9gKHsOk9i8cLpFOVmkmkmpTi3zX34iZbsFeWeGid9t8J1f1SZo1bhjrI+MieAqnZMtyyKXyzE4OMjWrVvp6enptoFeX1/n7NmznD17loWFBYIguOGfx41sMy0iIiJfdOX+ICIiIiIiIiIiIiK3oB3lHfjZ/GYvgz97KiSwW9hk+bnf+DyRuY/xIViJU7ASvuaRLAmGdQN/8v59WNYKn/ngQ1TSFs3U8HXvHCODwYQhrr2V1ARYyVZyvkWaJpjEAvvqa8jlcgwMDLBjxw62bNnC+fPnabfbBEHA+fPnOXHiBNPT04yOjjIwMKCQVkRE5DagCmARERERERERERG5rRwcPLjZS4A0ZpmdZK15Uhf+6khCSoJtwS9+6CniyGHvoEfYdnDDPO56yLl6kXvft8SPfPg8Hil/+0yDRlIFq0maBsRhSkJMalJMCqn96lW7nufR39/P6Ogo27Zto1gsdkPe1dVVTp06xeTkJAsLC4RheKM/FREREXkTKAAWERERERERERGR28rNEADHxiJqV3hwW5sUqDNIMVrFYZWPPxGTxiHrK6v81h8cJW7U8ZM2i+ehtW541yGXlRN1vu0DS3zvv/gc55sOO953jK/84WM0IsPRlYDpZJ141e1W84Zh2H1EUUQQBLRaLYIgIJ/Ps3XrVnbu3MnAwAC2bZOmKe12m5mZGY4fP8709DTr6+uaBSwi8t/Zu/MoSe/yPvTft6p6n+6eGc2MZrSgZTRCQgtCMjsyNqAYxwQINsQ2dojtLE58r23OPUmuY4cTKzjcLA5ecuOQe/C1c2Oc4A3jBbDANmCDkYwiJLSg0T7SrD1L79XdVfXeP0Q3GjSSuqeru7prPp9z+tD9VtXv9/SrOk1Pf8/z/KALGAENAAAAAHSV63Zd1+kSMlkWGUgl73jNeSnKRuaa5+fll45lfGIkx6Z3pH/2j3PHHcmv/e7hzB8r8+d/ujWf+8qJzB3fkoP3D+f3aiOZGpvONa89L1+748EcGyvy0gvuzT33D+RtP/tgzq8O51f/RX9q6U9RFCmKYinYLcsyrVYrrVYrRVGk1Wpleno6Q0ND2b59e/r6+tJsNtNsNnPkyJF87Wtfy8MPP5xLL700w8PD6enpWdX3XpblUpfxYj2CZQBYPwJgAAAAAKCrbIQO4LuemkjKkbzz5u2ZSCPVVk++88ZGHrz7kRSHP53e5kP52O+cyn23n0hvq57f++2+fOHuk5ltDuePf3NLHp0sM3+gPw9dsidHH9yZhUePp3ZBX377d+7PxAODGdl2JH/we6MpyzLVajWVSiWVSuW0wLXRaCRJenp6srCwkCNHjqQsy6WAtyzLTE9P59FHH80DDzyQq666Krt3787IyMiyzwKem5tLkjSbzaU1m83mUgDdbDZz7NixnDx5MvV6XRAMAOtAAAwAAAAAdI1KUdkQAfBP/LtPZ6b3relJLXcenktrocjVu8fzlc9/Nt+2567cd99d+cQfHU1lvJXW3Hi+8Jc9mZlsJX1lvvj5Vibme1OmJ5/+k/7U52ppTmzNPbX+3LeQNB4/lal6K7/9231L3b+VSmXp81artRTELgbEtVotCwsLmZqayvz8N84ObrVaOXr0aB566KEcOHAgV1xxRYaGhlKtVl8wBJ6fn88999yzFPa2Wq00Go0sLCxkfn4+8/PzaTQaOXHiRO69994cPXp06ZzhxSB4MbgGANpHAAwAAAAAdI1rd12bStHhQLFsZHzmmtQa0+kvR/PP3/+XmS225dC9D+dTX/5U7vjCV3Lo0KGkLNIqKilaC5mZbiUpk/lWTqaWlLNJZTpHnyySMilyKE98tUyjqKRsVXLiQCXHWk8HuYsB6jd31y6OYl78WLy22Bm8qF6v5+jRozlx4kRmZmbSarVSq73wn44fe+yxfOxjH1vq+H1m+Fuv1zM3N5eFhYVMT0/n+PHjefLJJ5c6houiSK1WS19fX3p7e1d7xwGAZxAAAwAAAABdYyOc/5tGLXf9yp5MV+ZTbbXykj3b8tSjU7nnwOfzwFfHc+TIkbRarSRJkVbKSiVFypRFmVpZTaPaTE9ZplHWUpatJK0UaabRSlK0kjJpNXrSytNrLK71fIqiOO1s3tPKbTSWQtzFruHl+OxnP5vf+q3fWqphMQRuNpunrdloNNJoNDI3N/eN77soMjQ0lNHR0QwMDKz63GEA4BsEwAAAAABA19gI45/LSiv91Uaq5fbMViu59UdG8j0veyIf+2gzp44+lGazuRTEDgwMZHh4OAMDA18f3zyfVtmTxlwj041TyWwyMVtPtRxM0TeTxlxfkkaK3lb6ir6n93vGub9JlkZCL1oMXcuyTKvVWgqDF58/OjqaPXv2ZMeOHRkYGFj2SObPfe5zefjhh5fWfub/nnY/znCtv78/e/bsyYUXXpitW7emWq0ua08A4IUJgAEAAACArrERAuBUx9Pf3Jb+tNIsyrz8Jx/PS2uH0po5lmNjx5cC0aGhoVx22WXZt29fdu3alf7+waRsZWFhOnNzrZyaKDJVP5U/+cvxDAwezpWX9OXL95XpKVp51TUDaZVPB7WLXbuLZ/8uhqmL5wI3m80sLCwsdeDOzs5mfn4+ZVmmr68v+/bty2te85rs3bt3RWHs3XffnWaz+ZyPL4bczxxRXalUMjQ0lL179+amm27KFVdcke3bt+sABoA2EgADAAAAAF1jIwTAjfFtOTI4m93pz5OVMoeLS/K3Lnk8D3zxRFqtWoo0k6LMlm1bc/2+K3LDd3x7brj8qgwO9KUsy8w2W5lqtFLMPJmx45P5ltdekN7+A+ltjuSRyf256rJmvueNFy4FrItjlhcAmcr4AAAgAElEQVRHPC+GwJVKJWVZptlsptlsZm5uLrOzs6nX66nX6ymKIiMjI7n00ktz1VVX5bLLLsvQ0NCyOoDLViv/Z6uV8iUvObubNDeXfOITOf6JT+TTZ7cCAPAcBMAAAAAAQFfY1r8tl269tNNlpDpY5nU/OpUHPzyfT3/qaIYaM7ngvKncPtVImVaKlKlUhnLiRPKivS/KSy+7Kde/9OKcqFyYi/qSW279fL72xI7c98uvzxNPPZzXba+lNbc3PWU93/W3X5ZacyA9xdNdus8c/7w46rlaraYoiqWPhYWFpXN5FzuBG41GkqdHMY+Ojua8887L6Ojosjtxx/fvT7mMs4cBgPUnAAYAAAAAusJG6P7NXHLLf7wzk8W+VMqB/PuPPJpGY1da8ycyPjaRLB6HW9SykCszNtCXXedvz1t+djY7B7+W3/93V+Xxo9ekeV5/duxq5C0fWMgjR2fzxH+/PlvqRWb7Gulv1pJqedrZuovdv8/8/JlfLwbEz/xY7BSu1WqpVqsrOof31P79bbtlAEB7CYABAAAAgK6wEQLgmUqZux/cnd3njaVVXJ6x3stTbT2Vxmw1B8YOJpWvd+4WrfT3Hsr28y7KbN9w7pm6MP/+zU+lp2yl0dqRm7Z+NUVenCcndqc12MyWtFIOnMpAc0eKnoUkz+7UPVMIfCbP99hyCYABYON64cMcAAAAAAA2gY0QADerRcrWhfmeVw6kTJn51s6cN3gqC2UlQ739KcqFlK2k1WykXm7P+UVP/uyeI+npXcj3vuXCHE01rYHkba8uU6aaaqsv1+4eS4oi//a/Hc18JpPUz7j3M0Pd5wt4Vxv+Jk+PgAYANiYBMAAAAADQFa47/7pOl5Dxr2er3/fabWmW8yma/XnzTaOpFpVcuGdbKkXj689sJZlOZWE+H/6f/ys9zWZGFpLPPziRWr3M2//GdZmfrmQiQ3n7TaNplcfz/r/Ylr654ZTZ0qlvb4kOYADYuATAAAAAAEBX2AgdwP/yV/4q1ZS5ZHd/Ti30ZrA1nde9/PwM9CTVauvps3mTpGylWp1MY34mk/VLUms1U6u18oar+vOpX2nkgr75/PVjk+krkh9520WZytZsmd+Tsd6FfH2FjpmfmMj0wYMdrQEAeG4CYAAAAABg07tk6yXZ1r+t02XkM18p06jOpFYm//pX70gro7luR18G+iqp1bakrPSlTJFKWc15/UUm6zOZL3fkvNp9aaWSbQu9uaHWk1o5m//7Dw+kUpbZUiZ3PjyXuUqypfXss3/Xm+5fANjYBMAAAAAAwKZ33a7Oj38uy1ZmckV6a4dTVJNP3Tmf+RQZqk6nZ2gkg4NFapVKUinTykJ6qs0cPdlIo3U0+y5OelrzadWSub6kLAZzxxO9qZTTqRTJf/m9R9NM0toAf9F1/i8AbGwb4NcFAAAAAIDV2QjjnxtFkWZ9e156STNJMl3uS1/fwTQGKvmdPzuaR44Ppq+3SK1VS5Fm6nMzefzJY2nOTOa733B+UvamWTRTlAupNHoy1jovfX3H0yha+evH+1MrptKsznT4u9QBDAAbnQAYAAAAANj02hEAl2WZsizP+vVTKdJfVvKO125PpWyktbA1r7iomfPOG85XTlyTozO70zfSn2a1kSKVTE/P5L77H0hj+tFctr2WqXwtZTmXZquZxtxcKnPb8rJLJ5KyklNzu1L0PJnhsn/V3+dq6QAGgI1NAAwAAAAAbHpnEwC3Wq20Wq00Go3Mz8+n2WwuXTubIPjug5MpU+SdN5+XqVbSqvTkna/dlZ6e4bQGL8ye87dm+9ZtqTYraaVMa3Y2Tx48kOrkVzN99K/zKx9vZu8PDabe6s9Ub29qjeTvvvnCNBtJ2RzJjZfOJ5XO/0lXBzAAbGy1ThcAAAAAALAalaKy4jOA5+fnMz09nenp6czOzqbRaKRSqaS3tze9vb3p6ek57aMoilSr1VQqlRRFccY1f/Lf/lmalb+ZwdRyx9F6Fipb8pbX9KdR9KY1cEFe/aqXZfzB/Xn4/hMpWidTls00p2eS8UN56pFj+didA5mr7cxgz858+DNPpbe4KG+4fjQLSXqalfy9N1/Qhru1OtMHD2Z+YqLTZQAAz0MADAAAAABsatfuujaVYvmdsTMzMxkbG8uBAwdy4MCBHD9+PHNzc6lUKunr68vg4GCGhoYyODiYgYGBDA0NZcuWLRkYGEh/f3/6+/vT29ubWq2WSqWSarWaokiO1K9MWZlIim35mQ/8ZYryloz0JXcfq6fWN5S/dcvL89nG/Wn2PJZyfjzNspmiOZWe2cfz+EOPZ/+jF6e1vZZakt/57PHMVC/KcLWe//anR1LNRXnz9TvW7iYuk+5fANj4BMAAAAAAwKa2kvHP8/PzOXLkSO67777ccccduffee3P48OHMzs6mWq0uhb8DAwMZHBzM8PBwRkZGMjo6etr/Dg8PZ3h4+BvPrQ1lZrY/vT1PpNEazYOzu1JmNpWykkt3D+Uj/3w6F/f15v47r0hluJpiZijNmXqSehYWjuTRJx7JzPRNedGeJ1JmNPcd3JJKbTIL6c9v/vmjma/tzNayN8mZu4/Xi/N/AWDjEwADAAAAAJvacgPgVquV8fHxPPTQQ/mLv/iLfPrTn84jjzySycnJtFqt1GpP/7n0mSOg+/r60t/fvxT6LobAW7duzejo6NLHluHhLDzZl9ff2MgDD9Yye6qVwd4Hc/LEBaltOZXXXbo1E+N9ednLdud73/KG/NmnPp7DsxNpFUX6y/k8+NRYarN/kZv2HMl865o0sye7h4+kyKW55/BwWpUTqWVXkuoa3skXpgMYADY+ATAAAAAAsKkt5/zfsizTaDRy/PjxPPjgg7n99tvz4IMPZmJiIkVRpCzLNJvNJE93CS8qiiJFUSyNel4cAd3f35+BgYGMjo5meHg4A9vOyxULZWpHzs/Hfu/uzD6+J1deO5/PffGSbB+9NLuHDqfR38yO9OSCHQPZsX04R49V0moms/OzGT9wb97zt2/Id75+X2ZmWmk2+/OaS6dTtorUy/OzffixpLJ7rW7hsgmAAWDjEwADAAAAAJvacjqAi6LI/Px8xsbG8thjj+Xxxx/P1NTU0uOVytNnCLdaraXnL37earXSbDazsLCQer2+FAovBsO9vb0Z6O9Nrbc/9YP92f/VgVw/dEm2HhnM7/3ul7Nt67bs3LEjPRfsTG3+VOaarfRtGUlvb39aM7NpldUcHW/miYP7M338hjx1Yia1xtb82PftS6OZ1Br9ecUVzaTo7PjnsiyNgAaATUAADAAAAABsWlv7t+bSrZe+4PPKsszc3FzGx8dz7NixpbHPSVKtVjMyMpItW7akWq2m0Whkbm5u6X8XFhbSarVSluXSaxY/XwyGp2fqSXEyR4pKKmmlp/ZEegdaGRjsz1D/1oyMjGT79u0ZGhrK/Px8piennu48LpJUGpmZPJyjjx3Ok08dyR/85udTa31XXnxemZlGmVqrkve+a98a3sXlGd+/P+XXv38AYOMSAAMAAAAAm9Zyz/9Nkkajkenp6UxOTmZubi7J052+AwMDufzyy3PllVfmvPPOy8LCQmZmZjI1NZXp6elMTExkfHw8s7OzqdfrqdfrpwXDSTVpzqcsK2kVrTSTNOfmUp9byMSpZoriZGq1Wmq1Wvr7+1OpVJa6iZMkzWShlRw5eiQHj+3P4wf3pq91ML3FjvzrjzyQVF6cq7f3t//mrZDxzwCwOQiAAQAAAIBNaznn/y5qNBpLIe7ieb9JMjg4mL179+Z1r3tdrrzyyhRFkdnZ2aXwd3JyMhMTEzl16lROnjyZ8fHxTExMLD02M1XPgaOTqTbn09PXTGO2J9XMp1EkRdlIWZZZWFhY2n9xfHTrGd20ZVlmemIiY0cb+Zd/rzc3XHd+Ml/Jrd97Sb7tWyqpFa0klXbeuhUz/hkANgcBMAAAAACwaS23A7gsy6WRzrOzs6cFwH19fdm1a1euuuqqXH/99ent7V0KbOv1+lIYPD09nampqYyPjy+FwOPj4zl+8lT+yx9NZe/owezZPpPPfXk8RWM2e0bnU5+bztTseFoL1RTNVoqeRhYWkrJ89ijlk0OtjPT15Ls/MJfvf+1j+cV/9aJMNAfz5itaqc9Xkr623bazogMYADYHATAAAAAAsGmtZAT0wsJCZmdnMzc3l7Isk3xjBPTQ0NDSR3//N8Ytt1qtpbN+G41G5ufnl0LkmZmZTE9P55HJkXzovsfy/W+fyWjlQP5i/FRevudoXnzBVH7zE49m29b57Owby5GZVhYmp9OYm029PptWGilaPSmKavp6itw0clGql+9J69CrsvWqw5mbT275vsfSe+lM/urnX9L2e7dSAmAA2BwEwAAAAADAprXcEdCtVitzc3OZmZlJvV5Po9FIklSr1fT392dgYGDpfN5nqlQqqVQqqdVq6evry9DQUMqyPC0Y/uUPfTlbd78u3//dCzk0syWVz9yVf/DDZfr6TuUj9x/PdfuO5dUXjeUD//PJDLQeyU03DORLdz6URlHLJcMnM9c7kJ17dudbbroho0PXZKBo5R+/85o0WpU8PnRRfuJbHmz7fVup+YmJTD/1VKfLAACWQQAMAAAAAGxKl4xekm0D25b13Gazmbm5udTr9dM6gCuVSvr6+rJly5b09fWlWq2+4FpFUaRaraZaraanpyefu6+SVm8zF+/eml/48J0Z3Hpd/tabyhyd68uWF+3PP/mhbdk5fDj/4fZH88YXP5k37RvK7UcPprf5YN52Sy2/9tlqHp7dlX/1Hd+S//QnSTmwJbuqM7njsVZ6i5H8yPd2vvvX+b8AsHkIgAEAAACATWkl45+bzWbq9XqmpqZSr9eXrlcqlQwNDWVwcDC9vb0piiJlWaYoimWt2yoXMp0rMtB3KpXaaD7zV5U0q2V6B/vyq7/556lWvzWvuDmZm9uR2sXb8r/90Muzq386PX+yJTdf/IW87Z3n5VcfPpFq/4ty003bsv9jzTQHGynTn1/66L1pVq7Lea1aUl1ePWvF+GcA2DwEwAAAAADAprTSAHjxzN56vb4U8lar1QwODmZoaCh9fX0pimLZ4W+SNFNkob4tL3vxeMqUmSouy2CmU8tAPvalMlO9lVy40MjPfeS+9M5cn1e9rMzJ+SLZ0cg/+kdvypVXVpPtlXzr3s9m984rM7tQSW//sZS5JF9+aiiN2lT6MppEAAwALI8AGAAAAADYlK47f3nn/ybJ/Px8pqamMjk5mfn5+aUR0Ivjn4eGhtLT07PiGsZTy2BZ5vteuSULWch0ayAvv+xE+hbKfPFDr8+X761nplrLbf/r7tSHr0hvvch//uhdKSp78oaXXJS5Vi0D1Ube89brM1cMJM1KXnrR8RTlZTlVPz9l9XCKyuiK62o3I6ABYPMQAAMAAAAAm9JKOoDr9XomJydz6tSp0zqA+/v7Mzw8nC1btiyNgF6J/Ycn06gmf/v1O1OZq6a/VeZ7bt6TStHKjqKW77j26T/BfvaXfyCNJM2ylR9/96uz9+JmGj3VfOLz+9Oo7cwbbrgwE80k5Xz+0XdcklYjaTVHcuMVB5KisqKa1oIOYADYPDr/mwMAAAAAwAoVRbHsAHjx/N/x8fFMTU1lYWFh6bGBgYGMjo4udQAvdgYvu47adH7infVsqVRz3/F6mmXy9teWWThDjlxL0ldUsqea/P1vr2Zrkh+4eV+O/tehjLYm8oefPZai1ptbXrY1c5Wk1qrk7/2N3SuqZy1MHzyY+YmJTpcBACyTDmAAAAAAYNO5dte1qRbVZT232Wxmeno6p06dysTERBqNRpKkVqtlaGgoW7duzfDwcKrV6oo7gF+1c3de9TeT5vx8bjy/kgO/1kpveSTz5UiSLctao6j0pExP/udnH85CtmWwMp7//pmkUuzIm1+2c0X1rAXdvwCwuegABgAAAAA2net2Lf/830ajkampqZw6dSpTU1NLXb7VajUjIyMZHR3NwMBAqtXlBcpnUu3tTaXam75qNUXtgvTVlhf+JkkrZYpWK3eM1dJXfTL1nJffv+1Y5ivNDJ91Re3j/F8A2FwEwAAAAADApnOm8c/PNb55YWEhU1NTmZiYyOzs7NL5vz09PRkZGcnIyEgGBwdTq3VmYGKlUWS+1cq37kwuHGgmjSJ3jA2kt3o81WJlI6nXgg5gANhcjIAGAAAAADady7dcnpmZmVSr1VQqldRqtRRFkbIsU5ZlKpVv9L7Mzc1lcnIyp06dWgqAk6Svry+jo6MZHR1Nf39/p76VpJb0ppY/+Gc7M9vXk2p1On/1oa2ZLkfSU5bJCsdSt5sOYADYXATAAAAAAMCm03iqkTun7szAwEAGBwfT39+fvr6+1Gq1pY9qtZpqtZrp6emcOHEi4+PjmZubW+oAHhwczOjoaIaHh9Pb27t0vWMGBzOQJOnJnrOfRt1eZakDGAA2mdrNF9/c6Rq63tb+rXGf6Qbey3QL7+X18bkfHOx0CV3vVZO9uSA3drqMrvfBias6XULXe3i2mvi5TBfwOwbdwnt5fbzj3p2dLmFT6xsYyuc+/rkMDg5meHg4W7ZsWRrjPDAwkP7+/qWPnp6eHDlyJI888kjGxsaysLCQJCmKIgMDA0sBcE9PT4e/q41p6sknc94NNzzn4797zbF1rObcNLtzKDcXfi6z+fkdY50c6HQBbAS1zx/4fKdr6Ho3X3xz3Ge6gfcy3cJ7eX24w2vvqvo70nvnA50uo+vt6nQB54AHfvDifH7MTw02P79j0C28l9fHj37yJZ0uYVPbeeONef+f/mF6enoyODiYLVu2ZMuWLRkYGFj66Ovry9DQUPr7+zM9PZ1HHnkkR44cSaPRSJLUarWMjIxk27ZtGRoaSqVS6Wz37wY1dvfdGbvzzud8/ENX3LeO1Zybbi78XKY7+B1jfbwxb+x0CWwARkADAAAAAJtK30UX5dChQ6eFtj09PanVaunp6Um1Wk1PT096enrS29ubSqWSqampHD9+fOn831qtltHR0Wzfvj2Dg4Op1fyp9Eyc/wsAm4/fagAAAACATeULn/lMrhkczIG5uYx/vaN3sbM3yVIo/MyO3qIoUpbl0jm/W7Zsye7du7Njx46lDmCezfm/ALD5CIABAAAAgE3lRdPT+alLLkmSDOzcma379mW8ry+/8JGP5EC9nifn5rJQlmm1Wmd8fbVazYUXXpi9e/dm9+7dGRwcXM/yNxUBMABsPgJgAAAAAGDTmj12LLPHjiVJ/uGePUvXL3nLW1LOz+fLBw7kf3zmMzkwN5fD8/Pp6+vLi170otx000259tprs3v37vT19XWq/A1tfnIy00891ekyAIAVEgADAAAAAF1n+uDBjN15Z3Ym+d8vuCBJUhsYyOi+fdm6b18OLixkz8JChisV5/8+B+f/AsDm5DcbAAAAAOCc0JidzfG7787xu+9Okjzy8Y/nkTw9RnoxGN66b9/S59VzvDPY+GcA2JwEwAAAAADAOW1xjPThL3zhtOsjl112WiA8um9fRi69tDNFdoAOYADYnATAAAAAAABnMPHoo5l49NHkT/5k6Vq1v/9ZncJb9+1L/44dHax0begABoDNSQAMAAAAALBMzXo9x++5J8fvuee06wM7dpx5jHR/f4cqXT0BMABsTgJgAAAAAIBVmh0by+zYWA5/8YunXR+57LJnBcObYYz09KFDmR8f73QZAMBZEAADAAAAAKyRxTHSB15gjPTovn0Z2EBjpJ3/CwCblwAYAAAAAGAdPdcY6f4dO854vnAnxkiffPDBdd8TAGgPATAAAAAAwAZQHxvL4TONkb700mePkb7ssjWt5am77lrT9QGAtSMABgAAAADYwCYeeywTjz2WA7fdtnSt2tf3rE7h0X37MrBzZ1v2PHLPPam2ZSUAYL0JgAEAAAAANpnm3FyOf/WrOf7Vr552/UxjpEf37UttJWOkyzKVsbE2VwwArBcBMAAAAABAl3iuMdLDl176rGD4ucZIn9q/P8V6FAsArAkBMAAAAABAl5t87LFMPscY6ZG9ezN02WXZdc01Gd23L6f27+9gpQDAagmAAQAAAADOQc81Rjo9PZ0pCABoi0qnCwAAAAAAYANZWOh0BQDAKgiAAQAAAAAAALqEABgAAAAAAACgSwiAAQAAAAAAALqEABgAAAAAAACgSwiAAQAAAAAAALqEABgAAAAAAACgSwiAAQAAAAAAALqEABgAAAAAAACgSwiAAQAAAAAAALqEABgAAAAAAACgSwiAAQAAAAAAALqEABgAAAAAAACgSwiAAQAAAAAAALqEABgAAAAAAACgSwiAAQAAAAAAALqEABgAAAAAAACgSwiAAQAAAAAAALqEABgAAAAAAACgSwiAAQAAAAAAALqEABgAAAAAAACgSwiAAQAAAAAAALqEABgAAAAAAACgSwiAAQAAAAAAALqEABgAAAAAAACgSwiAAQAAAAAAALqEABgAAAAAAACgSwiAAQAAAAAAALqEABgAAAAAAACgSwiAAQAAAAAAALqEABgAAAAAAACgSwiAAQAAAAAAALqEABgAAAAAAACgSwiAAQAAAAAAALqEABgAAAAAAACgSwiAAQAAAAAAALqEABgAAAAAAACgSwiAAQAAAAAAALqEABgAAAAAAACgSwiAAQAAAAAAALqEABgAAAAAAACgSwiAAQAAAAAAALqEABgAAAAAAACgSwiAAQAAAAAAALqEABgAAAAAAACgSwiAAQAAAAAAALqEABgAAAAAAACgSwiAAQAAAAAAALqEABgAAAAAAACgSwiAAQAAAAAAALqEABgAAAAAAACgSwiAAQAAAAAAALqEABgAAAAAAACgSwiAAQAAAAAAALqEABgAAAAAAACgSwiAAQAAAAAAALqEABgAAAAAAACgSwiAAQAAAAAAALqEABgAAAAAAACgSwiAAQAAAAAAALqEABgAAAAAAACgSwiAAQAAAAAAALqEABgAAAAAAACgSwiAAQAAAAAAALqEABgAAAAAAACgSwiAAQAAAAAAALqEABgAAAAAAACgSwiAAQAAAAAAALqEABgAAAAAAACgSwiAAQAAAAAAALpErdMFAABwdn73mmP5/Mh9nS6j6/3GR1/S6RK63jvu3ZlvvdN9XmvvfpefF8DyvOPenfnRT/q5zOb3u9ccy4eu8P9/AMC5RwcwAAAAAAAAQJcQAAMAAAAAAAB0CSOgAQCgS9UqRforRYZrlVQrSb1ZZqrRSr1ZdtWeAAAAAHyDABgAADa5N+0eSlGsfp0vHJvNdKO17nsCAAAA0D4CYAAA2GSuGu3NxYM9bV/3NTsHTvv6tkPT67Pnoa8le4aetScAAAAAKycABgCATeKWr4ek3brfM/c8Md/Ml4/X131/AAAAgM1OAAwAABvYdVv7snvg3Pu1fXtvdSkM1hUMAAAAsHzn3l+SAABgE7hsS0+uGO7tdBkbgiAYAAAAYPkqnS4AAAA43S17hoS/Z3DLnqFctAbnEAMAAAB0Ex3AAACwQXTizN3N5urR3lw92qsbGAAAAOA56AAGAIANQPi7MrfsGcqec/BsZAAAAIAXIgAGAIAOumxLj/D3LF27tc+9AwAAAPgmAmAAAOgQZ/22hxAYAAAA4BsEwAAA0AFCy/Y5Wm90ugQAAACADcOhWQAAsM6Ev+1zaLaRr56a63QZAAAAABuGABgAANaR8Ld9nppp5L5x4S8AAADAMwmAAQBgnQh/22c9wt/BrY286ocOZ8dls8/7vKP7B/JXv7Yn9cnqmtYDAAAAsBwCYAAAWAev3DHQ6RK6xsE1CH+3XTyXW/7pE2f12l37ZvPWn3vkWdc/8f5LMnm0d7WlAQAAAKyIABgAANbBSE+l0yV0haP1Ru5tU/j7hp98Mjsuf/7u3tX4zp95fOnzIw8M5rP/+cI12wsAAABgkQAYAADW2Lky+nm+VeazR2bO+NiVI725ZKhnVesfqzfzlZOrD3/f9Uv7V73GSp1/1czSvh/98X3rvj8AAABw7hAAAwDAGlqv8PfEXDNfPlHv2J4v5MGJ+Tw4MX/atZXUeXBmdZ2/Cz2VvPvnv3bWr2+nxSD4t39iX1plh4sBAAAAuo4AGAAA1shgbe3HPt92aLrje652nTft2ZIiz52EPrXKM38/+L6rkyT/aezF+eKOj5/1Ou108gM35I27n/68XfcTAAAAIBEAAwDAmnntzoE1W/u5QsO13HO1QexzuWvPlRm7884zdgSvZs/F4PeZDtUHs6f/zGOq10v9SP9pXy9+34JgAAAAoB3Wvj0AAADOQWs1hvnwbOM5g8K1HP18eLa5JuHvM912aPq07+1s93zyRYNnDH+T5B1Tbzrr+tpl9levOuP1W/YMZaBarHM1AAAAQLfRAQwAAJtEJzpEbzs0nRu29eeeU8s767fTez5X8PtMrx57a8dGQZ/8wA3P+/jrdg0m0Q0MAAAAnD0dwAAA0Gbv/OBDbV/zhQLBtdzzrpPrF/4uOps9lxP+Lnr12FtXvP5qvVD4+0xr2c0NAAAAdDcBMAAAtFlRLbPtp+5q23rL6QbtxJ4byUrC30WfnLpoDSo5s1OfuHDFrxECAwAAAGdDAAwAAG309v/r4aXP2xHILieI7cSeG0WrWpxV+JskP1u/sc3VPLfyrp1n9TohMAAAALBSAmAAAGij3sHWaV9v+6m70vuWx85qreUGsZ3YcyNoVYr84k9ftao11mMU9EpGP5+JEBgAAABYCQEwAACssaHrTq24M/dPD89suj3X2y/+zOrC30VrGQKvNvxdJAQGAAAAlksADAAAbfKuX9r/vI+vJJBtluWG3XMjONuxz8/lB45+W1vXS5Kx/3BdW9cTAgMAAADLIQAGAIB1tO2n7srC+c8/ZrndY5g7sedaanf4myQPV0bavmZ1odr2NYXAAAAAwAsRAAMAwDrb9cP7VzyeeTPuuVwe2WcAACAASURBVBbWIvxd1M5R0O0a/XwmQmAAAADg+dQ6XQAAAHSDv/m+x1b8mm0/ddezgsKVdOJ2Ys9O+qPvvnDN93j12FvzxR0fT5KUZfJbP7FvWa975ijutQx/F12+pSePTC2s+T4AAADA5iMABgCANtiy4+zCuG0/dVfG/s1LUy2KTbFnJz14TfvHNH+zl91+Ih/95PJC32f66I9/4zXXbG3kgoG1/afW3uFeATAAAABwRgJgAADosB3/4ispW0V+6yev6Oo9V2MtRz8nyXtvvb9ta917ai73nppLsrbjmm/ZM7RpurcBAACA9SMABgCADaColGu6/nd86eSZH3j3mm67DGWSInmBfHfk4TbuWMxn8vJ/kCT5h/9xf4amGu1b/Jvcdmg6wz2VvGrHwJqs31spMt9a2/cOAAAAsLlUOl0AAABwLlv/MdRF2Zvk6a7ftQx/F00utNasU/f15w+uyboAAADA5iUABgCAVbrk5ZOrXuPxO4bXfc9zWTtHPi/XbYems7AG3bovGe1r+5oAAADA5iUABgCAVXrlDx5e9Rpf+v92r/uerL8/PzKTO0/U27rmhYNO9gEAAAC+QQAMAACwjo7PNXPH8dm2rrmrXwgMAAAAPE0ADAAAsM5Ozbdycq7ZtvVeus0YaAAAAOBpAmAAAIAO+Os2j4IGAAAASATAAAAAHXPboem2rXXLnqG2rQUAAABsXgJgAACADmpnCAwAAAAgAAYAAAAAAADoEgJgAACADmtXF/CbjIEGAACAc54AGAAAoEsUnS4AAAAA6DgBMAAArNLtv3H+qte46e8cXfc92Vg+7SxgAAAAoA0EwAAAsEqPfWlk1Wvsfe34uu/JxlJ2ugAAAACgKwiAAQAAushwj3/mAQAAwLnMXwYAAAA2iC+Nza56jVfuGGhDJQAAAMBmVet0AQAAcK67Zew7M5We5H3Je2+9f032+NQrt515z6xuzw+/+/ZV1VWkmX92/49l7M47kyQffN/VL/iakYd/fdV7Lsfg1kZe9UOHs+Oy5w9lj+4fyF/92p7UJ6urqitJJhZaq16jWPUKAAAAwGYmAAYAgDaoT9TSP9JY8etePfbWTbVnu/3wb7w6ufHG9d/zm2y7eC63/NMnzmq9Xftm89afe+RZ1z/x/ksyebT3rNYEAAAAOFtGQAMAQBt8/GcuW/FrzhTELqcDtpN7PtNTF5zd61ajMndJ29Z6w08+mXf90v6865f2n3X4+3y+82ceX1r/9f/kqbavDwAAAHAmOoABAGCd/dzxG/KH5Ys2/Z6f/PbVjWI+G1uevHXVa7zrl/a3oZKVOf+qmaV9P/rj+9Z9fwAAAODcoQMYAADW0avH3vqCQezZduRupD15botdwRWH9QIAAABrQAcwAAC0yUd/fN/zdpeuxdm7ndgzST787ttXvcYP/earVvT8kYdX33H8x6/Y8YLP+Y4vnTzr9d9/zbfn5VvuesHnnfzADXnj7qc/v+3Q9FnvBwAAAPDNdAADAMAau3dy24qD2NV25HZiz5WqtFrrul+SHJ3rW/c9v1n9SP9pX9+yZyi37BnqUDUAAABAtxEAAwBAGzXmTv8V+9Vjb83fn7v5rNZabiC73nu2o/t3pdrR/Zsk75h6U1vWWY3ZX73qjNdv2TOUgaq50AAAAMDqCIABAKCNfvef7l36vB3jl5cTyK7nnu0Kf3/kN16x7Oe2K/yd2PueJGs3Fns5Tn7ghud9/HW7BtepEgAAAKBbCYABAKDN5stKW0PG5YTA67HnZu78/WadCIFfKPwFAAAAaAcBMAAAtNnHfmLvCz9phV4oBF7rPdsZ/r78K/96Wc9rZ/g7u+u/PuvaJ6cuatv6L+TUJy5ct70AAACAc5sAGAAANokPvu/qfOnmHeu+Z7s7f6//6h8852PVZpmk/Z2/C8N/+axrP1u/sa17PJ/yrp3rttfxuea67QUAAABsPAJgAABYA++99f41WfcL377zObuB12LPdgexVz72/6z7nnPn/dZzPrYeo6DXe/TznSfq67ofAAAAsLEIgAEAYI2869ceX7O1P/i+q88YBLd7z4m978nkpT/etvVu/sszB8D/44cvzQffd3Wa1aLte85t/cPnfXwtQ2Dn/gIAAADrTQAMAABr5MInZtZ8j8Ug+O6btq3ZnmV1PBN737PqdX7kN15x2tfzfZV88H1X56ffMptDFw2syZ7LXeMHjn7bqvf6ZmP/4bq2rwkAAADwQmqdLgAAALrZe2+9/zlHNrfTZ75rdz7zXbvXdI+Jve9Z1XjmP3znRdl/9fC67rlcD1dG2r5mdaHa9jUBAAAAXogOYAAAWGNrdR5wJ0zsfU8ag3ef1etWGv62Y8+VaOco6E6Nfr7t0HRH9gUAAAA2DgEwAACsg/7ZZqdLaJuZPT+/onC1HaOc12vPdoTAzv0FAAAAOkkADAAA6+Af//sHO11C2y0nZF3Y8qVNtefLbj9x1q9Nks/9yoU5ONtY1RoAAAAAqyEABgCAddJNo6AXTex9T1I8d3fz7Pn/uaN7Lvf84Pfeen/ee+v9+bZPHll1ffeemstth6bXfRzznx+ZWdf9AAAAgI1JAAwAAOuoK0Pgy384k5f+2LOvt2H082r2XAx/q7Mvec51/uF/3L+m/01uOzSdvxqbXbP1n2mhVa7LPgAAAMDGJgAGAIB11o0hcFmdOi18Xcvwdzl7PrPzd+jgPz/j69976/0Zmlr7cc2TC6117wYGAAAAzl0CYAAA6IBuDIGTp0PY9Qh/n2/P3onXP+s5zwyEzzs215H7f9uh6TXr0hUwAwAAAIsEwAAA0CHvvfX+XP/lk50uo+v0H/vhM14fefjX861/tCN/91ceWeeKvuHPj8zkzhP1ju0PAAAAdD8BMAAAdNAb/+hw13YDd8IzO33P5K6rfj4ffvft61TNmR2fa+aO4+09F3hXf62t6wEAAACblwAYAAA2ACHw6r1Q+PtMH3737fnvf+c31rCa53dqvpWTc822rffSbX1tWwsAAADY3ATAAACwQbz31vsFwWdp+LFfXvFr5mr78uF3396xjuC/NgoaAAAAWAPmhAEAwAbz3lvvz6fefkHuu36006VsDmUlRXNkVUt0KgS+7dB0btkz1Ja1btkzlNsOTbdlLQAAAGDz0gEMAAAb0Hd87GDee+v92XlYl+gLGXnk/+10CasitAUAAADaSQcwAABsYD/wXx9NkswOVfNf/o8rO1zNxrOSc38BAAAAzgU6gAEAYBMYmG4unRE8PLGwLnsu7rfeey5XN4W/7eoCflObxkkDAAAAm5cOYAAA2GT+/i88dNrXv/gzV6VVKVa97iv+4nhe+6dH133Pt526KGN33rmi11Uau1a9dzda/X8RAAAAYLMTAAMAwCb3E+9/4IzXx87vy70v3ZqJrT1p1or0zTZzySPTeclXxjfWnjdetOL9W7UzB9Wb2acPTevgBQAAAFZNAAwAAF1qx5G5vP5PjnTtnhN739NVY6DLThcAAAAAdAVnAAMAABvGgy8ZWdHzJ/a+Z40q2byGe/wzDwAAAM5l/jIAAABsGH/0PReu+DXdFAJ/aWx21Wu8csdAGyoBAAAANqvi5g/fbNLYGtvavzWn6qc6XQasmvcy3cJ7mW7hvbw+XnJ0sNMldL1XTV6YC56YT5L89FvOPgDdCOOgv+fgv8re8cOrWuNlh7626jr+154XP+vafbtmVr0uz+/hy6v5ysDq/vvzwt5x785Ol9D1Li52ZPiInxlr7XevOdbpErre7M6hPFq4z2x+/u1Ht/BeXh9vPPDGTpfABlD7/IHPd7qGrnfzxTfHfaYbeC/TLbyX6Rbey+vDHV57V9Xfkd47H3j6i7dcfdbrLHYCdzIInnjooYwdeHB1i+wZWnUdY3fe+axru1a9Ki/kgR+8OJ8f81Njrf3oJ1/S6RK63vCNN57x5wjt9aEr7ut0CV3v5sLvy3QH//ajW3gvr483RgCMEdAAAECX+ZHfeEWnSwAAAADomFqnCwAAAGi3xRD4w+++vcOVbC61SpH+SpHhWiXVSlJvlplqtFJvOjkIAAAANgsBMAAA0LUEwWf2pt1DKYrVr/OFY7OZbrRWvxAAAADQNgJgAACg6y0Gwb//lp/L2Ogta7bPsZ0X5eLVngG8Bq4a7c3Fgz1tX/c1OwdO+/q2Q9Nt3wMAAABYGQEwAABwznjbH/50kp9Okvy37//1LBRXd7agNXbLnqGO7HdivpkvH6+v694AAADA0wTAAADAOenvfuQ9p339sbf9ixzf8vZVrbn9xKFVvb5d1jv4/Wbbe6tLNegKBgAAgPVV6XQBAAAAG8Hbf//fLI2KPlvVZrNN1XSPW/YMdTyQBgAAgHOJABgAAIA1d8ueoVy0BucQAwAAAKcTAAMAALAurh7t1Q0MAAAAa0wADAAAbBjVZtnpEjrqXAlHb9kzlD0DtU6XAQAAAF1JAAwAAGwYP/Zvv7bqNX7hX17dhkpYa9du7TtnAm8AAABYTwJgAABgw6g2Vt8BXBZtKIR1IwQGAACA9hIAAwAAbADnahB6tN7odAkAAADQVQTAAABA1/mln76q0yWwDIdmG/nKyblOlwEAAABdRQAMAABsKG/5rSdXvUazurnmQL/pHOz+fWqmka+eEv4CAABAuwmAAQCADWXf/ZNtWeeP33FhW9ZZD5srrl69p2YauW9c+AsAAABrQQAMAAB0pa9dO9LpEpblXDv796DwFwAAANaUABgAANhw3vhHh9qyzofffXtb1lkrL93W3+kS1tXReiP3Cn8BAABgTdU6XQAAAMA3u/7Lp/KZ79qzqjVGHv71JMkjl70ylz/6pXaU1Xa7+qudLmHJfKvMZ4/MnPGx/7+9e4+zq67vhf9ZezJJSEJIkAAhqGDABkWgqFwLUUGPFyoeb7SlHqu2fXqO56ny9GX7oIIQVHzssdr6eE61h2NrS1XssdqjPYg3IogKqNwsyF2TcDEJkHsmyex1/lh7T/ZMZsJkZs/smZ33++XOzF5rr9/6znJevMjrw/f7e+78mXn23N5xrb92e39uf1L4CwAAABNNAAwAAHSdZvibJN8945N5zkOndLCakX3z0S0dGwH9RF9/fvzE9lF99t6NO3Lvxh2Dju1L3Y9s1fkLAAAAk0UADAAATEkXrbg7H7/0uH2+bubG5Xscu+rCm/OOq4XAzfu1c51zD5+bohj5c2vs+QsAAMAYlGWZJCmG/KWzLMvUiuTcZ63Mac95LMXgk0mSh588KJ+749WTVOnUIwAGAAC6yuy1bx/2+FUX3pyzf/THOfb+H05yRU9vMkLgdgW/Q33rsWrd4eoX/gIAADAezfC3LMsURZHjD/63vOEFt6cskpSNV5HGH2WaafBRB2/IpS/5fJIi/3zHcbnziRMHrdPtap0uAAAAYCQXrbh7nz7fOvp5ON879a9y1YU3j6ekaeexbbsmLPxt9c1Htwy6z2Pb+oW/AAAAjEmz+7f5tVaUuXT55/P6E+5ImVRZb5Hsbv8tW9+0fF/m359wdy59yedTS/9+Ef4mOoABAIAu8XThb6urLrw5s3bdl9/94oUTWFHnTUbwO9w9T1o4O3c+Nbr9hQEAAGCo1qD2d0+4Ls9Z+ERSJEUawXCzAzhFUjTD3+rc7oQ4g46/f/k1Wd83N5/64Wu7vhNYBzAAADCljaYL+MCHP7nP6/bNODZXXXjzlOgIftPH72/7mp0If5tue1L4CwAAwNiVZZmyLHPx2dfkOQvXJymr/7VkvY0ouHlBdaJsrlAMe/wZs7bm4uXXdHX4mwiAAQCAaeBdH7xn5JNlLUX//HGt3wyCOxUGFz1lFl58W9vW62T4CwAAAONVFEX+6EVfS2+tv8pyi9b9gDNwrAqDi2zrmZWBrt8iKYrWDw0+3lv05x0nX9uJH2vSCIABAIApr1YvRzw3/8HPTmIl7fe6jzww8H07QmDhLwAAANNdkf4cfuDmqnO3TIrG8OdmCPyRG96QFdf/dooUueL6N+bPv/P6FI2u3yJFFRI32n73PJ4smf9UiqI+uT/UJBIAAwAA08Jwo6D3Zd/fqWrmnMF/4Vx48W2Zed7DY1pL+AsAAEA3uGT5NQNhbZKUKQf2/02RHDn3kYHjF554XZKkv9nm27yuLKq3Q8dDNzYQvuTsL07CT9IZMzpdAAAAwGhdtOLufPzS45J0R/g7krkveCpzX3BbnrzypFFf853Htk5gRQAAADA5jj/k7qSoen7LQQPBqhC3KIpcePIPcsX1R2Vbz+zMml2d/eD1Fwx8ctGc1flPp9zY6BqujpWNUdBV/FskRZkzF9+S7z/64hEq2ZYj5z2UpbMfy+Ezn8q8nq2ZVfSnLOdk885D88i2pbl905FZt0cj8Vivax8BMAAAMK1ctOLu/OV7l3e6jLZ481/dt9fzCy8efQjcX448JhsAAACmi9c//7YUZXaPfC6rILhMmXpq+fTN52Tt1mckST76rdcNjIVutXbrkbn8+gty6Uu+ODAOuiiKlGXZCIKrMPmc594/cgBcW53lh12TY/ZcPofO+lmeM29lTl/4olz7yCtz647a+K9rIyOgAQCAaeddH17Z6RImzcKLb8vOw/Y+2tnoZwAAALpBUTSC2mRgfHNZJCmKrNlwQD648oKs3XpIdTJVQDyj6MvvnfCVXHLOF1MU/a2rpWj+x9JFUY2RLopGYNwIgYcJj/dQzs/mnUvzyLYXZPWOxdkxEK/W0zPj1rz8kHszv53XtYEOYAAAYFp6x9Wn5KoLb+50GZPi0LdXncL7MhIaAAAAppu3HP+/09yyNy2DroqUOfKg7fmNI3+clxz3QD74zTcPnHvv8n9OyjLpL3Lp8mty+fW/PXCuCpIb46Qbi5YpUpTFQCfw/3XK1/Lpm8/bs5jykNz6qz/MN7Yszrp6MbDiAbNvyVuWXJvFRT1JPb2z1+SIYlk2luO8ro10AAMAANPWO64+pdMljNmrL314n69ZePFtexzT/QsAAEC3OPrgjWkmv8Xu7DRJkbJIzjnmvtR29GdQOlwNix6aGTfsPl4kA+OgyyIDncCHH7B5+GLKhfn5piNaQtxqvW3bn5uf72jpsS1nZFc7rmsjATAAADCtTdcQeN4hO8d03cKLb7PfLwAAAF2pbAl9y+abohHctvxV+NADHh/4/s5HDk2K5KEn52dFa/dvWeae9YekbLYUD8yVTrXHcOPv1uUwsfHezJ59X46d2YxuZ2TTlqVZNYolxnrdWBgBDQAATHv70zjoJDnkvbenrBf50ruP6XQpAAAA0Ea7u3/LlNXbcvcI57KsOnff/uKV+cj3LkhZlvnne8/JP99bBbqtW/oWRZFr7jo3SZlLl3+hMQo61TrNnuCyfNp9gIve+3PeoruysOjPzJ51WTTz8cxMPcmCrN18bv5l3ZHpa+N17SAABgAAukKzE3h/CYKL2sR2AU/V59jTvz2/94WzO10GAAAAE6V19nPR+NoIa5tvZxbNoLj6bE/68p/O+HoWztyR/lqRD333gtYFG+OfWwLishkF7z38re6xIUvm3JbDBh2tZefOo/Pg1sOzvt7e69rBCGgAAKCrTNeR0IxOf8/sTpcAAADARGnu0Tuwa2/jcFmmKIqUKaqAeEjX7vte8uUsnNmXFElPWebS5Z8fvGxPdU3ZHAPdWL98+vw3ZX1BVm05OQ9sPTGr+5akL7Uk9fT2/jSnHvrZvO2QRzPc31THel076AAGAAC6zlTvBn72izeNe41f3HJgGyoBAACAqaVo/Nm6N2/V6VsO+UxrSNzs6K2UQ8c69zcy46IYuKoZMj/dfK1y19J8/dGlA+97ex/MeUd8MSf09iXZkkUH3ZiTN7wxN+0s2nJdO+gABgAAutY7rj5lSnYEn/qWx8a9xo/+/vA2VAIAAABTx4PrF6YsW8LfMtn9bVF1ATe6eA+atW7gunseO7jRIVxmR1HLiut/a/DCRdlsLk5SVp2/jXnSm/oP2Kcad+48Ot/f9OwMTHAuVmfxzKef5zzW68ZCBzAAAND1miHwV8/7UNYd9PIOVwMAAAAM5x/uemU1vrl1VHO1/W+l0SxblmXeeeZ38+HvvDlJcs09r0juGTw2uqkaB12kKAfy3xTNDuMi+fgN5w9TSZl5vVuyc+e89O1xbkcWzXyy5U4z0j8wS3qs17WXABgAANhvnP+19yV5X5Lkc7/zd9lZHNfZggAAAIA9FEVjRHOZpGzGtVX3b1EUubzR4dvcG7j6fvfWwEW5M+9/2f9MrUzKshg42RwUPbDHcDnSAOh6jnrGZ/KaWUfl/i1HZ1Xfgmyq19LTsyFL5v40J89du3vcdH1pHuqrjfO69hIAAwAA+6X/8I9vHfT+K+e/N+vnvW5cay5+9MFxXQ8AAAD7u6/e9by87gV3p9n9m5awduBtQ9Gy1++lL/1CPnL9b2Zn5uXSl/7TwKjoFNV1VVjc+HBZRcHfvveYvVTSn9m9d+T4BXfk+BE/c2geWH9m7upvx3XtIwAGAABI8rqvfjjJhztdBgAAAOzXbl9/Ys7Pv2VgBHR2d/o2u3wvWf6FFI2Zzt+6/7jctOakFGWRd/7GdfnEja/PrqKWnrIc6CIui6KRITfbhKtQ+fuPvniEKoo8uf34rJ51Xxb3PpWeDNmrt1yY9dtPzE+eOCU/2jYn/eO+rr0EwAAAAAAAAMCUccXKC3LJ8i8OvC+K3WFwktQGpjoXOffYe3LTmpOyZvuBWTJ7U4qizE9++ay8+Jm/SFE2h0cPLNTsJ84VK9+4lwpqWfPUq3LVU69Kb8/mLJixLXN7+tKbnvT1z80TOw7M5mH37x3rde0lAAYAAAAAAACmjLKs5f4nDskxC9dVB4pq796iaNn3dyBHLXPJS76QWqp9gy9Z/sVUzcFlyqJI0bLnb1EmKcqs65uT+ihj0p3987K2f17W7uPPMNbr2mFidhYGAAAAAAAAGIOyLHP17edmR31Gc/vfQXv/lmVzX98MbBVclrtD3jK7Pz/0+M76jHzqh+dP6s8z2QTAAAAAAAAAwJRRFEWKoshHbnhTHts8v3Gw6uNNUQyMck7zfZmBvX2rCcvlsMcffPLgXPm9N032jzPpBMAAAACT7OarDxv3Gi+84FdtqAQAAACmts/c+ppcsfLNVaZbllXbb5lG+2/ja6MduNjL8SuuvyD/cMcrGh3B3U0ADAAAMMke/tH8ca+x9MwNbagEAAAApo6RwtkytaxY+dv5n3ee0OgATmMP4HL31+afzb2BG8e/fNdJuXzlb6dsnCiKIt1udLsbAwAAAAAAAEygpwtn73ri+bnr+uenKJLfOf66HPOMJ1ourgLkMkV++PDh+dYvlg+EvvsbATAAAAAAAAAwbZRlcvWdr+h0GVOWABgAAGCaefm6V2VzepNLk4tW3D0h93jH1adMyLpXXXjzuK4v0t+mSgAAAKA72QMYAACgA7ZvHNt/j3v6utdW4e9+6u1Xn97pEgAAAGBKEwADAAB0wL+8/+h9vub0da/d49jHLz2uHeVMijVHTJ9aAQAAYLoyAhoAAGCK+9D6k/K18lmdLmPcrn3p33W6BAAAAOh6OoABAACmsNPXvfZpw9/p1AUMAAAATCwBMAAAQIdc88fH7vX8cCOfp6urLrx53Gu87fOntaESAAAA6G4CYAAAgCnmZ5sW7nP4uz90Adfq9U6XAAAAAFOeABgAAKCDdvUN/mvZ6etem9/vO2tMa03VELgd3b8AAADA6AiAAQAAOujL71k68H07Rj5PtRC4XeHvO64+pS3rAAAAQLcTAAMAAHTYjrLW1v1+p0oIrPMXAAAAJp8AGAAAoMO+8q6lT/+hfdTpELid4e+Lb7+ibWsBAABAt5vR6QIAAACYGB+/9Lic8d21OfWGdZN633Z3/p5w1/9q63oAAAB0vw9ceeWwxz/xzndmw/z5w547aOPGvPtTnxr23OUXX9y22iaaABgAAGAKuGjF3RPStXvTSxflppcuykUr7m772kP91fuWZe7Dn2vrms99+G/auh4AAADd7U8/8YkcsG3biOebAe/QQHekwLj1/LYDDshH3/3u8Rc5wYyABgAAmCLe/Le/mLC1P37pcRM2FvoLbz8qH7/0uPT3FNm49K3ZdNQft23ts74vAAYAAGB0Lv7Yx/Ya/rZqDXyfLvxtOmDbtlz8sY+NqbbJpAMYAABgiljyy60Tfo9mCHzO1x/LCT9+cszr7JhVy6f+7NeGPVf2bMjGpW/N/Af+bszrJ8k7rj5lXNcDAACw/5jV15eZO3bs0zWjDX5bzdyxI7P6+tI3a9Y+XztZBMAAAABTyESNgh7q2685PN9+zeED75fdtTGv+vKaYT9b1op8/Q1Lct9xB+7TPdoRAgMAAMBo/L9/8ReTeq+pvCewABgAAGCKmawQuNU9x8/PPcfPb/u6G5e+NXMe/ZPM2HrCPl2n+xcAAADGRgAMAAAwBc3e1p/tB/R0uoy22Lq42h9ptN3Awl8AAAD2xauvu64j9/zXV7ximDPbcuS8h7J09mM5fOZTmdezNbOK/pTlnGzeeWge2bY0t286MuvqE1ebABgAAGAK+o9/fu+kdwFPtNGMhF6wZeUkVQMAAEC3OOzxx6fOPWurs/ywa3JMseepQ2f9LM+ZtzKnL3xRrn3klbl1R21CapuYVQEAABi3i1bc3ekS2m7j0rcmRf+I59/wlfdMYjUAAAB0g/uWLp169yznZ/POpXlk2wuyesfi7BiIZevpmXFrXn7IvWn/RkwVHcAAAABTWCf2A55oG5/z9hT983Lgw58adNzoZwAAAMbixjPOyDkrJ3ei1I1nnDH8ifKQ3PqrP8w3tizOunqzDbjMAbNvyVuWXJvFRT1JPb2z1+SIYlk2lu2vTQcwAADAFNeNncBlz+aqG7hB+AsAAEBXKBfm55uOaAl/k6TItu3Pzc93tPTmljOya4JKEAADAABMA90YAifVSGjh5LG2jgAAFtBJREFULwAAAN1u9uz7cuzMZuQ7I5u2LM2qCej+rVYHAABgWrhoxd359msOzx0vXNjpUtqmW4NtAAAAJtflF1+cD1x55aTd6+kUvffnvEV3ZWHRn5k967Jo5uOZmXqSBVm7+dz8y7oj0zdB9QmAAQAAppFzvv5Yzvn6Y9N+X+D/fOXP07uz3ukyAAAA6CL1Wi21+sT+XbNeG92A5aLYkCVzbsthg47WsnPn0Xlw6+FZP4FlGgENAAAwDU3nztmLVtwt/AUAAKDtrvizP5sy9yjrC7Jqy8l5YOuJWd23JH2pJamnt/enOfXQz+Zthzya2RNUow5gAACAaaoZAk+XbuBj7t6U3/zS6k6XAQAAQBebyFHQoxn93FTuWpqvP7p04H1v74M574gv5oTeviRbsuigG3Pyhjfmpp1F2+vUAQwAADDNXbTi7jzvjg2dLmOvLlpxt/AXAACASbEvQe1krblz59H5/qZnZ2AeVrE6i2dOzHQsATAAAEAX+HdfeSQXrbg7ix7b3ulSBrloxd3Telw1AAAA01M7x0GPfq0y83o3Z9aw53Zk0cwns7vfd0b6y/Z3/1YrAwAA0DV+9zMPJUm2ze3JX//JcztWh9AXAACATqrXam0ZB71vnb/1HPWMz+Q1s47K/VuOzqq+BdlUr6WnZ0OWzP1pTp67diAALutL81DfxPTqCoABAAC60AFb+gdC2P/+7mOyaX7vhN9T6AsAAMBUM54QeGxjn/szu/eOHL/gjhw/4mcOzQPrz8xd/WMq62kJgAEAALrc73/i/kHv//L9y1KvjX/M1Ck3rs+Z3/nVuNcBAACAiTSWEHhs4W+RJ7cfn9Wz7svi3qfSkyF7/JYLs377ifnJE6fkR9vmZILyXwEwAADA/uZdH7xn2OPrDpuVn524IBsX9KZ/RpFZ2/rz7Ae35Hm3b5jkCgEAAKC99iUEHlv4myS1rHnqVbnqqVelt2dzFszYlrk9felNT/r65+aJHQdm8wTt+9tKAAwAAECS5JDH+7L8usc7XQYAAABMiNGEwGMPfwfb2T8va/vnZW1bVts3E7OzMAAAAAAAAMAUs7eAt13hb6cJgAEAAAAAAID9xnBBb7eEv4kAGAAAAAAAANjPtAa+3RT+JvYABgAAOuzLz1+bG+b/W6fL6HpXX/O8TpfQ9V7/s0U5+yeeM9Pfl5+/Np8+xj+XAQDoft0W/DbpAAYAAAAAAADoEgJgAAAAAAAAgC4hAAYAAAAAAADoEgJgAAAAAAAAgC4hAAYAAAAAAADoEgJgAAAAAAAAgC4hAAYAAAAAAADoEgJgAAAAAAAAgC4hAAYAAAAAAADoEgJgAAAAAAAAgC4hAAYAAAAAAADoEgJgAAAAAAAAgC4hAAYAAAAAAADoEgJgAAAAAAAAYFr7wDMv63QJU4YAGAAAAAAAAKBLCIABAAAAAAAAuoQAGAAAAAAAAJi2muOfjYGuCIABAAAAAAAAuoQAGAAAAAAAAKBLzOh0AQAAAAAAAABjMXTs8weeeVkuX3XZsJ/dd/Uc0PtEjpz9qxwx64kcWNRTJEkOyINPvSg/21kMc822HDnvoSyd/VgOn/lU5vVszayiP2U5J5t3HppHti3N7ZuOzLp6m0ochgAYAAAAAAAAYJBtedER/zWvnrMpe8a8R2bXphcOHwDXVmf5YdfkmGFOHTrrZ3nOvJU5feGLcu0jr8ytOyZmWLMR0AAAAAAAAACD1DOj2DFM+DtK5fxs3rk0j2x7QVbvWJwdA7FsPT0zbs3LD7k389tU6VA6gAEAAAAAAIBpZ+j459bj4x8DPSPrt56dG7csyprth+axmTflnYfe/PThanlIbv3VH+YbWxZnXb0ZH5c5YPYtecuSa7O4qCepp3f2mhxRLMvGcpxlDls5AAAAAAAAwBQxUrA7EWuMHBTPyn1Pnpn7Gu9mzBhlL3C5MD/ftHDIwSLbtj83P9/xrSyetaPxuRnZNboV95kR0AAAAAAAAMCUMf7u3al1nySZPfu+HDuzGfnOyKYtS7NqArp/q9UBAAAAAAAAppDLV12WnlqR9y/5QNvX/tDqS7OrnNg+2aL3/py36K4sLPozs2ddFs18PDNTT7Igazefm39Zd2T6JujeOoABAAAAAACAKae/Xra9S/fyVZdNePibJEWxIUvm3JajD7gzS2Y+2gh/a9m58+g8uPXwrK9P3L0FwAAAAAAAAMCU1a4QeDJHPpf1BVm15eQ8sPXErO5bkr7UktTT2/vTnHroZ/O2Qx7N7Am6txHQAAAAAAAAwJR2+arL8oFnXjau6ydTuWtpvv7o0oH3vb0P5rwjvpgTevuSbMmig27MyRvemJt2Fm2/twAYAAAAAAAAmPKaIe6+BMGTHfyOZOfOo/P9Tc/O8QffW41oLlZn8cx6srOn7fcyAhoAAAAAAABg3MrM692cWcOe25FFM5/M7n7fGekv29/9W60MAAAAAAAAMA383uJr9unzf3TY3+SvH/+DMdypniPmfz8vmt2fIknRu6als3Zjjl64Muf3F0mKbNl6cr6z+cDUU89Rz/hMXjPrqNy/5eis6luQTfVaeno2ZMncn+bkuWsHAuCyvjQP9U1Mr64AGAAAAAAAAJgWnj3j3/bp84fNXDPGO5U5eM4P8+vztgxzbmMWzV2ZRUmSGXmyvizf3Xxg41x/ZvfekeMX3JHjR1z70Dyw/szc1T/G0p6GABgAAAAAAABg3Io8uf34rJ51Xxb3PpWe1AefLhdm/fYT85MnTsmPts3JBOW/AmAAAAAAAABgert81WX5wDMva+OKPbnrsffkrn26ppY1T70qVz31qvT2bM6CGdsyt6cvvelJX//cPLHjwGyeoH1/B1cBAAAAAAAAMMWNFPBevuqyQV9He91E2tk/L2v7FuXhrUfmvq2L88u++ZMS/iY6gAEAAAAAAIBpaLjAt3msE6HvVKEDGAAAAAAAAJhWRur2He35bqYDGAAAAAAAAJjS3n3EXyXZt2C3tRv4kiOvyBWrL5mAyqYeHcAAAAAAAADAlHZQzxNj7uq9fNVlqRX97S1oChMAAwAAAAAAAFPaeEc6708joQXAAAAAAAAAAF1CAAwAAAAAAADQJQTAAAAAAAAAAF1CAAwAAAAAAADQJQTAAAAAAAAAAF1CAAwAAAAAAADQJWZ0ugAAAAAAAABg6ivLstMldIWiKCZ0fQEwAAAAAAAAsIdm4Cv4ba/m82wGwe0OhAXAAAAAAAAAwIChwe9IAbBgeHRGG/C2KwgWAAMAAAAAAABJqlC3NfgdLgQW/I5Na8BbFEXKstwj9G1HCCwABgAAAAAAAAYC32bAW9u1Ky9buTK/fscdOXDz5g5X1102zZuXn55wQr6zfHnqMwZHtuMNgQXAAAAAAAAAsJ9rDX+br3Ovvz5n/+AHnS6tKx24eXPOvummpCxz3cte1tZO4Np4iwMAAAAAAAC6R1mWqdfrOenOOztdStc76c47U6/X2zpWWwcwAAAAAAAA7MeG6/6t1+uZb+zzhJu/eXPq9frAnsCtxtoFLAAGAAAAAAAABoW/9Xq90+XsN5oBcDPwHe8ewEZAAwAAAAAAwH6u2X3a2gXM5Bj6zMf77AXAAAAAAAAAsB8bLvzVATw6mxqv8WjuAdyuEFgADAAAAAAAAPupoUHjeDqAtyX5L0lekuTFSd6c5AtJJruXeHuSDyY5JcnLk/z9BN7rM0n+pvH9+iT/O8m+RucjPfOxhsD2AAYAAAAAAAAGjDUA/kiS+5P8bZIFSR5I8lBbKxudLyX5SZL/laS/UVOZZHw76w7vt1q+X53k/0vyin1co90jtwXAAAAAAAAAwLhCyP4kNyb50yRHNY69sPFq+l6SbyZZm+ToJL+X5LAkjyf5pyT/MbvHF69P8o9J/ihJb5JbG5/ZlGR5kjck6RmhlvVJjmusnSRHjKL+XyX5XKqweGmStyd5RpI1jfv+QZI5jZ/zfyQ5I8nzU4Xcadzrc0l+mSoE7m38PPNGce9W7QiCjYAGAAAAAAAAkmTMe9DWUoWun07yoyRbh5yvJ/lFqpHM/3eqMPV3kuxIsjBVeHpHy+e/luTnqYLUbyd5V6rO2ren6uz9xF5qOSfVWObrR1n7+iSvbdTxziSzk1yQaqT14lSdvR9u/AyfTfKNJMc2rr0lVThdS/LrSQ5KcnaSs5LMGuX927HvbysBMAAAAAAAAOznWsPHsQSRRZIVSX4t1d6/i5K8KcltjfO1JG9JclqSg1MFrn2pOmhnphql/JXGZ+up9g5+U+P7j6fa0/dlqTqKP5rkqsb1Q21O1YX8x6m6h7/fsuaKVB29Q305yW8keUeSF6QKgZ+RKtytJflAkpuSXJnk/0/yl42aW9Ua1x6U5PTGz9k7zL1GMt7n38oIaAAAAAAAAGDcDk4Vkn4oVbfvZ5P8+1QdsguT/EWqsc7PTxWgrkk10jmpAuHXJXlPkodTjWQ+NdXI5R8neV+qztyycWxz4zW0y/YrSQ5vfP7cJG9L8nepRk7/U5I/Gabuu5P8a6p9g8vGa3WSdY3z85Jclqp7+e+TLNmHZ9IJAmAAAAAAAACgbWqpAtf3JvnbVPvqHpTkS0luSDI3ya4kL00Vtqbx+ec2zv841Qjm2Ul2puom/ptUwfHTWZPkWak6kk9L8t9T7TW8vPF17jDXHJjkD5P8PyOsuSPJJ5OcnyrU/s0kB4yilk4xAhoAAAAAAAAYl3qS65JsbDn201Th6RFJtjeONcPJm7J7PHTz+AWpAtYvpApbk2qM8vlJPpMqDG76ZXaHx61OTxU039fy/vxUQfSpI9T+75L8QwaPh16XZEvj+0+mComvTjXi+qMj3Hteqs7l4UZTTyYdwAAAAAAAAMC43Zjk7ak6cGtJHksVnj4zyeIkJyU5I8mzkxyZPQPZc5NclGqf32Nbjv9Zkosbx49JsirVnr0fS9Xp2+qsxhrnJFma5PEkr0w1Bvr3k1yTaq/eVqc3rjk3VRfyplRh8w2N1z8m+UaqMPryJOc1rnnFkHWOSvLqxs85N8m3Uu0lPNkEwAAAAAAAAMC41JKsSHJJqtC1SLUXb0/j/Iwkn26cm5Hhg9GDM7gLt2leqiB5Y5INjWvnjFBHkeQPkvyHxr0WpureTZI37+WatyT5rVSh9dxGLUkVKP+45bMHpQqFm1r3FO5J8l8ar04SAAMAAAAAAABt0Zuqu3ckh41j7fmN12jMStWJvC96U3UrT3f2AAYAAAAAAADoEgJgAAAAAAAA2M8VRTHs90yOdj5/ATAAAAAAAACQZHf4KASePO1+5gJgAAAAAAAAYI8AcsPcuR2qZP8x9Bm3IwQWAAMAAAAAAAADiqJIURS5ZdmyTpfS9W5ZtmzgebfLjLatBAAAAAAAAEwrRVGkLMtB75uvfz3ttNTLMqfec08O2rq1g1V2nw1z5uRHy5bl2tNOG/TMW401FBYAAwAAAAAAwH6sGQK3BpG1Wi27envztTPPzFdPOy39/f2p1+spy3IgMG4NjhlZ6x6/zWfb09Oz+1Wr7RECj6cjWAAMAAAAAAAA+7mRQuBmyFsUxaAAWPi7b4Y+19ZXO8PfRAAMAAAAAAAAZHfw2Br8No+3BsKt5wTBe9ca5g4XAvf09OwRBI+XABgAAAAAAAD2Y8PtPVur1Qbe12o145/Habgx0K1BcGs4PN4gWAAMAAAAAAAADGgNKJujoXX/jt1IXcBDn3O7CIABAAAAAABgPzdcF3BzT+Bm8Fuv1wfOC3/3TevzHa7jt/mZdoTBAmAAAAAAAABgUOib7A55m+97enoGjguA983QYHc034+VABgAAAAAAABIsnu/3ySDguBmONw83vqevRuuu7r5dWhncDsIgAEAAAAAAIAkw492bh4T+I7NSM9taDDc2n09HgJgAAAAAAAAYGC0czOwrO3alZetXJlfv+OOHLh5c4er6y6b5s3LT084Id9Zvjz1GYMjW3sAAwAAAAAAAOPSGv42X+def33O/sEPOl1aVzpw8+acfdNNSVnmupe9bMQx0WPRnkHSAAAAAAAAQFcoyzL1ej0n3Xlnp0vpeifdeWfq9Xpbx2vrAAYAAAAAAID92HDdv/V6PfONfZ5w8zdvTr1eT1EUe4TAY+0CLs666iy7NU+wBbMX5KntT3W6DBg3v8t0C7/LdAu/y3QLv8uT43m/mtPpErreQQcszIZtT3a6DBi3bYvm5qFibafLgHHz7xh0C7/LdAu/y5PjnFXnjOm61tC3LMv09/env78/H/3zP29zhQznT9/znvT09KSnpydFUaRWq6UoijEHwDNuWHVDm0tkqLOeeVY8Z7qB32W6hd9luoXfZbqF3+XJ4QlPvLMOPSs3POVJM/2dVfjnMt3Bv2PQLfwu0y38Lk+OczK2ADjJQPdpaxcwk6P1mTc7ge0BDAAAAAAAAIzJcOFvvV7vcFXtsy7Jzk4XsRfNzuvW4H08Abw9gAEAAAAAAGA/NTRonKodwF9L8g9Djs1M8ukkB+zlul1JXp/kvyV5fpLbkvQkecEE1DhWIz3zsXYCC4ABAAAAAACAAVMxAF6dKsy9uOVYLVUIvDc9qcLfoxvvv5GkN1MzAG4XATAAAAAAAAAw5ULfoRYleeEwx9ck+ackf5BkTpL+JP8jyRlJjkvyg1Tdv/cmuT5VKNyX5DlJ3pxk7Lvttl87/j+wBzAAAAAAAACQJG3Zg3aibEryi5bXI43ji1N1CH84ST3JZ1N1+h7beP+5xueekSr0XZrkJam6gKdC+NvuZ64DGAAAAAAAAPZzreHjVAx/k6p7920t75em2gO4luQDSV6b5MokX0ry9VTjoXc1PvuzVF3Az0o1Avr0Sal49IY+/7Hs/dskAAYAAAAAAACmvN9MtZ/vcOYluSzJy5P8fZIlk1TTVGQENAAAAAAAADCt7UjyySTnpxoBva2z5XSUABgAAAAAAACY1j6Z5MAkVyf5tSQfTTLcIOuDkjw6iXV1ggAYAAAAAAAAmPL+OknR8jqwcfyGJP+YKvTtTXJ5km8l+eYwa7wmye1JliX5zxk+JJ7u7AEMAAAAAAAATGl/1HgN56wkP255f1CqULjpey3fPzPJde0tbcrRAQwAAAAAAADQJQTAAAAAAAAAAF1CAAwAAAAAAAD7uaIohv2eydHO5y8ABgAAAAAAAJLsDh+FwJOn3c9cAAwAAAAAAADsEUBumDu3Q5XsP4Y+43aEwAJgAAAAAAAAYEBRFCmKIrcsW9bpUrreLcuWDTzvdpnRtpUAAAAAAACAaaUoipRlOeh98/Wvp52Welnm1HvuyUFbt3awyu6zYc6c/GjZslx72mmDnnmrsYbCAmAAAAAAAADYjzVD4NYgslarZVdvb7525pn56mmnpb+/P/V6PWVZDgTGrcExI2vd47f5bHt6ena/arU9QuDxdAQLgAEAAAAAAGA/N1II3Ax5i6IYFAALf/fN0Ofa+mpn+JsIgAEAAAAAAIDsDh5bg9/m8dZAuPWcIHjvWsPc4ULgnp6ePYLg8RIAAwAAAAAAwH5suL1na7XawPtarWb88zgNNwa6NQhuDYfHGwQLgAEAAAAAAIABrQFlczS07t+xG6kLeOhzbhcBMAAAAAAAAOznhusCbu4JPNy+v8LffbO3EHhod7A9gAEAAAAAAIBxGyl4bIbATcLfsRkaAje/Dvf9eAiAAQAAAAAAgCR77wQeShA8OnsL1of7Ol4CYAAAAAAAAGDAaIPIdu5buz9qd/DbJAAGAAAAAAAA9jA0oNTx2x4THZwLgAEAAAAAAICnpeN3eqh1ugAAAAAAAAAA2uP/AAqpIFLIzSoAAAAAAElFTkSuQmCC;" vertex="1" parent="1">
          <mxGeometry width="851.88" height="480" as="geometry" />
        </mxCell>
      </root>
    </mxGraphModel>
  </diagram>
</mxfile>
